name: knxt Medium 20
foundry: k
copyright: Konstantin Bytensky
point-size: 20
weight: medium
spacing: character-cell
x-height: 9
cap-height: 13
offset: 0 -4
encoding: unicode
default-char: u+fffd
converter: monobit v0.12
source-name: knxt.bdf
source-format: BDF v2.1
bdf.MIN-SPACE: 9

u+0020:
\u0020:
    .........
    .........
    .........
    .........
    .........
    .........
    .........
    .........
    .........
    .........
    .........
    .........
    .........
    .........
    .........
    .........
    .........
    .........
    .........
    .........

u+0021:
\u0021:
    .........
    .........
    .........
    ....@....
    ....@....
    ....@....
    ....@....
    ....@....
    ....@....
    ....@....
    ....@....
    ....@....
    ....@....
    .........
    ....@....
    ....@....
    .........
    .........
    .........
    .........

u+0022:
\u0022:
    .........
    .........
    .........
    ..@...@..
    ..@...@..
    ..@...@..
    ..@...@..
    .........
    .........
    .........
    .........
    .........
    .........
    .........
    .........
    .........
    .........
    .........
    .........
    .........

u+0023:
\u0023:
    .........
    .........
    .........
    .........
    .........
    .........
    ...@.@...
    ...@.@...
    ...@.@...
    .@@@@@@@.
    ...@.@...
    ...@.@...
    .@@@@@@@.
    ...@.@...
    ...@.@...
    ...@.@...
    .........
    .........
    .........
    .........

u+0024:
\u0024:
    .........
    .........
    ....@....
    ...@@@...
    ..@.@.@..
    .@..@..@.
    .@..@....
    .@..@....
    ..@.@....
    ...@@@...
    ....@.@..
    ....@..@.
    ....@..@.
    .@..@..@.
    ..@.@.@..
    ...@@@...
    ....@....
    .........
    .........
    .........

u+0025:
\u0025:
    .........
    .........
    .........
    .........
    ...@...@.
    ..@.@..@.
    ..@.@.@..
    ...@..@..
    .....@...
    .....@...
    ....@....
    ....@....
    ...@..@..
    ...@.@.@.
    ..@..@.@.
    ..@...@..
    .........
    .........
    .........
    .........

u+0026:
\u0026:
    .........
    .........
    .........
    ...@@....
    ..@..@...
    ..@..@...
    ..@..@...
    ...@@....
    ...@@....
    ..@.@....
    ..@..@.@.
    .@...@.@.
    .@....@..
    .@....@..
    ..@..@.@.
    ...@@..@.
    .........
    .........
    .........
    .........

u+0027:
\u0027:
    .........
    .........
    .........
    ....@....
    ....@....
    ....@....
    ....@....
    .........
    .........
    .........
    .........
    .........
    .........
    .........
    .........
    .........
    .........
    .........
    .........
    .........

u+0028:
\u0028:
    .........
    .........
    ......@..
    .....@...
    .....@...
    .....@...
    ....@....
    ....@....
    ....@....
    ....@....
    ....@....
    ....@....
    ....@....
    .....@...
    .....@...
    .....@...
    ......@..
    .........
    .........
    .........

u+0029:
\u0029:
    .........
    .........
    ..@......
    ...@.....
    ...@.....
    ...@.....
    ....@....
    ....@....
    ....@....
    ....@....
    ....@....
    ....@....
    ....@....
    ...@.....
    ...@.....
    ...@.....
    ..@......
    .........
    .........
    .........

u+002a:
\u002A:
    .........
    .........
    .........
    .........
    .........
    .........
    .........
    .........
    ..@...@..
    ...@.@...
    ....@....
    .@@@@@@@.
    ....@....
    ...@.@...
    ..@...@..
    .........
    .........
    .........
    .........
    .........

u+002b:
\u002B:
    .........
    .........
    .........
    .........
    .........
    .........
    .........
    .........
    ....@....
    ....@....
    ....@....
    .@@@@@@@.
    ....@....
    ....@....
    ....@....
    .........
    .........
    .........
    .........
    .........

u+002c:
\u002C:
    .........
    .........
    .........
    .........
    .........
    .........
    .........
    .........
    .........
    .........
    .........
    .........
    .........
    .........
    ....@@...
    .....@...
    ....@....
    .........
    .........
    .........

u+002d:
\u002D:
    .........
    .........
    .........
    .........
    .........
    .........
    .........
    .........
    .........
    .........
    .........
    .@@@@@@@.
    .........
    .........
    .........
    .........
    .........
    .........
    .........
    .........

u+002e:
\u002E:
    .........
    .........
    .........
    .........
    .........
    .........
    .........
    .........
    .........
    .........
    .........
    .........
    .........
    .........
    ....@....
    ....@....
    .........
    .........
    .........
    .........

u+002f:
\u002F:
    .........
    .........
    .........
    .........
    .......@.
    .......@.
    ......@..
    ......@..
    .....@...
    .....@...
    ....@....
    ....@....
    ...@.....
    ...@.....
    ..@......
    ..@......
    .........
    .........
    .........
    .........

u+0030:
\u0030:
    .........
    .........
    .........
    ...@@@...
    ..@...@..
    .@.....@.
    .@.....@.
    .@....@@.
    .@...@.@.
    .@..@..@.
    .@.@...@.
    .@@....@.
    .@.....@.
    .@.....@.
    ..@...@..
    ...@@@...
    .........
    .........
    .........
    .........

u+0031:
\u0031:
    .........
    .........
    .........
    ....@....
    ...@@....
    ..@.@....
    .@..@....
    ....@....
    ....@....
    ....@....
    ....@....
    ....@....
    ....@....
    ....@....
    ....@....
    ....@....
    .........
    .........
    .........
    .........

u+0032:
\u0032:
    .........
    .........
    .........
    ...@@@...
    ..@...@..
    .@.....@.
    .@.....@.
    .......@.
    .......@.
    ......@..
    .....@...
    ....@....
    ...@.....
    ..@......
    .@.......
    .@@@@@@@.
    .........
    .........
    .........
    .........

u+0033:
\u0033:
    .........
    .........
    .........
    ...@@@...
    ..@...@..
    .@.....@.
    .......@.
    .......@.
    ......@..
    ...@@@...
    ......@..
    .......@.
    .......@.
    .@.....@.
    ..@...@..
    ...@@@...
    .........
    .........
    .........
    .........

u+0034:
\u0034:
    .........
    .........
    .........
    .....@...
    .....@...
    ....@....
    ....@....
    ...@.....
    ...@.....
    ..@...@..
    ..@...@..
    .@....@..
    .@....@..
    .@@@@@@@.
    ......@..
    ......@..
    .........
    .........
    .........
    .........

u+0035:
\u0035:
    .........
    .........
    .........
    .@@@@@@@.
    .@.......
    .@.......
    .@.......
    .@.......
    .@@@@@...
    ......@..
    .......@.
    .......@.
    .......@.
    .@.....@.
    ..@...@..
    ...@@@...
    .........
    .........
    .........
    .........

u+0036:
\u0036:
    .........
    .........
    .........
    ....@@@..
    ...@.....
    ..@......
    ..@......
    .@.......
    .@.@@@...
    .@@...@..
    .@.....@.
    .@.....@.
    .@.....@.
    .@.....@.
    ..@...@..
    ...@@@...
    .........
    .........
    .........
    .........

u+0037:
\u0037:
    .........
    .........
    .........
    .@@@@@@@.
    .......@.
    .......@.
    .......@.
    ......@..
    ......@..
    ......@..
    .....@...
    .....@...
    .....@...
    ....@....
    ....@....
    ....@....
    .........
    .........
    .........
    .........

u+0038:
\u0038:
    .........
    .........
    .........
    ...@@@...
    ..@...@..
    .@.....@.
    .@.....@.
    .@.....@.
    ..@...@..
    ...@@@...
    ..@...@..
    .@.....@.
    .@.....@.
    .@.....@.
    ..@...@..
    ...@@@...
    .........
    .........
    .........
    .........

u+0039:
\u0039:
    .........
    .........
    .........
    ...@@@...
    ..@...@..
    .@.....@.
    .@.....@.
    .@.....@.
    .@.....@.
    ..@...@@.
    ...@@@.@.
    .......@.
    ......@..
    ......@..
    .....@...
    ..@@@....
    .........
    .........
    .........
    .........

u+003a:
\u003A:
    .........
    .........
    .........
    .........
    .........
    .........
    .........
    ....@....
    ....@....
    .........
    .........
    .........
    .........
    .........
    ....@....
    ....@....
    .........
    .........
    .........
    .........

u+003b:
\u003B:
    .........
    .........
    .........
    .........
    .........
    .........
    .........
    ....@....
    ....@....
    .........
    .........
    .........
    .........
    .........
    ....@....
    ....@....
    ...@.....
    .........
    .........
    .........

u+003c:
\u003C:
    .........
    .........
    .........
    .........
    .........
    .........
    .........
    ......@..
    .....@...
    ....@....
    ...@.....
    ..@......
    ...@.....
    ....@....
    .....@...
    ......@..
    .........
    .........
    .........
    .........

u+003d:
\u003D:
    .........
    .........
    .........
    .........
    .........
    .........
    .........
    .........
    .........
    .@@@@@@@.
    .........
    .........
    .........
    .@@@@@@@.
    .........
    .........
    .........
    .........
    .........
    .........

u+003e:
\u003E:
    .........
    .........
    .........
    .........
    .........
    .........
    .........
    ..@......
    ...@.....
    ....@....
    .....@...
    ......@..
    .....@...
    ....@....
    ...@.....
    ..@......
    .........
    .........
    .........
    .........

u+003f:
\u003F:
    .........
    .........
    .........
    ...@@@...
    ..@...@..
    .@.....@.
    .@.....@.
    .......@.
    ......@..
    .....@...
    ....@....
    ....@....
    ....@....
    .........
    ....@....
    ....@....
    .........
    .........
    .........
    .........

u+0040:
\u0040:
    .........
    .........
    .........
    .........
    ...@@@...
    ..@...@..
    .@.....@.
    .@..@@.@.
    .@.@..@@.
    .@.@...@.
    .@.@...@.
    .@.@..@@.
    .@..@@.@.
    .@.......
    ..@....@.
    ...@@@@..
    .........
    .........
    .........
    .........

u+0041:
\u0041:
    .........
    .........
    .........
    ....@....
    ....@....
    ...@.@...
    ...@.@...
    ...@.@...
    ..@...@..
    ..@...@..
    ..@...@..
    ..@...@..
    .@@@@@@@.
    .@.....@.
    .@.....@.
    .@.....@.
    .........
    .........
    .........
    .........

u+0042:
\u0042:
    .........
    .........
    .........
    .@@@@@...
    .@....@..
    .@.....@.
    .@.....@.
    .@....@..
    .@@@@@...
    .@....@..
    .@.....@.
    .@.....@.
    .@.....@.
    .@.....@.
    .@....@..
    .@@@@@...
    .........
    .........
    .........
    .........

u+0043:
\u0043:
    .........
    .........
    .........
    ...@@@...
    ..@...@..
    .@.....@.
    .@.......
    .@.......
    .@.......
    .@.......
    .@.......
    .@.......
    .@.......
    .@.....@.
    ..@...@..
    ...@@@...
    .........
    .........
    .........
    .........

u+0044:
\u0044:
    .........
    .........
    .........
    .@@@@@...
    .@....@..
    .@.....@.
    .@.....@.
    .@.....@.
    .@.....@.
    .@.....@.
    .@.....@.
    .@.....@.
    .@.....@.
    .@.....@.
    .@....@..
    .@@@@@...
    .........
    .........
    .........
    .........

u+0045:
\u0045:
    .........
    .........
    .........
    .@@@@@@@.
    .@.......
    .@.......
    .@.......
    .@.......
    .@.......
    .@@@@@...
    .@.......
    .@.......
    .@.......
    .@.......
    .@.......
    .@@@@@@@.
    .........
    .........
    .........
    .........

u+0046:
\u0046:
    .........
    .........
    .........
    .@@@@@@@.
    .@.......
    .@.......
    .@.......
    .@.......
    .@.......
    .@@@@@...
    .@.......
    .@.......
    .@.......
    .@.......
    .@.......
    .@.......
    .........
    .........
    .........
    .........

u+0047:
\u0047:
    .........
    .........
    .........
    ...@@@...
    ..@...@..
    .@.....@.
    .@.......
    .@.......
    .@.......
    .@.......
    .@...@@@.
    .@.....@.
    .@.....@.
    .@.....@.
    ..@...@@.
    ...@@@.@.
    .........
    .........
    .........
    .........

u+0048:
\u0048:
    .........
    .........
    .........
    .@.....@.
    .@.....@.
    .@.....@.
    .@.....@.
    .@.....@.
    .@.....@.
    .@@@@@@@.
    .@.....@.
    .@.....@.
    .@.....@.
    .@.....@.
    .@.....@.
    .@.....@.
    .........
    .........
    .........
    .........

u+0049:
\u0049:
    .........
    .........
    .........
    ...@@@...
    ....@....
    ....@....
    ....@....
    ....@....
    ....@....
    ....@....
    ....@....
    ....@....
    ....@....
    ....@....
    ....@....
    ...@@@...
    .........
    .........
    .........
    .........

u+004a:
\u004A:
    .........
    .........
    .........
    .......@.
    .......@.
    .......@.
    .......@.
    .......@.
    .......@.
    .......@.
    .......@.
    .......@.
    .......@.
    .@.....@.
    ..@...@..
    ...@@@...
    .........
    .........
    .........
    .........

u+004b:
\u004B:
    .........
    .........
    .........
    .@.....@.
    .@.....@.
    .@....@..
    .@...@...
    .@..@....
    .@.@.....
    .@@......
    .@.@.....
    .@..@....
    .@...@...
    .@....@..
    .@.....@.
    .@.....@.
    .........
    .........
    .........
    .........

u+004c:
\u004C:
    .........
    .........
    .........
    .@.......
    .@.......
    .@.......
    .@.......
    .@.......
    .@.......
    .@.......
    .@.......
    .@.......
    .@.......
    .@.......
    .@.......
    .@@@@@@@.
    .........
    .........
    .........
    .........

u+004d:
\u004D:
    .........
    .........
    .........
    .@.....@.
    .@.....@.
    .@@...@@.
    .@@...@@.
    .@.@.@.@.
    .@.@.@.@.
    .@..@..@.
    .@..@..@.
    .@.....@.
    .@.....@.
    .@.....@.
    .@.....@.
    .@.....@.
    .........
    .........
    .........
    .........

u+004e:
\u004E:
    .........
    .........
    .........
    .@.....@.
    .@.....@.
    .@@....@.
    .@@....@.
    .@.@...@.
    .@.@...@.
    .@..@..@.
    .@..@..@.
    .@...@.@.
    .@...@.@.
    .@....@@.
    .@....@@.
    .@.....@.
    .........
    .........
    .........
    .........

u+004f:
\u004F:
    .........
    .........
    .........
    ...@@@...
    ..@...@..
    .@.....@.
    .@.....@.
    .@.....@.
    .@.....@.
    .@.....@.
    .@.....@.
    .@.....@.
    .@.....@.
    .@.....@.
    ..@...@..
    ...@@@...
    .........
    .........
    .........
    .........

u+0050:
\u0050:
    .........
    .........
    .........
    .@@@@@...
    .@....@..
    .@.....@.
    .@.....@.
    .@.....@.
    .@.....@.
    .@....@..
    .@@@@@...
    .@.......
    .@.......
    .@.......
    .@.......
    .@.......
    .........
    .........
    .........
    .........

u+0051:
\u0051:
    .........
    .........
    .........
    ...@@@...
    ..@...@..
    .@.....@.
    .@.....@.
    .@.....@.
    .@.....@.
    .@.....@.
    .@.....@.
    .@.....@.
    .@.....@.
    .@...@.@.
    ..@...@..
    ...@@@.@.
    .........
    .........
    .........
    .........

u+0052:
\u0052:
    .........
    .........
    .........
    .@@@@@...
    .@....@..
    .@.....@.
    .@.....@.
    .@.....@.
    .@.....@.
    .@....@..
    .@@@@@...
    .@...@...
    .@....@..
    .@....@..
    .@.....@.
    .@.....@.
    .........
    .........
    .........
    .........

u+0053:
\u0053:
    .........
    .........
    .........
    ...@@@...
    ..@...@..
    .@.....@.
    .@.......
    .@.......
    ..@......
    ...@@@...
    ......@..
    .......@.
    .......@.
    .@.....@.
    ..@...@..
    ...@@@...
    .........
    .........
    .........
    .........

u+0054:
\u0054:
    .........
    .........
    .........
    .@@@@@@@.
    ....@....
    ....@....
    ....@....
    ....@....
    ....@....
    ....@....
    ....@....
    ....@....
    ....@....
    ....@....
    ....@....
    ....@....
    .........
    .........
    .........
    .........

u+0055:
\u0055:
    .........
    .........
    .........
    .@.....@.
    .@.....@.
    .@.....@.
    .@.....@.
    .@.....@.
    .@.....@.
    .@.....@.
    .@.....@.
    .@.....@.
    .@.....@.
    .@.....@.
    ..@...@..
    ...@@@...
    .........
    .........
    .........
    .........

u+0056:
\u0056:
    .........
    .........
    .........
    .@.....@.
    .@.....@.
    .@.....@.
    .@.....@.
    ..@...@..
    ..@...@..
    ..@...@..
    ..@...@..
    ...@.@...
    ...@.@...
    ...@.@...
    ....@....
    ....@....
    .........
    .........
    .........
    .........

u+0057:
\u0057:
    .........
    .........
    .........
    @...@...@
    @...@...@
    @...@...@
    @...@...@
    @...@...@
    .@.@.@.@.
    .@.@.@.@.
    .@.@.@.@.
    .@.@.@.@.
    ..@...@..
    ..@...@..
    ..@...@..
    ..@...@..
    .........
    .........
    .........
    .........

u+0058:
\u0058:
    .........
    .........
    .........
    .@.....@.
    .@.....@.
    ..@...@..
    ..@...@..
    ...@.@...
    ...@.@...
    ....@....
    ...@.@...
    ...@.@...
    ..@...@..
    ..@...@..
    .@.....@.
    .@.....@.
    .........
    .........
    .........
    .........

u+0059:
\u0059:
    .........
    .........
    .........
    .@.....@.
    .@.....@.
    ..@...@..
    ..@...@..
    ...@.@...
    ...@.@...
    ....@....
    ....@....
    ....@....
    ....@....
    ....@....
    ....@....
    ....@....
    .........
    .........
    .........
    .........

u+005a:
\u005A:
    .........
    .........
    .........
    .@@@@@@@.
    .......@.
    .......@.
    .......@.
    ......@..
    .....@...
    ....@....
    ...@.....
    ..@......
    .@.......
    .@.......
    .@.......
    .@@@@@@@.
    .........
    .........
    .........
    .........

u+005b:
\u005B:
    .........
    .........
    ....@@@..
    ....@....
    ....@....
    ....@....
    ....@....
    ....@....
    ....@....
    ....@....
    ....@....
    ....@....
    ....@....
    ....@....
    ....@....
    ....@....
    ....@@@..
    .........
    .........
    .........

u+005c:
\u005C:
    .........
    .........
    .........
    .........
    ..@......
    ..@......
    ...@.....
    ...@.....
    ....@....
    ....@....
    .....@...
    .....@...
    ......@..
    ......@..
    .......@.
    .......@.
    .........
    .........
    .........
    .........

u+005d:
\u005D:
    .........
    .........
    ..@@@....
    ....@....
    ....@....
    ....@....
    ....@....
    ....@....
    ....@....
    ....@....
    ....@....
    ....@....
    ....@....
    ....@....
    ....@....
    ....@....
    ..@@@....
    .........
    .........
    .........

u+005e:
\u005E:
    .........
    .........
    .........
    ....@....
    ...@.@...
    ..@...@..
    .@.....@.
    .........
    .........
    .........
    .........
    .........
    .........
    .........
    .........
    .........
    .........
    .........
    .........
    .........

u+005f:
\u005F:
    .........
    .........
    .........
    .........
    .........
    .........
    .........
    .........
    .........
    .........
    .........
    .........
    .........
    .........
    .........
    .@@@@@@@.
    .........
    .........
    .........
    .........

u+0060:
\u0060:
    .........
    .........
    .........
    ...@.....
    ....@....
    .....@...
    .........
    .........
    .........
    .........
    .........
    .........
    .........
    .........
    .........
    .........
    .........
    .........
    .........
    .........

u+0061:
\u0061:
    .........
    .........
    .........
    .........
    .........
    .........
    .........
    ...@@@@..
    ..@....@.
    .......@.
    ...@@@@@.
    ..@....@.
    .@.....@.
    .@.....@.
    ..@...@@.
    ...@@@.@.
    .........
    .........
    .........
    .........

u+0062:
\u0062:
    .........
    .........
    .........
    .@.......
    .@.......
    .@.......
    .@.......
    .@.@@@...
    .@@...@..
    .@.....@.
    .@.....@.
    .@.....@.
    .@.....@.
    .@.....@.
    .@@...@..
    .@.@@@...
    .........
    .........
    .........
    .........

u+0063:
\u0063:
    .........
    .........
    .........
    .........
    .........
    .........
    .........
    ...@@@@..
    ..@....@.
    .@.......
    .@.......
    .@.......
    .@.......
    .@.......
    ..@....@.
    ...@@@@..
    .........
    .........
    .........
    .........

u+0064:
\u0064:
    .........
    .........
    .........
    .......@.
    .......@.
    .......@.
    .......@.
    ...@@@.@.
    ..@...@@.
    .@.....@.
    .@.....@.
    .@.....@.
    .@.....@.
    .@.....@.
    ..@...@@.
    ...@@@.@.
    .........
    .........
    .........
    .........

u+0065:
\u0065:
    .........
    .........
    .........
    .........
    .........
    .........
    .........
    ...@@@...
    ..@...@..
    .@.....@.
    .@.....@.
    .@@@@@@@.
    .@.......
    .@.......
    ..@....@.
    ...@@@@..
    .........
    .........
    .........
    .........

u+0066:
\u0066:
    .........
    .........
    .........
    .....@@@.
    ....@....
    ....@....
    ....@....
    ..@@@@@..
    ....@....
    ....@....
    ....@....
    ....@....
    ....@....
    ....@....
    ....@....
    ....@....
    .........
    .........
    .........
    .........

u+0067:
\u0067:
    .........
    .........
    .........
    .........
    .........
    .........
    .........
    ...@@@.@.
    ..@...@@.
    .@.....@.
    .@.....@.
    .@.....@.
    .@.....@.
    .@.....@.
    ..@...@@.
    ...@@@.@.
    .......@.
    .......@.
    .@....@..
    ..@@@@...

u+0068:
\u0068:
    .........
    .........
    .........
    .@.......
    .@.......
    .@.......
    .@.......
    .@.@@@...
    .@@...@..
    .@.....@.
    .@.....@.
    .@.....@.
    .@.....@.
    .@.....@.
    .@.....@.
    .@.....@.
    .........
    .........
    .........
    .........

u+0069:
\u0069:
    .........
    .........
    .........
    .........
    ....@....
    ....@....
    .........
    ...@@....
    ....@....
    ....@....
    ....@....
    ....@....
    ....@....
    ....@....
    ....@....
    ....@....
    .........
    .........
    .........
    .........

u+006a:
\u006A:
    .........
    .........
    .........
    .........
    ....@....
    ....@....
    .........
    ....@....
    ....@....
    ....@....
    ....@....
    ....@....
    ....@....
    ....@....
    ....@....
    ....@....
    ....@....
    ....@....
    .@@@.....
    .........

u+006b:
\u006B:
    .........
    .........
    .........
    .@.......
    .@.......
    .@.......
    .@.......
    .@.....@.
    .@....@..
    .@...@...
    .@..@....
    .@@@.....
    .@..@....
    .@...@...
    .@....@..
    .@.....@.
    .........
    .........
    .........
    .........

u+006c:
\u006C:
    .........
    .........
    .........
    ...@@....
    ....@....
    ....@....
    ....@....
    ....@....
    ....@....
    ....@....
    ....@....
    ....@....
    ....@....
    ....@....
    ....@....
    .....@@..
    .........
    .........
    .........
    .........

u+006d:
\u006D:
    .........
    .........
    .........
    .........
    .........
    .........
    .........
    .@@@.@@..
    .@..@..@.
    .@..@..@.
    .@..@..@.
    .@..@..@.
    .@..@..@.
    .@..@..@.
    .@..@..@.
    .@..@..@.
    .........
    .........
    .........
    .........

u+006e:
\u006E:
    .........
    .........
    .........
    .........
    .........
    .........
    .........
    .@.@@@...
    .@@...@..
    .@.....@.
    .@.....@.
    .@.....@.
    .@.....@.
    .@.....@.
    .@.....@.
    .@.....@.
    .........
    .........
    .........
    .........

u+006f:
\u006F:
    .........
    .........
    .........
    .........
    .........
    .........
    .........
    ...@@@...
    ..@...@..
    .@.....@.
    .@.....@.
    .@.....@.
    .@.....@.
    .@.....@.
    ..@...@..
    ...@@@...
    .........
    .........
    .........
    .........

u+0070:
\u0070:
    .........
    .........
    .........
    .........
    .........
    .........
    .........
    .@.@@@...
    .@@...@..
    .@.....@.
    .@.....@.
    .@.....@.
    .@.....@.
    .@.....@.
    .@@...@..
    .@.@@@...
    .@.......
    .@.......
    .@.......
    .........

u+0071:
\u0071:
    .........
    .........
    .........
    .........
    .........
    .........
    .........
    ...@@@.@.
    ..@...@@.
    .@.....@.
    .@.....@.
    .@.....@.
    .@.....@.
    .@.....@.
    ..@...@@.
    ...@@@.@.
    .......@.
    .......@.
    .......@.
    .........

u+0072:
\u0072:
    .........
    .........
    .........
    .........
    .........
    .........
    .........
    .@..@@@..
    .@.@...@.
    .@@......
    .@.......
    .@.......
    .@.......
    .@.......
    .@.......
    .@.......
    .........
    .........
    .........
    .........

u+0073:
\u0073:
    .........
    .........
    .........
    .........
    .........
    .........
    .........
    ..@@@@@..
    .@.....@.
    .@.......
    .@.......
    ..@@@@@..
    .......@.
    .......@.
    .@.....@.
    ..@@@@@..
    .........
    .........
    .........
    .........

u+0074:
\u0074:
    .........
    .........
    .........
    .........
    .........
    ....@....
    ....@....
    ..@@@@@..
    ....@....
    ....@....
    ....@....
    ....@....
    ....@....
    ....@....
    ....@....
    .....@@@.
    .........
    .........
    .........
    .........

u+0075:
\u0075:
    .........
    .........
    .........
    .........
    .........
    .........
    .........
    .@.....@.
    .@.....@.
    .@.....@.
    .@.....@.
    .@.....@.
    .@.....@.
    .@.....@.
    ..@...@@.
    ...@@@.@.
    .........
    .........
    .........
    .........

u+0076:
\u0076:
    .........
    .........
    .........
    .........
    .........
    .........
    .........
    .@.....@.
    .@.....@.
    .@.....@.
    ..@...@..
    ..@...@..
    ...@.@...
    ...@.@...
    ....@....
    ....@....
    .........
    .........
    .........
    .........

u+0077:
\u0077:
    .........
    .........
    .........
    .........
    .........
    .........
    .........
    .@.....@.
    .@..@..@.
    .@..@..@.
    .@..@..@.
    .@.@.@.@.
    .@.@.@.@.
    ..@...@..
    ..@...@..
    ..@...@..
    .........
    .........
    .........
    .........

u+0078:
\u0078:
    .........
    .........
    .........
    .........
    .........
    .........
    .........
    .@.....@.
    .@.....@.
    ..@...@..
    ...@.@...
    ....@....
    ...@.@...
    ..@...@..
    .@.....@.
    .@.....@.
    .........
    .........
    .........
    .........

u+0079:
\u0079:
    .........
    .........
    .........
    .........
    .........
    .........
    .........
    .@.....@.
    .@.....@.
    .@.....@.
    ..@...@..
    ..@...@..
    ...@.@...
    ...@.@...
    ....@....
    ....@....
    ...@.....
    ...@.....
    .@@......
    .........

u+007a:
\u007A:
    .........
    .........
    .........
    .........
    .........
    .........
    .........
    .@@@@@@@.
    .......@.
    ......@..
    .....@...
    ....@....
    ...@.....
    ..@......
    .@.......
    .@@@@@@@.
    .........
    .........
    .........
    .........

u+007b:
\u007B:
    .........
    .........
    .....@...
    ....@....
    ....@....
    ....@....
    ....@....
    ....@....
    ....@....
    ...@.....
    ....@....
    ....@....
    ....@....
    ....@....
    ....@....
    ....@....
    .....@...
    .........
    .........
    .........

u+007c:
\u007C:
    .........
    .........
    .........
    ....@....
    ....@....
    ....@....
    ....@....
    ....@....
    ....@....
    ....@....
    ....@....
    ....@....
    ....@....
    ....@....
    ....@....
    ....@....
    .........
    .........
    .........
    .........

u+007d:
\u007D:
    .........
    .........
    ...@.....
    ....@....
    ....@....
    ....@....
    ....@....
    ....@....
    ....@....
    .....@...
    ....@....
    ....@....
    ....@....
    ....@....
    ....@....
    ....@....
    ...@.....
    .........
    .........
    .........

u+007e:
\u007E:
    .........
    .........
    .........
    .........
    .........
    .........
    .........
    .........
    .........
    .........
    ..@@.....
    .@..@..@.
    .....@@..
    .........
    .........
    .........
    .........
    .........
    .........
    .........

u+00a0:
\u00A0:
    .........
    .........
    .........
    .........
    .........
    .........
    .........
    .........
    .........
    .........
    .........
    .........
    .........
    .........
    .........
    .........
    .........
    .........
    .........
    .........

u+00a1:
\u00A1:
    .........
    .........
    .........
    ....@....
    ....@....
    .........
    ....@....
    ....@....
    ....@....
    ....@....
    ....@....
    ....@....
    ....@....
    ....@....
    ....@....
    ....@....
    .........
    .........
    .........
    .........

u+00a2:
\u00A2:
    .........
    .........
    .........
    .........
    .........
    .........
    ....@....
    ...@@@@..
    ..@.@..@.
    .@..@....
    .@..@....
    .@..@....
    .@..@....
    .@..@....
    ..@.@..@.
    ...@@@@..
    ....@....
    .........
    .........
    .........

u+00a3:
\u00A3:
    .........
    .........
    .........
    ....@@@..
    ...@...@.
    ..@......
    ..@......
    ..@......
    ..@......
    .@@@@@@..
    ..@......
    ..@......
    ..@......
    ..@......
    ..@....@.
    .@@@@@@..
    .........
    .........
    .........
    .........

u+00a4:
\u00A4:
    .........
    .........
    .........
    .........
    .........
    .........
    .........
    .........
    @......@.
    .@.@@.@..
    ..@..@...
    .@....@..
    .@....@..
    ..@..@...
    .@.@@.@..
    @......@.
    .........
    .........
    .........
    .........

u+00a5:
\u00A5:
    .........
    .........
    .........
    .@.....@.
    .@.....@.
    ..@...@..
    ..@...@..
    ...@.@...
    ...@.@...
    ....@....
    ....@....
    ..@@@@@..
    ....@....
    ..@@@@@..
    ....@....
    ....@....
    .........
    .........
    .........
    .........

u+00a6:
\u00A6:
    .........
    .........
    .........
    ....@....
    ....@....
    ....@....
    ....@....
    ....@....
    ....@....
    .........
    ....@....
    ....@....
    ....@....
    ....@....
    ....@....
    ....@....
    .........
    .........
    .........
    .........

u+00a7:
\u00A7:
    .........
    .........
    .........
    ...@@@@..
    ..@....@.
    ..@......
    ...@.....
    ....@@...
    ...@..@..
    ..@....@.
    ...@..@..
    ....@@...
    ......@..
    .......@.
    ..@....@.
    ...@@@@..
    .........
    .........
    .........
    .........

u+00a8:
\u00A8:
    ..@...@..
    ..@...@..
    .........
    .........
    .........
    .........
    .........
    .........
    .........
    .........
    .........
    .........
    .........
    .........
    .........
    .........
    .........
    .........
    .........
    .........

u+00a9:
\u00A9:
    .........
    .........
    .........
    .........
    .........
    .........
    .........
    ..@@@@@..
    .@.....@.
    @..@@@..@
    @.@...@.@
    @.@.....@
    @.@...@.@
    @..@@@..@
    .@.....@.
    ..@@@@@..
    .........
    .........
    .........
    .........

u+00aa:
\u00AA:
    .........
    .........
    ...@@@...
    ......@..
    ...@@@@..
    ..@...@..
    ...@@@@..
    .........
    ..@@@@@..
    .........
    .........
    .........
    .........
    .........
    .........
    .........
    .........
    .........
    .........
    .........

u+00ab:
\u00AB:
    .........
    .........
    .........
    .........
    .........
    .........
    .........
    .........
    ....@..@.
    ...@..@..
    ..@..@...
    .@..@....
    ..@..@...
    ...@..@..
    ....@..@.
    .........
    .........
    .........
    .........
    .........

u+00ac:
\u00AC:
    .........
    .........
    .........
    .........
    .........
    .........
    .........
    .........
    .........
    .........
    .........
    .@@@@@@@.
    .......@.
    .......@.
    .........
    .........
    .........
    .........
    .........
    .........

u+00ad:
\u00AD:
    .........
    .........
    .........
    .........
    .........
    .........
    .........
    .........
    .........
    .........
    .........
    ...@@@...
    .........
    .........
    .........
    .........
    .........
    .........
    .........
    .........

u+00ae:
\u00AE:
    .........
    .........
    .........
    .........
    .........
    .........
    .........
    ..@@@@@..
    .@.....@.
    @..@@@..@
    @..@..@.@
    @..@@@..@
    @..@.@..@
    @..@..@.@
    .@.....@.
    ..@@@@@..
    .........
    .........
    .........
    .........

u+00af:
\u00AF:
    .........
    ..@@@@@..
    .........
    .........
    .........
    .........
    .........
    .........
    .........
    .........
    .........
    .........
    .........
    .........
    .........
    .........
    .........
    .........
    .........
    .........

u+00b0:
\u00B0:
    .........
    .........
    .........
    ...@@@...
    ..@...@..
    ..@...@..
    ..@...@..
    ...@@@...
    .........
    .........
    .........
    .........
    .........
    .........
    .........
    .........
    .........
    .........
    .........
    .........

u+00b1:
\u00B1:
    .........
    .........
    .........
    .........
    .........
    .........
    .........
    ....@....
    ....@....
    ....@....
    .@@@@@@@.
    ....@....
    ....@....
    ....@....
    .........
    .@@@@@@@.
    .........
    .........
    .........
    .........

u+00b2:
\u00B2:
    .........
    .........
    ...@@@...
    ..@...@..
    ......@..
    .....@...
    ....@....
    ...@.....
    ..@@@@@..
    .........
    .........
    .........
    .........
    .........
    .........
    .........
    .........
    .........
    .........
    .........

u+00b3:
\u00B3:
    .........
    .........
    ...@@@...
    ..@...@..
    ......@..
    ....@@...
    ......@..
    ..@...@..
    ...@@@...
    .........
    .........
    .........
    .........
    .........
    .........
    .........
    .........
    .........
    .........
    .........

u+00b4:
\u00B4:
    .........
    .........
    .........
    .....@...
    ....@....
    ...@.....
    .........
    .........
    .........
    .........
    .........
    .........
    .........
    .........
    .........
    .........
    .........
    .........
    .........
    .........

u+00b5:
\u00B5:
    .........
    .........
    .........
    .........
    .........
    .........
    .........
    .@.....@.
    .@.....@.
    .@.....@.
    .@.....@.
    .@.....@.
    .@.....@.
    .@.....@.
    .@@...@@.
    .@.@@@..@
    .@.......
    .@.......
    .@.......
    .........

u+00b6:
\u00B6:
    .........
    .........
    .........
    ..@@@@@..
    .@@@@.@..
    .@@@@.@..
    .@@@@.@..
    ..@@@.@..
    ....@.@..
    ....@.@..
    ....@.@..
    ....@.@..
    ....@.@..
    ....@.@..
    ....@.@..
    ....@.@..
    .........
    .........
    .........
    .........

u+00b7:
\u00B7:
    .........
    .........
    .........
    .........
    .........
    .........
    .........
    .........
    .........
    .........
    ....@....
    ....@....
    .........
    .........
    .........
    .........
    .........
    .........
    .........
    .........

u+00b8:
\u00B8:
    .........
    .........
    .........
    .........
    .........
    .........
    .........
    .........
    .........
    .........
    .........
    .........
    .........
    .........
    .........
    .........
    ....@....
    .....@...
    ...@@....
    .........

u+00b9:
\u00B9:
    .........
    .........
    ....@....
    ...@@....
    ..@.@....
    ....@....
    ....@....
    ....@....
    ....@....
    .........
    .........
    .........
    .........
    .........
    .........
    .........
    .........
    .........
    .........
    .........

u+00ba:
\u00BA:
    .........
    .........
    ...@@@...
    ..@...@..
    ..@...@..
    ..@...@..
    ...@@@...
    .........
    ..@@@@@..
    .........
    .........
    .........
    .........
    .........
    .........
    .........
    .........
    .........
    .........
    .........

u+00bb:
\u00BB:
    .........
    .........
    .........
    .........
    .........
    .........
    .........
    .........
    .@..@....
    ..@..@...
    ...@..@..
    ....@..@.
    ...@..@..
    ..@..@...
    .@..@....
    .........
    .........
    .........
    .........
    .........

u+00bc:
\u00BC:
    .........
    .........
    .........
    ...@.....
    ..@@.....
    .@.@.....
    ...@...@.
    ...@..@..
    .....@...
    ....@....
    ...@.....
    ..@...@..
    .@...@@..
    ....@.@..
    ....@@@@.
    ......@..
    .........
    .........
    .........
    .........

u+00bd:
\u00BD:
    .........
    .........
    .........
    ...@.....
    ..@@.....
    .@.@.....
    ...@...@.
    ...@..@..
    .....@...
    ....@....
    ...@.....
    ..@..@@..
    .@..@..@.
    ......@..
    .....@...
    ....@@@@.
    .........
    .........
    .........
    .........

u+00be:
\u00BE:
    .........
    .........
    .........
    ..@@.....
    .@..@....
    ...@.....
    .@..@..@.
    ..@@..@..
    .....@...
    ....@....
    ...@.....
    ..@...@..
    .@...@@..
    ....@.@..
    ....@@@@.
    ......@..
    .........
    .........
    .........
    .........

u+00bf:
\u00BF:
    .........
    .........
    .........
    ....@....
    ....@....
    .........
    ....@....
    ....@....
    ....@....
    ...@.....
    ..@......
    .@.......
    .@.....@.
    .@.....@.
    ..@...@..
    ...@@@...
    .........
    .........
    .........
    .........

u+00c0:
\u00C0:
    ...@.....
    ....@....
    .........
    ....@....
    ....@....
    ...@.@...
    ...@.@...
    ...@.@...
    ..@...@..
    ..@...@..
    ..@...@..
    ..@...@..
    .@@@@@@@.
    .@.....@.
    .@.....@.
    .@.....@.
    .........
    .........
    .........
    .........

u+00c1:
\u00C1:
    .....@...
    ....@....
    .........
    ....@....
    ....@....
    ...@.@...
    ...@.@...
    ...@.@...
    ..@...@..
    ..@...@..
    ..@...@..
    ..@...@..
    .@@@@@@@.
    .@.....@.
    .@.....@.
    .@.....@.
    .........
    .........
    .........
    .........

u+00c2:
\u00C2:
    ....@....
    ...@.@...
    .........
    ....@....
    ....@....
    ...@.@...
    ...@.@...
    ...@.@...
    ..@...@..
    ..@...@..
    ..@...@..
    ..@...@..
    .@@@@@@@.
    .@.....@.
    .@.....@.
    .@.....@.
    .........
    .........
    .........
    .........

u+00c3:
\u00C3:
    ..@@..@@.
    .@..@@...
    .........
    ....@....
    ....@....
    ...@.@...
    ...@.@...
    ...@.@...
    ..@...@..
    ..@...@..
    ..@...@..
    ..@...@..
    .@@@@@@@.
    .@.....@.
    .@.....@.
    .@.....@.
    .........
    .........
    .........
    .........

u+00c4:
\u00C4:
    ..@...@..
    ..@...@..
    .........
    ....@....
    ....@....
    ...@.@...
    ...@.@...
    ...@.@...
    ..@...@..
    ..@...@..
    ..@...@..
    ..@...@..
    .@@@@@@@.
    .@.....@.
    .@.....@.
    .@.....@.
    .........
    .........
    .........
    .........

u+00c5:
\u00C5:
    ....@....
    ...@.@...
    ....@....
    .........
    ....@....
    ...@.@...
    ...@.@...
    ...@.@...
    ..@...@..
    ..@...@..
    ..@...@..
    ..@...@..
    .@@@@@@@.
    .@.....@.
    .@.....@.
    .@.....@.
    .........
    .........
    .........
    .........

u+00c6:
\u00C6:
    .........
    .........
    .........
    ...@@@@@@
    ..@.@....
    ..@.@....
    ..@.@....
    ..@.@....
    .@..@....
    .@@@@@@@.
    .@..@....
    .@..@....
    @...@....
    @...@....
    @...@....
    @...@@@@@
    .........
    .........
    .........
    .........

u+00c7:
\u00C7:
    .........
    .........
    .........
    ...@@@...
    ..@...@..
    .@.....@.
    .@.......
    .@.......
    .@.......
    .@.......
    .@.......
    .@.......
    .@.......
    .@.....@.
    ..@...@..
    ...@@@...
    ....@....
    .....@...
    ...@@....
    .........

u+00c8:
\u00C8:
    ...@.....
    ....@....
    .........
    .@@@@@@@.
    .@.......
    .@.......
    .@.......
    .@.......
    .@.......
    .@@@@@...
    .@.......
    .@.......
    .@.......
    .@.......
    .@.......
    .@@@@@@@.
    .........
    .........
    .........
    .........

u+00c9:
\u00C9:
    .....@...
    ....@....
    .........
    .@@@@@@@.
    .@.......
    .@.......
    .@.......
    .@.......
    .@.......
    .@@@@@...
    .@.......
    .@.......
    .@.......
    .@.......
    .@.......
    .@@@@@@@.
    .........
    .........
    .........
    .........

u+00ca:
\u00CA:
    ....@....
    ...@.@...
    .........
    .@@@@@@@.
    .@.......
    .@.......
    .@.......
    .@.......
    .@.......
    .@@@@@...
    .@.......
    .@.......
    .@.......
    .@.......
    .@.......
    .@@@@@@@.
    .........
    .........
    .........
    .........

u+00cb:
\u00CB:
    ..@...@..
    ..@...@..
    .........
    .@@@@@@@.
    .@.......
    .@.......
    .@.......
    .@.......
    .@.......
    .@@@@@...
    .@.......
    .@.......
    .@.......
    .@.......
    .@.......
    .@@@@@@@.
    .........
    .........
    .........
    .........

u+00cc:
\u00CC:
    ...@.....
    ....@....
    .........
    ...@@@...
    ....@....
    ....@....
    ....@....
    ....@....
    ....@....
    ....@....
    ....@....
    ....@....
    ....@....
    ....@....
    ....@....
    ...@@@...
    .........
    .........
    .........
    .........

u+00cd:
\u00CD:
    .....@...
    ....@....
    .........
    ...@@@...
    ....@....
    ....@....
    ....@....
    ....@....
    ....@....
    ....@....
    ....@....
    ....@....
    ....@....
    ....@....
    ....@....
    ...@@@...
    .........
    .........
    .........
    .........

u+00ce:
\u00CE:
    ....@....
    ...@.@...
    .........
    ...@@@...
    ....@....
    ....@....
    ....@....
    ....@....
    ....@....
    ....@....
    ....@....
    ....@....
    ....@....
    ....@....
    ....@....
    ...@@@...
    .........
    .........
    .........
    .........

u+00cf:
\u00CF:
    ..@...@..
    ..@...@..
    .........
    ...@@@...
    ....@....
    ....@....
    ....@....
    ....@....
    ....@....
    ....@....
    ....@....
    ....@....
    ....@....
    ....@....
    ....@....
    ...@@@...
    .........
    .........
    .........
    .........

u+00d0:
\u00D0:
    .........
    .........
    .........
    .@@@@@...
    .@....@..
    .@.....@.
    .@.....@.
    .@.....@.
    .@.....@.
    @@@@...@.
    .@.....@.
    .@.....@.
    .@.....@.
    .@.....@.
    .@....@..
    .@@@@@...
    .........
    .........
    .........
    .........

u+00d1:
\u00D1:
    ..@@..@@.
    .@..@@...
    .........
    .@.....@.
    .@.....@.
    .@@....@.
    .@@....@.
    .@.@...@.
    .@.@...@.
    .@..@..@.
    .@..@..@.
    .@...@.@.
    .@...@.@.
    .@....@@.
    .@....@@.
    .@.....@.
    .........
    .........
    .........
    .........

u+00d2:
\u00D2:
    ...@.....
    ....@....
    .........
    ...@@@...
    ..@...@..
    .@.....@.
    .@.....@.
    .@.....@.
    .@.....@.
    .@.....@.
    .@.....@.
    .@.....@.
    .@.....@.
    .@.....@.
    ..@...@..
    ...@@@...
    .........
    .........
    .........
    .........

u+00d3:
\u00D3:
    .....@...
    ....@....
    .........
    ...@@@...
    ..@...@..
    .@.....@.
    .@.....@.
    .@.....@.
    .@.....@.
    .@.....@.
    .@.....@.
    .@.....@.
    .@.....@.
    .@.....@.
    ..@...@..
    ...@@@...
    .........
    .........
    .........
    .........

u+00d4:
\u00D4:
    ....@....
    ...@.@...
    .........
    ...@@@...
    ..@...@..
    .@.....@.
    .@.....@.
    .@.....@.
    .@.....@.
    .@.....@.
    .@.....@.
    .@.....@.
    .@.....@.
    .@.....@.
    ..@...@..
    ...@@@...
    .........
    .........
    .........
    .........

u+00d5:
\u00D5:
    ..@@..@@.
    .@..@@...
    .........
    ...@@@...
    ..@...@..
    .@.....@.
    .@.....@.
    .@.....@.
    .@.....@.
    .@.....@.
    .@.....@.
    .@.....@.
    .@.....@.
    .@.....@.
    ..@...@..
    ...@@@...
    .........
    .........
    .........
    .........

u+00d6:
\u00D6:
    ..@...@..
    ..@...@..
    .........
    ...@@@...
    ..@...@..
    .@.....@.
    .@.....@.
    .@.....@.
    .@.....@.
    .@.....@.
    .@.....@.
    .@.....@.
    .@.....@.
    .@.....@.
    ..@...@..
    ...@@@...
    .........
    .........
    .........
    .........

u+00d7:
\u00D7:
    .........
    .........
    .........
    .........
    .........
    .........
    .........
    .........
    .@.....@.
    ..@...@..
    ...@.@...
    ....@....
    ...@.@...
    ..@...@..
    .@.....@.
    .........
    .........
    .........
    .........
    .........

u+00d8:
\u00D8:
    .........
    .........
    .........
    ...@@@...
    ..@...@..
    .@.....@@
    .@.....@.
    .@....@@.
    .@...@.@.
    .@..@..@.
    .@.@...@.
    .@@....@.
    .@.....@.
    @@.....@.
    ..@...@..
    ...@@@...
    .........
    .........
    .........
    .........

u+00d9:
\u00D9:
    ...@.....
    ....@....
    .........
    .@.....@.
    .@.....@.
    .@.....@.
    .@.....@.
    .@.....@.
    .@.....@.
    .@.....@.
    .@.....@.
    .@.....@.
    .@.....@.
    .@.....@.
    ..@...@..
    ...@@@...
    .........
    .........
    .........
    .........

u+00da:
\u00DA:
    .....@...
    ....@....
    .........
    .@.....@.
    .@.....@.
    .@.....@.
    .@.....@.
    .@.....@.
    .@.....@.
    .@.....@.
    .@.....@.
    .@.....@.
    .@.....@.
    .@.....@.
    ..@...@..
    ...@@@...
    .........
    .........
    .........
    .........

u+00db:
\u00DB:
    ....@....
    ...@.@...
    .........
    .@.....@.
    .@.....@.
    .@.....@.
    .@.....@.
    .@.....@.
    .@.....@.
    .@.....@.
    .@.....@.
    .@.....@.
    .@.....@.
    .@.....@.
    ..@...@..
    ...@@@...
    .........
    .........
    .........
    .........

u+00dc:
\u00DC:
    ..@...@..
    ..@...@..
    .........
    .@.....@.
    .@.....@.
    .@.....@.
    .@.....@.
    .@.....@.
    .@.....@.
    .@.....@.
    .@.....@.
    .@.....@.
    .@.....@.
    .@.....@.
    ..@...@..
    ...@@@...
    .........
    .........
    .........
    .........

u+00dd:
\u00DD:
    .....@...
    ....@....
    .........
    .@.....@.
    .@.....@.
    ..@...@..
    ..@...@..
    ...@.@...
    ...@.@...
    ....@....
    ....@....
    ....@....
    ....@....
    ....@....
    ....@....
    ....@....
    .........
    .........
    .........
    .........

u+00de:
\u00DE:
    .........
    .........
    .........
    .@.......
    .@.......
    .@.......
    .@.......
    .@@@@@...
    .@....@..
    .@.....@.
    .@.....@.
    .@.....@.
    .@....@..
    .@@@@@...
    .@.......
    .@.......
    .........
    .........
    .........
    .........

u+00df:
\u00DF:
    .........
    .........
    .........
    ...@@....
    ..@..@...
    .@....@..
    .@....@..
    .@...@...
    .@.@@....
    .@...@...
    .@....@..
    .@.....@.
    .@.....@.
    .@.....@.
    .@.@..@..
    .@..@@...
    .........
    .........
    .........
    .........

u+00e0:
\u00E0:
    .........
    .........
    .........
    .........
    ...@.....
    ....@....
    .........
    ...@@@@..
    ..@....@.
    .......@.
    ...@@@@@.
    ..@....@.
    .@.....@.
    .@.....@.
    ..@...@@.
    ...@@@.@.
    .........
    .........
    .........
    .........

u+00e1:
\u00E1:
    .........
    .........
    .........
    .........
    .....@...
    ....@....
    .........
    ...@@@@..
    ..@....@.
    .......@.
    ...@@@@@.
    ..@....@.
    .@.....@.
    .@.....@.
    ..@...@@.
    ...@@@.@.
    .........
    .........
    .........
    .........

u+00e2:
\u00E2:
    .........
    .........
    .........
    .........
    ....@....
    ...@.@...
    .........
    ...@@@@..
    ..@....@.
    .......@.
    ...@@@@@.
    ..@....@.
    .@.....@.
    .@.....@.
    ..@...@@.
    ...@@@.@.
    .........
    .........
    .........
    .........

u+00e3:
\u00E3:
    .........
    .........
    .........
    .........
    ..@@..@@.
    .@..@@...
    .........
    ...@@@@..
    ..@....@.
    .......@.
    ...@@@@@.
    ..@....@.
    .@.....@.
    .@.....@.
    ..@...@@.
    ...@@@.@.
    .........
    .........
    .........
    .........

u+00e4:
\u00E4:
    .........
    .........
    .........
    .........
    ..@...@..
    ..@...@..
    .........
    ...@@@@..
    ..@....@.
    .......@.
    ...@@@@@.
    ..@....@.
    .@.....@.
    .@.....@.
    ..@...@@.
    ...@@@.@.
    .........
    .........
    .........
    .........

u+00e5:
\u00E5:
    .........
    .........
    .........
    ....@....
    ...@.@...
    ....@....
    .........
    ...@@@@..
    ..@....@.
    .......@.
    ...@@@@@.
    ..@....@.
    .@.....@.
    .@.....@.
    ..@...@@.
    ...@@@.@.
    .........
    .........
    .........
    .........

u+00e6:
\u00E6:
    .........
    .........
    .........
    .........
    .........
    .........
    .........
    .@@@.@@@.
    @...@...@
    ....@...@
    ....@...@
    .@@@@@@@.
    @...@....
    @...@....
    @...@...@
    .@@@.@@@.
    .........
    .........
    .........
    .........

u+00e7:
\u00E7:
    .........
    .........
    .........
    .........
    .........
    .........
    .........
    ...@@@@..
    ..@....@.
    .@.......
    .@.......
    .@.......
    .@.......
    .@.......
    ..@....@.
    ...@@@@..
    ....@....
    .....@...
    ...@@....
    .........

u+00e8:
\u00E8:
    .........
    .........
    .........
    .........
    ...@.....
    ....@....
    .........
    ...@@@...
    ..@...@..
    .@.....@.
    .@.....@.
    .@@@@@@@.
    .@.......
    .@.......
    ..@....@.
    ...@@@@..
    .........
    .........
    .........
    .........

u+00e9:
\u00E9:
    .........
    .........
    .........
    .........
    .....@...
    ....@....
    .........
    ...@@@...
    ..@...@..
    .@.....@.
    .@.....@.
    .@@@@@@@.
    .@.......
    .@.......
    ..@....@.
    ...@@@@..
    .........
    .........
    .........
    .........

u+00ea:
\u00EA:
    .........
    .........
    .........
    .........
    ....@....
    ...@.@...
    .........
    ...@@@...
    ..@...@..
    .@.....@.
    .@.....@.
    .@@@@@@@.
    .@.......
    .@.......
    ..@....@.
    ...@@@@..
    .........
    .........
    .........
    .........

u+00eb:
\u00EB:
    .........
    .........
    .........
    .........
    ..@...@..
    ..@...@..
    .........
    ...@@@...
    ..@...@..
    .@.....@.
    .@.....@.
    .@@@@@@@.
    .@.......
    .@.......
    ..@....@.
    ...@@@@..
    .........
    .........
    .........
    .........

u+00ec:
\u00EC:
    .........
    .........
    .........
    .........
    ...@.....
    ....@....
    .........
    ...@@....
    ....@....
    ....@....
    ....@....
    ....@....
    ....@....
    ....@....
    ....@....
    ....@....
    .........
    .........
    .........
    .........

u+00ed:
\u00ED:
    .........
    .........
    .........
    .........
    .....@...
    ....@....
    .........
    ...@@....
    ....@....
    ....@....
    ....@....
    ....@....
    ....@....
    ....@....
    ....@....
    ....@....
    .........
    .........
    .........
    .........

u+00ee:
\u00EE:
    .........
    .........
    .........
    .........
    ....@....
    ...@.@...
    .........
    ...@@....
    ....@....
    ....@....
    ....@....
    ....@....
    ....@....
    ....@....
    ....@....
    ....@....
    .........
    .........
    .........
    .........

u+00ef:
\u00EF:
    .........
    .........
    .........
    .........
    ..@...@..
    ..@...@..
    .........
    ...@@....
    ....@....
    ....@....
    ....@....
    ....@....
    ....@....
    ....@....
    ....@....
    ....@....
    .........
    .........
    .........
    .........

u+00f0:
\u00F0:
    .........
    .........
    ..@.@....
    ...@.....
    ..@.@....
    .....@...
    ......@..
    ...@@@@..
    ..@....@.
    .@.....@.
    .@.....@.
    .@.....@.
    .@.....@.
    .@.....@.
    ..@...@..
    ...@@@...
    .........
    .........
    .........
    .........

u+00f1:
\u00F1:
    .........
    .........
    .........
    .........
    ..@@..@@.
    .@..@@...
    .........
    .@.@@@...
    .@@...@..
    .@.....@.
    .@.....@.
    .@.....@.
    .@.....@.
    .@.....@.
    .@.....@.
    .@.....@.
    .........
    .........
    .........
    .........

u+00f2:
\u00F2:
    .........
    .........
    .........
    .........
    ...@.....
    ....@....
    .........
    ...@@@...
    ..@...@..
    .@.....@.
    .@.....@.
    .@.....@.
    .@.....@.
    .@.....@.
    ..@...@..
    ...@@@...
    .........
    .........
    .........
    .........

u+00f3:
\u00F3:
    .........
    .........
    .........
    .........
    .....@...
    ....@....
    .........
    ...@@@...
    ..@...@..
    .@.....@.
    .@.....@.
    .@.....@.
    .@.....@.
    .@.....@.
    ..@...@..
    ...@@@...
    .........
    .........
    .........
    .........

u+00f4:
\u00F4:
    .........
    .........
    .........
    .........
    ....@....
    ...@.@...
    .........
    ...@@@...
    ..@...@..
    .@.....@.
    .@.....@.
    .@.....@.
    .@.....@.
    .@.....@.
    ..@...@..
    ...@@@...
    .........
    .........
    .........
    .........

u+00f5:
\u00F5:
    .........
    .........
    .........
    .........
    ..@@..@@.
    .@..@@...
    .........
    ...@@@...
    ..@...@..
    .@.....@.
    .@.....@.
    .@.....@.
    .@.....@.
    .@.....@.
    ..@...@..
    ...@@@...
    .........
    .........
    .........
    .........

u+00f6:
\u00F6:
    .........
    .........
    .........
    .........
    ..@...@..
    ..@...@..
    .........
    ...@@@...
    ..@...@..
    .@.....@.
    .@.....@.
    .@.....@.
    .@.....@.
    .@.....@.
    ..@...@..
    ...@@@...
    .........
    .........
    .........
    .........

u+00f7:
\u00F7:
    .........
    .........
    .........
    .........
    .........
    .........
    .........
    .........
    ....@....
    ....@....
    .........
    .@@@@@@@.
    .........
    ....@....
    ....@....
    .........
    .........
    .........
    .........
    .........

u+00f8:
\u00F8:
    .........
    .........
    .........
    .........
    .........
    .........
    .........
    ...@@@..@
    ..@...@@.
    .@....@@.
    .@...@.@.
    .@..@..@.
    .@.@...@.
    .@@....@.
    .@@...@..
    @..@@@...
    .........
    .........
    .........
    .........

u+00f9:
\u00F9:
    .........
    .........
    .........
    .........
    ...@.....
    ....@....
    .........
    .@.....@.
    .@.....@.
    .@.....@.
    .@.....@.
    .@.....@.
    .@.....@.
    .@.....@.
    ..@...@@.
    ...@@@.@.
    .........
    .........
    .........
    .........

u+00fa:
\u00FA:
    .........
    .........
    .........
    .........
    .....@...
    ....@....
    .........
    .@.....@.
    .@.....@.
    .@.....@.
    .@.....@.
    .@.....@.
    .@.....@.
    .@.....@.
    ..@...@@.
    ...@@@.@.
    .........
    .........
    .........
    .........

u+00fb:
\u00FB:
    .........
    .........
    .........
    .........
    ....@....
    ...@.@...
    .........
    .@.....@.
    .@.....@.
    .@.....@.
    .@.....@.
    .@.....@.
    .@.....@.
    .@.....@.
    ..@...@@.
    ...@@@.@.
    .........
    .........
    .........
    .........

u+00fc:
\u00FC:
    .........
    .........
    .........
    .........
    ..@...@..
    ..@...@..
    .........
    .@.....@.
    .@.....@.
    .@.....@.
    .@.....@.
    .@.....@.
    .@.....@.
    .@.....@.
    ..@...@@.
    ...@@@.@.
    .........
    .........
    .........
    .........

u+00fd:
\u00FD:
    .........
    .........
    .........
    .........
    .....@...
    ....@....
    .........
    .@.....@.
    .@.....@.
    .@.....@.
    ..@...@..
    ..@...@..
    ...@.@...
    ...@.@...
    ....@....
    ....@....
    ...@.....
    ...@.....
    .@@......
    .........

u+00fe:
\u00FE:
    .........
    .........
    .........
    .@.......
    .@.......
    .@.......
    .@.......
    .@.@@@...
    .@@...@..
    .@.....@.
    .@.....@.
    .@.....@.
    .@.....@.
    .@.....@.
    .@@...@..
    .@.@@@...
    .@.......
    .@.......
    .@.......
    .@.......

u+00ff:
\u00FF:
    .........
    .........
    .........
    .........
    ..@...@..
    ..@...@..
    .........
    .@.....@.
    .@.....@.
    .@.....@.
    ..@...@..
    ..@...@..
    ...@.@...
    ...@.@...
    ....@....
    ....@....
    ...@.....
    ...@.....
    .@@......
    .........

u+0100:
\u0100:
    .........
    ..@@@@@..
    .........
    ....@....
    ....@....
    ...@.@...
    ...@.@...
    ...@.@...
    ..@...@..
    ..@...@..
    ..@...@..
    ..@...@..
    .@@@@@@@.
    .@.....@.
    .@.....@.
    .@.....@.
    .........
    .........
    .........
    .........

u+0101:
\u0101:
    .........
    .........
    .........
    .........
    .........
    ..@@@@@..
    .........
    ...@@@@..
    ..@....@.
    .......@.
    ...@@@@@.
    ..@....@.
    .@.....@.
    .@.....@.
    ..@...@@.
    ...@@@.@.
    .........
    .........
    .........
    .........

u+0102:
\u0102:
    ..@...@..
    ...@@@...
    .........
    ....@....
    ....@....
    ...@.@...
    ...@.@...
    ...@.@...
    ..@...@..
    ..@...@..
    ..@...@..
    ..@...@..
    .@@@@@@@.
    .@.....@.
    .@.....@.
    .@.....@.
    .........
    .........
    .........
    .........

u+0103:
\u0103:
    .........
    .........
    .........
    .........
    ..@...@..
    ...@@@...
    .........
    ...@@@@..
    ..@....@.
    .......@.
    ...@@@@@.
    ..@....@.
    .@.....@.
    .@.....@.
    ..@...@@.
    ...@@@.@.
    .........
    .........
    .........
    .........

u+0104:
\u0104:
    .........
    .........
    .........
    ....@....
    ....@....
    ...@.@...
    ...@.@...
    ...@.@...
    ..@...@..
    ..@...@..
    ..@...@..
    ..@...@..
    .@@@@@@@.
    .@.....@.
    .@.....@.
    .@.....@.
    .......@.
    ......@..
    .......@@
    .........

u+0105:
\u0105:
    .........
    .........
    .........
    .........
    .........
    .........
    .........
    ...@@@@..
    ..@....@.
    .......@.
    ...@@@@@.
    ..@....@.
    .@.....@.
    .@.....@.
    ..@...@@.
    ...@@@.@.
    .......@.
    ......@..
    .......@@
    .........

u+0106:
\u0106:
    .....@...
    ....@....
    .........
    ...@@@...
    ..@...@..
    .@.....@.
    .@.......
    .@.......
    .@.......
    .@.......
    .@.......
    .@.......
    .@.......
    .@.....@.
    ..@...@..
    ...@@@...
    .........
    .........
    .........
    .........

u+0107:
\u0107:
    .........
    .........
    .........
    .........
    .....@...
    ....@....
    .........
    ...@@@@..
    ..@....@.
    .@.......
    .@.......
    .@.......
    .@.......
    .@.......
    ..@....@.
    ...@@@@..
    .........
    .........
    .........
    .........

u+0108:
\u0108:
    ....@....
    ...@.@...
    .........
    ...@@@...
    ..@...@..
    .@.....@.
    .@.......
    .@.......
    .@.......
    .@.......
    .@.......
    .@.......
    .@.......
    .@.....@.
    ..@...@..
    ...@@@...
    .........
    .........
    .........
    .........

u+0109:
\u0109:
    .........
    .........
    .........
    .........
    ....@....
    ...@.@...
    .........
    ...@@@@..
    ..@....@.
    .@.......
    .@.......
    .@.......
    .@.......
    .@.......
    ..@....@.
    ...@@@@..
    .........
    .........
    .........
    .........

u+010a:
\u010A:
    ....@....
    ....@....
    .........
    ...@@@...
    ..@...@..
    .@.....@.
    .@.......
    .@.......
    .@.......
    .@.......
    .@.......
    .@.......
    .@.......
    .@.....@.
    ..@...@..
    ...@@@...
    .........
    .........
    .........
    .........

u+010b:
\u010B:
    .........
    .........
    .........
    .........
    ....@....
    ....@....
    .........
    ...@@@@..
    ..@....@.
    .@.......
    .@.......
    .@.......
    .@.......
    .@.......
    ..@....@.
    ...@@@@..
    .........
    .........
    .........
    .........

u+010c:
\u010C:
    ...@.@...
    ....@....
    .........
    ...@@@...
    ..@...@..
    .@.....@.
    .@.......
    .@.......
    .@.......
    .@.......
    .@.......
    .@.......
    .@.......
    .@.....@.
    ..@...@..
    ...@@@...
    .........
    .........
    .........
    .........

u+010d:
\u010D:
    .........
    .........
    .........
    .........
    ...@.@...
    ....@....
    .........
    ...@@@@..
    ..@....@.
    .@.......
    .@.......
    .@.......
    .@.......
    .@.......
    ..@....@.
    ...@@@@..
    .........
    .........
    .........
    .........

u+010e:
\u010E:
    ...@.@...
    ....@....
    .........
    .@@@@@...
    .@....@..
    .@.....@.
    .@.....@.
    .@.....@.
    .@.....@.
    .@.....@.
    .@.....@.
    .@.....@.
    .@.....@.
    .@.....@.
    .@....@..
    .@@@@@...
    .........
    .........
    .........
    .........

u+010f:
\u010F:
    .........
    .........
    .........
    .....@.@@
    .....@..@
    .....@.@.
    .....@...
    ..@@.@...
    .@..@@...
    @....@...
    @....@...
    @....@...
    @....@...
    @....@...
    .@..@@...
    ..@@.@...
    .........
    .........
    .........
    .........

u+0110:
\u0110:
    .........
    .........
    .........
    .@@@@@...
    .@....@..
    .@.....@.
    .@.....@.
    .@.....@.
    .@.....@.
    @@@@...@.
    .@.....@.
    .@.....@.
    .@.....@.
    .@.....@.
    .@....@..
    .@@@@@...
    .........
    .........
    .........
    .........

u+0111:
\u0111:
    .........
    .........
    .........
    .......@.
    .......@.
    .....@@@@
    .......@.
    ...@@@.@.
    ..@...@@.
    .@.....@.
    .@.....@.
    .@.....@.
    .@.....@.
    .@.....@.
    ..@...@@.
    ...@@@.@.
    .........
    .........
    .........
    .........

u+0112:
\u0112:
    .........
    ..@@@@@..
    .........
    .@@@@@@@.
    .@.......
    .@.......
    .@.......
    .@.......
    .@.......
    .@@@@@...
    .@.......
    .@.......
    .@.......
    .@.......
    .@.......
    .@@@@@@@.
    .........
    .........
    .........
    .........

u+0113:
\u0113:
    .........
    .........
    .........
    .........
    .........
    ..@@@@@..
    .........
    ...@@@...
    ..@...@..
    .@.....@.
    .@.....@.
    .@@@@@@@.
    .@.......
    .@.......
    ..@....@.
    ...@@@@..
    .........
    .........
    .........
    .........

u+0114:
\u0114:
    ..@...@..
    ...@@@...
    .........
    .@@@@@@@.
    .@.......
    .@.......
    .@.......
    .@.......
    .@.......
    .@@@@@...
    .@.......
    .@.......
    .@.......
    .@.......
    .@.......
    .@@@@@@@.
    .........
    .........
    .........
    .........

u+0115:
\u0115:
    .........
    .........
    .........
    .........
    ..@...@..
    ...@@@...
    .........
    ...@@@...
    ..@...@..
    .@.....@.
    .@.....@.
    .@@@@@@@.
    .@.......
    .@.......
    ..@....@.
    ...@@@@..
    .........
    .........
    .........
    .........

u+0116:
\u0116:
    ....@....
    ....@....
    .........
    .@@@@@@@.
    .@.......
    .@.......
    .@.......
    .@.......
    .@.......
    .@@@@@...
    .@.......
    .@.......
    .@.......
    .@.......
    .@.......
    .@@@@@@@.
    .........
    .........
    .........
    .........

u+0117:
\u0117:
    .........
    .........
    .........
    .........
    ....@....
    ....@....
    .........
    ...@@@...
    ..@...@..
    .@.....@.
    .@.....@.
    .@@@@@@@.
    .@.......
    .@.......
    ..@....@.
    ...@@@@..
    .........
    .........
    .........
    .........

u+0118:
\u0118:
    .........
    .........
    .........
    .@@@@@@@.
    .@.......
    .@.......
    .@.......
    .@.......
    .@.......
    .@@@@@...
    .@.......
    .@.......
    .@.......
    .@.......
    .@.......
    .@@@@@@@.
    .......@.
    ......@..
    .......@@
    .........

u+0119:
\u0119:
    .........
    .........
    .........
    .........
    .........
    .........
    .........
    ...@@@...
    ..@...@..
    .@.....@.
    .@.....@.
    .@@@@@@@.
    .@.......
    .@.......
    ..@....@.
    ...@@@@..
    ....@....
    ...@.....
    ....@@...
    .........

u+011a:
\u011A:
    ...@.@...
    ....@....
    .........
    .@@@@@@@.
    .@.......
    .@.......
    .@.......
    .@.......
    .@.......
    .@@@@@...
    .@.......
    .@.......
    .@.......
    .@.......
    .@.......
    .@@@@@@@.
    .........
    .........
    .........
    .........

u+011b:
\u011B:
    .........
    .........
    .........
    .........
    ...@.@...
    ....@....
    .........
    ...@@@...
    ..@...@..
    .@.....@.
    .@.....@.
    .@@@@@@@.
    .@.......
    .@.......
    ..@....@.
    ...@@@@..
    .........
    .........
    .........
    .........

u+011c:
\u011C:
    ....@....
    ...@.@...
    .........
    ...@@@...
    ..@...@..
    .@.....@.
    .@.......
    .@.......
    .@.......
    .@.......
    .@...@@@.
    .@.....@.
    .@.....@.
    .@.....@.
    ..@...@@.
    ...@@@.@.
    .........
    .........
    .........
    .........

u+011d:
\u011D:
    .........
    .........
    .........
    .........
    ....@....
    ...@.@...
    .........
    ...@@@.@.
    ..@...@@.
    .@.....@.
    .@.....@.
    .@.....@.
    .@.....@.
    .@.....@.
    ..@...@@.
    ...@@@.@.
    .......@.
    .......@.
    .@....@..
    ..@@@@...

u+011e:
\u011E:
    ..@...@..
    ...@@@...
    .........
    ...@@@...
    ..@...@..
    .@.....@.
    .@.......
    .@.......
    .@.......
    .@.......
    .@...@@@.
    .@.....@.
    .@.....@.
    .@.....@.
    ..@...@@.
    ...@@@.@.
    .........
    .........
    .........
    .........

u+011f:
\u011F:
    .........
    .........
    .........
    .........
    ..@...@..
    ...@@@...
    .........
    ...@@@.@.
    ..@...@@.
    .@.....@.
    .@.....@.
    .@.....@.
    .@.....@.
    .@.....@.
    ..@...@@.
    ...@@@.@.
    .......@.
    .......@.
    .@....@..
    ..@@@@...

u+0120:
\u0120:
    ....@....
    ....@....
    .........
    ...@@@...
    ..@...@..
    .@.....@.
    .@.......
    .@.......
    .@.......
    .@.......
    .@...@@@.
    .@.....@.
    .@.....@.
    .@.....@.
    ..@...@@.
    ...@@@.@.
    .........
    .........
    .........
    .........

u+0121:
\u0121:
    .........
    .........
    .........
    .........
    ....@....
    ....@....
    .........
    ...@@@.@.
    ..@...@@.
    .@.....@.
    .@.....@.
    .@.....@.
    .@.....@.
    .@.....@.
    ..@...@@.
    ...@@@.@.
    .......@.
    .......@.
    .@....@..
    ..@@@@...

u+0122:
\u0122:
    .........
    .........
    .........
    ...@@@...
    ..@...@..
    .@.....@.
    .@.......
    .@.......
    .@.......
    .@.......
    .@...@@@.
    .@.....@.
    .@.....@.
    .@.....@.
    ..@...@@.
    ...@@@.@.
    .........
    ....@@...
    .....@...
    ....@....

u+0123:
\u0123:
    .........
    .........
    .........
    .....@...
    ....@....
    ....@@...
    .........
    ...@@@.@.
    ..@...@@.
    .@.....@.
    .@.....@.
    .@.....@.
    .@.....@.
    .@.....@.
    ..@...@@.
    ...@@@.@.
    .......@.
    .......@.
    .@....@..
    ..@@@@...

u+0124:
\u0124:
    ....@....
    ...@.@...
    .........
    .@.....@.
    .@.....@.
    .@.....@.
    .@.....@.
    .@.....@.
    .@.....@.
    .@@@@@@@.
    .@.....@.
    .@.....@.
    .@.....@.
    .@.....@.
    .@.....@.
    .@.....@.
    .........
    .........
    .........
    .........

u+0125:
\u0125:
    .@.......
    @.@......
    .........
    .@.......
    .@.......
    .@.......
    .@.......
    .@.@@@...
    .@@...@..
    .@.....@.
    .@.....@.
    .@.....@.
    .@.....@.
    .@.....@.
    .@.....@.
    .@.....@.
    .........
    .........
    .........
    .........

u+0126:
\u0126:
    .........
    .........
    .........
    .@.....@.
    .@.....@.
    @@@@@@@@@
    .@.....@.
    .@.....@.
    .@.....@.
    .@@@@@@@.
    .@.....@.
    .@.....@.
    .@.....@.
    .@.....@.
    .@.....@.
    .@.....@.
    .........
    .........
    .........
    .........

u+0127:
\u0127:
    .........
    .........
    .........
    .@.......
    .@.......
    @@@@.....
    .@.......
    .@.@@@...
    .@@...@..
    .@.....@.
    .@.....@.
    .@.....@.
    .@.....@.
    .@.....@.
    .@.....@.
    .@.....@.
    .........
    .........
    .........
    .........

u+0128:
\u0128:
    ..@@..@@.
    .@..@@...
    .........
    ...@@@...
    ....@....
    ....@....
    ....@....
    ....@....
    ....@....
    ....@....
    ....@....
    ....@....
    ....@....
    ....@....
    ....@....
    ...@@@...
    .........
    .........
    .........
    .........

u+0129:
\u0129:
    .........
    .........
    .........
    .........
    ..@@..@@.
    .@..@@...
    .........
    ...@@....
    ....@....
    ....@....
    ....@....
    ....@....
    ....@....
    ....@....
    ....@....
    ....@....
    .........
    .........
    .........
    .........

u+012a:
\u012A:
    .........
    ..@@@@@..
    .........
    ...@@@...
    ....@....
    ....@....
    ....@....
    ....@....
    ....@....
    ....@....
    ....@....
    ....@....
    ....@....
    ....@....
    ....@....
    ...@@@...
    .........
    .........
    .........
    .........

u+012b:
\u012B:
    .........
    .........
    .........
    .........
    .........
    ..@@@@@..
    .........
    ...@@....
    ....@....
    ....@....
    ....@....
    ....@....
    ....@....
    ....@....
    ....@....
    ....@....
    .........
    .........
    .........
    .........

u+012c:
\u012C:
    ..@...@..
    ...@@@...
    .........
    ...@@@...
    ....@....
    ....@....
    ....@....
    ....@....
    ....@....
    ....@....
    ....@....
    ....@....
    ....@....
    ....@....
    ....@....
    ...@@@...
    .........
    .........
    .........
    .........

u+012d:
\u012D:
    .........
    .........
    .........
    .........
    ..@...@..
    ...@@@...
    .........
    ...@@....
    ....@....
    ....@....
    ....@....
    ....@....
    ....@....
    ....@....
    ....@....
    ....@....
    .........
    .........
    .........
    .........

u+012e:
\u012E:
    .........
    .........
    .........
    ...@@@...
    ....@....
    ....@....
    ....@....
    ....@....
    ....@....
    ....@....
    ....@....
    ....@....
    ....@....
    ....@....
    ....@....
    ...@@@...
    ....@....
    ...@.....
    ....@@...
    .........

u+012f:
\u012F:
    .........
    .........
    .........
    .........
    ....@....
    ....@....
    .........
    ...@@....
    ....@....
    ....@....
    ....@....
    ....@....
    ....@....
    ....@....
    ....@....
    ....@....
    ....@....
    ...@.....
    ....@@...
    .........

u+0130:
\u0130:
    ....@....
    ....@....
    .........
    ...@@@...
    ....@....
    ....@....
    ....@....
    ....@....
    ....@....
    ....@....
    ....@....
    ....@....
    ....@....
    ....@....
    ....@....
    ...@@@...
    .........
    .........
    .........
    .........

u+0131:
\u0131:
    .........
    .........
    .........
    .........
    .........
    .........
    .........
    ...@@....
    ....@....
    ....@....
    ....@....
    ....@....
    ....@....
    ....@....
    ....@....
    ....@....
    .........
    .........
    .........
    .........

u+0132:
\u0132:
    .........
    .........
    .........
    @@@....@.
    .@.....@.
    .@.....@.
    .@.....@.
    .@.....@.
    .@.....@.
    .@.....@.
    .@.....@.
    .@.....@.
    .@.@...@.
    .@.@...@.
    .@..@.@..
    @@@..@...
    .........
    .........
    .........
    .........

u+0133:
\u0133:
    .........
    .........
    .........
    .........
    ..@....@.
    ..@....@.
    .........
    .@@....@.
    ..@....@.
    ..@....@.
    ..@....@.
    ..@....@.
    ..@....@.
    ..@....@.
    ..@....@.
    ..@....@.
    .......@.
    .......@.
    ....@@@..
    .........

u+0134:
\u0134:
    .......@.
    ......@.@
    .........
    .......@.
    .......@.
    .......@.
    .......@.
    .......@.
    .......@.
    .......@.
    .......@.
    .......@.
    .......@.
    .@.....@.
    ..@...@..
    ...@@@...
    .........
    .........
    .........
    .........

u+0135:
\u0135:
    .........
    .........
    .........
    .........
    ....@....
    ...@.@...
    .........
    ....@....
    ....@....
    ....@....
    ....@....
    ....@....
    ....@....
    ....@....
    ....@....
    ....@....
    ....@....
    ....@....
    .@@@.....
    .........

u+0136:
\u0136:
    .........
    .........
    .........
    .@.....@.
    .@.....@.
    .@....@..
    .@...@...
    .@..@....
    .@.@.....
    .@@......
    .@.@.....
    .@..@....
    .@...@...
    .@....@..
    .@.....@.
    .@.....@.
    ....@....
    .....@...
    ...@@....
    .........

u+0137:
\u0137:
    .........
    .........
    .........
    .@.......
    .@.......
    .@.......
    .@.......
    .@.....@.
    .@....@..
    .@...@...
    .@..@....
    .@@@.....
    .@..@....
    .@...@...
    .@....@..
    .@.....@.
    ....@....
    .....@...
    ...@@....
    .........

u+0138:
\u0138:
    .........
    .........
    .........
    .........
    .........
    .........
    .........
    .@.....@.
    .@....@..
    .@...@...
    .@..@....
    .@@@.....
    .@..@....
    .@...@...
    .@....@..
    .@.....@.
    .........
    .........
    .........
    .........

u+0139:
\u0139:
    ..@......
    .@.......
    .........
    .@.......
    .@.......
    .@.......
    .@.......
    .@.......
    .@.......
    .@.......
    .@.......
    .@.......
    .@.......
    .@.......
    .@.......
    .@@@@@@@.
    .........
    .........
    .........
    .........

u+013a:
\u013A:
    .....@...
    ....@....
    .........
    ...@@....
    ....@....
    ....@....
    ....@....
    ....@....
    ....@....
    ....@....
    ....@....
    ....@....
    ....@....
    ....@....
    ....@....
    .....@@..
    .........
    .........
    .........
    .........

u+013b:
\u013B:
    .........
    .........
    .........
    .@.......
    .@.......
    .@.......
    .@.......
    .@.......
    .@.......
    .@.......
    .@.......
    .@.......
    .@.......
    .@.......
    .@.......
    .@@@@@@@.
    ....@....
    .....@...
    ...@@....
    .........

u+013c:
\u013C:
    .........
    .........
    .........
    ...@@....
    ....@....
    ....@....
    ....@....
    ....@....
    ....@....
    ....@....
    ....@....
    ....@....
    ....@....
    ....@....
    ....@....
    .....@@..
    .....@...
    ......@..
    ....@@...
    .........

u+013d:
\u013D:
    @.@......
    .@.......
    .........
    .@.......
    .@.......
    .@.......
    .@.......
    .@.......
    .@.......
    .@.......
    .@.......
    .@.......
    .@.......
    .@.......
    .@.......
    .@@@@@@@.
    .........
    .........
    .........
    .........

u+013e:
\u013E:
    ...@.@...
    ....@....
    .........
    ...@@....
    ....@....
    ....@....
    ....@....
    ....@....
    ....@....
    ....@....
    ....@....
    ....@....
    ....@....
    ....@....
    ....@....
    .....@@..
    .........
    .........
    .........
    .........

u+013f:
\u013F:
    .........
    .........
    .........
    .@.......
    .@.......
    .@.......
    .@.......
    .@.......
    .@....@..
    .@....@..
    .@.......
    .@.......
    .@.......
    .@.......
    .@.......
    .@@@@@@@.
    .........
    .........
    .........
    .........

u+0140:
\u0140:
    .........
    .........
    .........
    ...@@....
    ....@....
    ....@....
    ....@....
    ....@....
    ....@..@.
    ....@..@.
    ....@....
    ....@....
    ....@....
    ....@....
    ....@....
    .....@@..
    .........
    .........
    .........
    .........

u+0141:
\u0141:
    .........
    .........
    .........
    ..@......
    ..@......
    ..@......
    ..@......
    ..@.@....
    ..@@.....
    ..@......
    .@@......
    @.@......
    ..@......
    ..@......
    ..@......
    ..@@@@@@@
    .........
    .........
    .........
    .........

u+0142:
\u0142:
    .........
    .........
    .........
    ...@@....
    ....@....
    ....@....
    ....@....
    ....@.@..
    ....@@...
    ....@....
    ...@@....
    ..@.@....
    ....@....
    ....@....
    ....@....
    .....@@..
    .........
    .........
    .........
    .........

u+0143:
\u0143:
    .....@...
    ....@....
    .........
    .@.....@.
    .@.....@.
    .@@....@.
    .@@....@.
    .@.@...@.
    .@.@...@.
    .@..@..@.
    .@..@..@.
    .@...@.@.
    .@...@.@.
    .@....@@.
    .@....@@.
    .@.....@.
    .........
    .........
    .........
    .........

u+0144:
\u0144:
    .........
    .........
    .........
    .........
    .....@...
    ....@....
    .........
    .@.@@@...
    .@@...@..
    .@.....@.
    .@.....@.
    .@.....@.
    .@.....@.
    .@.....@.
    .@.....@.
    .@.....@.
    .........
    .........
    .........
    .........

u+0145:
\u0145:
    .........
    .........
    .........
    .@.....@.
    .@.....@.
    .@@....@.
    .@@....@.
    .@.@...@.
    .@.@...@.
    .@..@..@.
    .@..@..@.
    .@...@.@.
    .@...@.@.
    .@....@@.
    .@....@@.
    .@.....@.
    ....@....
    .....@...
    ...@@....
    .........

u+0146:
\u0146:
    .........
    .........
    .........
    .........
    .........
    .........
    .........
    .@.@@@...
    .@@...@..
    .@.....@.
    .@.....@.
    .@.....@.
    .@.....@.
    .@.....@.
    .@.....@.
    .@.....@.
    ....@....
    .....@...
    ...@@....
    .........

u+0147:
\u0147:
    ...@.@...
    ....@....
    .........
    .@.....@.
    .@.....@.
    .@@....@.
    .@@....@.
    .@.@...@.
    .@.@...@.
    .@..@..@.
    .@..@..@.
    .@...@.@.
    .@...@.@.
    .@....@@.
    .@....@@.
    .@.....@.
    .........
    .........
    .........
    .........

u+0148:
\u0148:
    .........
    .........
    .........
    .........
    ...@.@...
    ....@....
    .........
    .@.@@@...
    .@@...@..
    .@.....@.
    .@.....@.
    .@.....@.
    .@.....@.
    .@.....@.
    .@.....@.
    .@.....@.
    .........
    .........
    .........
    .........

u+0149:
\u0149:
    .........
    .........
    .........
    @@.......
    .@.......
    @........
    .........
    .@.@@@...
    .@@...@..
    .@.....@.
    .@.....@.
    .@.....@.
    .@.....@.
    .@.....@.
    .@.....@.
    .@.....@.
    .........
    .........
    .........
    .........

u+014a:
\u014A:
    .........
    .........
    .........
    .@.....@.
    .@.....@.
    .@@....@.
    .@@....@.
    .@.@...@.
    .@.@...@.
    .@..@..@.
    .@..@..@.
    .@...@.@.
    .@...@.@.
    .@....@@.
    .@....@@.
    .@.....@.
    .......@.
    .......@.
    .....@@..
    .........

u+014b:
\u014B:
    .........
    .........
    .........
    .........
    .........
    .........
    .........
    .@.@@@...
    .@@...@..
    .@.....@.
    .@.....@.
    .@.....@.
    .@.....@.
    .@.....@.
    .@.....@.
    .@.....@.
    .......@.
    .......@.
    .....@@..
    .........

u+014c:
\u014C:
    .........
    ..@@@@@..
    .........
    ...@@@...
    ..@...@..
    .@.....@.
    .@.....@.
    .@.....@.
    .@.....@.
    .@.....@.
    .@.....@.
    .@.....@.
    .@.....@.
    .@.....@.
    ..@...@..
    ...@@@...
    .........
    .........
    .........
    .........

u+014d:
\u014D:
    .........
    .........
    .........
    .........
    .........
    ..@@@@@..
    .........
    ...@@@...
    ..@...@..
    .@.....@.
    .@.....@.
    .@.....@.
    .@.....@.
    .@.....@.
    ..@...@..
    ...@@@...
    .........
    .........
    .........
    .........

u+014e:
\u014E:
    ..@...@..
    ...@@@...
    .........
    ...@@@...
    ..@...@..
    .@.....@.
    .@.....@.
    .@.....@.
    .@.....@.
    .@.....@.
    .@.....@.
    .@.....@.
    .@.....@.
    .@.....@.
    ..@...@..
    ...@@@...
    .........
    .........
    .........
    .........

u+014f:
\u014F:
    .........
    .........
    .........
    .........
    ..@...@..
    ...@@@...
    .........
    ...@@@...
    ..@...@..
    .@.....@.
    .@.....@.
    .@.....@.
    .@.....@.
    .@.....@.
    ..@...@..
    ...@@@...
    .........
    .........
    .........
    .........

u+0150:
\u0150:
    ...@..@..
    ..@..@...
    .........
    ...@@@...
    ..@...@..
    .@.....@.
    .@.....@.
    .@.....@.
    .@.....@.
    .@.....@.
    .@.....@.
    .@.....@.
    .@.....@.
    .@.....@.
    ..@...@..
    ...@@@...
    .........
    .........
    .........
    .........

u+0151:
\u0151:
    .........
    .........
    .........
    .........
    ...@..@..
    ..@..@...
    .........
    ...@@@...
    ..@...@..
    .@.....@.
    .@.....@.
    .@.....@.
    .@.....@.
    .@.....@.
    ..@...@..
    ...@@@...
    .........
    .........
    .........
    .........

u+0152:
\u0152:
    .........
    .........
    .........
    ..@@@@@@@
    .@..@....
    @...@....
    @...@....
    @...@....
    @...@....
    @...@@@@.
    @...@....
    @...@....
    @...@....
    @...@....
    .@..@....
    ..@@@@@@@
    .........
    .........
    .........
    .........

u+0153:
\u0153:
    .........
    .........
    .........
    .........
    .........
    .........
    .........
    ..@@@@@..
    .@..@..@.
    @...@...@
    @...@...@
    @...@@@@@
    @...@....
    @...@....
    .@..@...@
    ..@@@@@@.
    .........
    .........
    .........
    .........

u+0154:
\u0154:
    ....@....
    ...@.....
    .........
    .@@@@@...
    .@....@..
    .@.....@.
    .@.....@.
    .@.....@.
    .@.....@.
    .@....@..
    .@@@@@...
    .@...@...
    .@....@..
    .@....@..
    .@.....@.
    .@.....@.
    .........
    .........
    .........
    .........

u+0155:
\u0155:
    .........
    .........
    .........
    .........
    .....@...
    ....@....
    .........
    .@..@@@..
    .@.@...@.
    .@@......
    .@.......
    .@.......
    .@.......
    .@.......
    .@.......
    .@.......
    .........
    .........
    .........
    .........

u+0156:
\u0156:
    .........
    .........
    .........
    .@@@@@...
    .@....@..
    .@.....@.
    .@.....@.
    .@.....@.
    .@.....@.
    .@....@..
    .@@@@@...
    .@...@...
    .@....@..
    .@....@..
    .@.....@.
    .@.....@.
    ....@....
    .....@...
    ...@@....
    .........

u+0157:
\u0157:
    .........
    .........
    .........
    .........
    .........
    .........
    .........
    .@..@@@..
    .@.@...@.
    .@@......
    .@.......
    .@.......
    .@.......
    .@.......
    .@.......
    .@.......
    ....@....
    .....@...
    ...@@....
    .........

u+0158:
\u0158:
    ..@.@....
    ...@.....
    .........
    .@@@@@...
    .@....@..
    .@.....@.
    .@.....@.
    .@.....@.
    .@.....@.
    .@....@..
    .@@@@@...
    .@...@...
    .@....@..
    .@....@..
    .@.....@.
    .@.....@.
    .........
    .........
    .........
    .........

u+0159:
\u0159:
    .........
    .........
    .........
    .........
    ...@.@...
    ....@....
    .........
    .@..@@@..
    .@.@...@.
    .@@......
    .@.......
    .@.......
    .@.......
    .@.......
    .@.......
    .@.......
    .........
    .........
    .........
    .........

u+015a:
\u015A:
    .....@...
    ....@....
    .........
    ...@@@...
    ..@...@..
    .@.....@.
    .@.......
    .@.......
    ..@......
    ...@@@...
    ......@..
    .......@.
    .......@.
    .@.....@.
    ..@...@..
    ...@@@...
    .........
    .........
    .........
    .........

u+015b:
\u015B:
    .........
    .........
    .........
    .........
    .....@...
    ....@....
    .........
    ..@@@@@..
    .@.....@.
    .@.......
    .@.......
    ..@@@@@..
    .......@.
    .......@.
    .@.....@.
    ..@@@@@..
    .........
    .........
    .........
    .........

u+015c:
\u015C:
    ....@....
    ...@.@...
    .........
    ...@@@...
    ..@...@..
    .@.....@.
    .@.......
    .@.......
    ..@......
    ...@@@...
    ......@..
    .......@.
    .......@.
    .@.....@.
    ..@...@..
    ...@@@...
    .........
    .........
    .........
    .........

u+015d:
\u015D:
    .........
    .........
    .........
    .........
    ....@....
    ...@.@...
    .........
    ..@@@@@..
    .@.....@.
    .@.......
    .@.......
    ..@@@@@..
    .......@.
    .......@.
    .@.....@.
    ..@@@@@..
    .........
    .........
    .........
    .........

u+015e:
\u015E:
    .........
    .........
    .........
    ...@@@...
    ..@...@..
    .@.....@.
    .@.......
    .@.......
    ..@......
    ...@@@...
    ......@..
    .......@.
    .......@.
    .@.....@.
    ..@...@..
    ...@@@...
    ....@....
    .....@...
    ...@@....
    .........

u+015f:
\u015F:
    .........
    .........
    .........
    .........
    .........
    .........
    .........
    ..@@@@@..
    .@.....@.
    .@.......
    .@.......
    ..@@@@@..
    .......@.
    .......@.
    .@.....@.
    ..@@@@@..
    ....@....
    .....@...
    ...@@....
    .........

u+0160:
\u0160:
    ...@.@...
    ....@....
    .........
    ...@@@...
    ..@...@..
    .@.....@.
    .@.......
    .@.......
    ..@......
    ...@@@...
    ......@..
    .......@.
    .......@.
    .@.....@.
    ..@...@..
    ...@@@...
    .........
    .........
    .........
    .........

u+0161:
\u0161:
    .........
    .........
    .........
    .........
    ...@.@...
    ....@....
    .........
    ..@@@@@..
    .@.....@.
    .@.......
    .@.......
    ..@@@@@..
    .......@.
    .......@.
    .@.....@.
    ..@@@@@..
    .........
    .........
    .........
    .........

u+0162:
\u0162:
    .........
    .........
    .........
    .@@@@@@@.
    ....@....
    ....@....
    ....@....
    ....@....
    ....@....
    ....@....
    ....@....
    ....@....
    ....@....
    ....@....
    ....@....
    ....@....
    ....@....
    .....@...
    ...@@....
    .........

u+0163:
\u0163:
    .........
    .........
    .........
    .........
    .........
    ....@....
    ....@....
    ..@@@@@..
    ....@....
    ....@....
    ....@....
    ....@....
    ....@....
    ....@....
    ....@....
    .....@@@.
    .....@...
    ......@..
    ....@@...
    .........

u+0164:
\u0164:
    ...@.@...
    ....@....
    .........
    .@@@@@@@.
    ....@....
    ....@....
    ....@....
    ....@....
    ....@....
    ....@....
    ....@....
    ....@....
    ....@....
    ....@....
    ....@....
    ....@....
    .........
    .........
    .........
    .........

u+0165:
\u0165:
    .........
    .........
    ...@.@...
    ....@....
    .........
    ....@....
    ....@....
    ..@@@@@..
    ....@....
    ....@....
    ....@....
    ....@....
    ....@....
    ....@....
    ....@....
    .....@@@.
    .........
    .........
    .........
    .........

u+0166:
\u0166:
    .........
    .........
    .........
    .@@@@@@@.
    ....@....
    ....@....
    ....@....
    ....@....
    ....@....
    ..@@@@@..
    ....@....
    ....@....
    ....@....
    ....@....
    ....@....
    ....@....
    .........
    .........
    .........
    .........

u+0167:
\u0167:
    .........
    .........
    .........
    .........
    .........
    ....@....
    ....@....
    ..@@@@@..
    ....@....
    ...@@@...
    ....@....
    ....@....
    ....@....
    ....@....
    ....@....
    .....@@@.
    .........
    .........
    .........
    .........

u+0168:
\u0168:
    ..@@..@@.
    .@..@@...
    .........
    .@.....@.
    .@.....@.
    .@.....@.
    .@.....@.
    .@.....@.
    .@.....@.
    .@.....@.
    .@.....@.
    .@.....@.
    .@.....@.
    .@.....@.
    ..@...@..
    ...@@@...
    .........
    .........
    .........
    .........

u+0169:
\u0169:
    .........
    .........
    .........
    .........
    ..@@..@@.
    .@..@@...
    .........
    .@.....@.
    .@.....@.
    .@.....@.
    .@.....@.
    .@.....@.
    .@.....@.
    .@.....@.
    ..@...@@.
    ...@@@.@.
    .........
    .........
    .........
    .........

u+016a:
\u016A:
    .........
    ..@@@@@..
    .........
    .@.....@.
    .@.....@.
    .@.....@.
    .@.....@.
    .@.....@.
    .@.....@.
    .@.....@.
    .@.....@.
    .@.....@.
    .@.....@.
    .@.....@.
    ..@...@..
    ...@@@...
    .........
    .........
    .........
    .........

u+016b:
\u016B:
    .........
    .........
    .........
    .........
    .........
    ..@@@@@..
    .........
    .@.....@.
    .@.....@.
    .@.....@.
    .@.....@.
    .@.....@.
    .@.....@.
    .@.....@.
    ..@...@@.
    ...@@@.@.
    .........
    .........
    .........
    .........

u+016c:
\u016C:
    ..@...@..
    ...@@@...
    .........
    .@.....@.
    .@.....@.
    .@.....@.
    .@.....@.
    .@.....@.
    .@.....@.
    .@.....@.
    .@.....@.
    .@.....@.
    .@.....@.
    .@.....@.
    ..@...@..
    ...@@@...
    .........
    .........
    .........
    .........

u+016d:
\u016D:
    .........
    .........
    .........
    .........
    ..@...@..
    ...@@@...
    .........
    .@.....@.
    .@.....@.
    .@.....@.
    .@.....@.
    .@.....@.
    .@.....@.
    .@.....@.
    ..@...@@.
    ...@@@.@.
    .........
    .........
    .........
    .........

u+016e:
\u016E:
    ....@....
    ...@.@...
    ....@....
    .@.....@.
    .@.....@.
    .@.....@.
    .@.....@.
    .@.....@.
    .@.....@.
    .@.....@.
    .@.....@.
    .@.....@.
    .@.....@.
    .@.....@.
    ..@...@..
    ...@@@...
    .........
    .........
    .........
    .........

u+016f:
\u016F:
    .........
    .........
    .........
    ....@....
    ...@.@...
    ....@....
    .........
    .@.....@.
    .@.....@.
    .@.....@.
    .@.....@.
    .@.....@.
    .@.....@.
    .@.....@.
    ..@...@@.
    ...@@@.@.
    .........
    .........
    .........
    .........

u+0170:
\u0170:
    ...@..@..
    ..@..@...
    .........
    .@.....@.
    .@.....@.
    .@.....@.
    .@.....@.
    .@.....@.
    .@.....@.
    .@.....@.
    .@.....@.
    .@.....@.
    .@.....@.
    .@.....@.
    ..@...@..
    ...@@@...
    .........
    .........
    .........
    .........

u+0171:
\u0171:
    .........
    .........
    .........
    .........
    ...@..@..
    ..@..@...
    .........
    .@.....@.
    .@.....@.
    .@.....@.
    .@.....@.
    .@.....@.
    .@.....@.
    .@.....@.
    ..@...@@.
    ...@@@.@.
    .........
    .........
    .........
    .........

u+0172:
\u0172:
    .........
    .........
    .........
    .@.....@.
    .@.....@.
    .@.....@.
    .@.....@.
    .@.....@.
    .@.....@.
    .@.....@.
    .@.....@.
    .@.....@.
    .@.....@.
    .@.....@.
    ..@...@..
    ...@@@...
    ....@....
    ...@.....
    ....@@...
    .........

u+0173:
\u0173:
    .........
    .........
    .........
    .........
    .........
    .........
    .........
    .@.....@.
    .@.....@.
    .@.....@.
    .@.....@.
    .@.....@.
    .@.....@.
    .@.....@.
    ..@...@@.
    ...@@@.@.
    .......@.
    ......@..
    .......@@
    .........

u+0174:
\u0174:
    ....@....
    ...@.@...
    .........
    .@.....@.
    .@.....@.
    .@.....@.
    .@.....@.
    .@.....@.
    .@..@..@.
    .@..@..@.
    .@.@.@.@.
    .@.@.@.@.
    .@@...@@.
    .@@...@@.
    .@.....@.
    .@.....@.
    .........
    .........
    .........
    .........

u+0175:
\u0175:
    .........
    .........
    .........
    .........
    ....@....
    ...@.@...
    .........
    .@.....@.
    .@..@..@.
    .@..@..@.
    .@..@..@.
    .@.@.@.@.
    .@.@.@.@.
    ..@...@..
    ..@...@..
    ..@...@..
    .........
    .........
    .........
    .........

u+0176:
\u0176:
    ....@....
    ...@.@...
    .........
    .@.....@.
    .@.....@.
    ..@...@..
    ..@...@..
    ...@.@...
    ...@.@...
    ....@....
    ....@....
    ....@....
    ....@....
    ....@....
    ....@....
    ....@....
    .........
    .........
    .........
    .........

u+0177:
\u0177:
    .........
    .........
    .........
    .........
    ....@....
    ...@.@...
    .........
    .@.....@.
    .@.....@.
    .@.....@.
    ..@...@..
    ..@...@..
    ...@.@...
    ...@.@...
    ....@....
    ....@....
    ...@.....
    ...@.....
    .@@......
    .........

u+0178:
\u0178:
    ..@...@..
    ..@...@..
    .........
    .@.....@.
    .@.....@.
    ..@...@..
    ..@...@..
    ...@.@...
    ...@.@...
    ....@....
    ....@....
    ....@....
    ....@....
    ....@....
    ....@....
    ....@....
    .........
    .........
    .........
    .........

u+0179:
\u0179:
    .....@...
    ....@....
    .........
    .@@@@@@@.
    .......@.
    .......@.
    .......@.
    ......@..
    .....@...
    ....@....
    ...@.....
    ..@......
    .@.......
    .@.......
    .@.......
    .@@@@@@@.
    .........
    .........
    .........
    .........

u+017a:
\u017A:
    .........
    .........
    .........
    .........
    .....@...
    ....@....
    .........
    .@@@@@@@.
    .......@.
    ......@..
    .....@...
    ....@....
    ...@.....
    ..@......
    .@.......
    .@@@@@@@.
    .........
    .........
    .........
    .........

u+017b:
\u017B:
    ....@....
    ....@....
    .........
    .@@@@@@@.
    .......@.
    .......@.
    .......@.
    ......@..
    .....@...
    ....@....
    ...@.....
    ..@......
    .@.......
    .@.......
    .@.......
    .@@@@@@@.
    .........
    .........
    .........
    .........

u+017c:
\u017C:
    .........
    .........
    .........
    .........
    ....@....
    ....@....
    .........
    .@@@@@@@.
    .......@.
    ......@..
    .....@...
    ....@....
    ...@.....
    ..@......
    .@.......
    .@@@@@@@.
    .........
    .........
    .........
    .........

u+017d:
\u017D:
    ...@.@...
    ....@....
    .........
    .@@@@@@@.
    .......@.
    .......@.
    .......@.
    ......@..
    .....@...
    ....@....
    ...@.....
    ..@......
    .@.......
    .@.......
    .@.......
    .@@@@@@@.
    .........
    .........
    .........
    .........

u+017e:
\u017E:
    .........
    .........
    .........
    .........
    ...@.@...
    ....@....
    .........
    .@@@@@@@.
    .......@.
    ......@..
    .....@...
    ....@....
    ...@.....
    ..@......
    .@.......
    .@@@@@@@.
    .........
    .........
    .........
    .........

u+017f:
\u017F:
    .........
    .........
    .........
    .....@@@.
    ....@....
    ....@....
    ....@....
    ..@@@....
    ....@....
    ....@....
    ....@....
    ....@....
    ....@....
    ....@....
    ....@....
    ....@....
    .........
    .........
    .........
    .........

u+0180:
\u0180:
    .........
    .........
    .........
    .@.......
    .@.......
    @@@@.....
    .@.......
    .@.@@@...
    .@@...@..
    .@.....@.
    .@.....@.
    .@.....@.
    .@.....@.
    .@.....@.
    .@@...@..
    .@.@@@...
    .........
    .........
    .........
    .........

u+0181:
\u0181:
    .........
    .........
    .........
    .@@@@@...
    @.@...@..
    ..@....@.
    ..@....@.
    ..@...@..
    ..@@@@...
    ..@...@..
    ..@....@.
    ..@....@.
    ..@....@.
    ..@....@.
    ..@...@..
    ..@@@@...
    .........
    .........
    .........
    .........

u+0182:
\u0182:
    .........
    .........
    .........
    .@@@@@@..
    .@.......
    .@.......
    .@.......
    .@.......
    .@@@@@...
    .@....@..
    .@.....@.
    .@.....@.
    .@.....@.
    .@.....@.
    .@....@..
    .@@@@@...
    .........
    .........
    .........
    .........

u+0183:
\u0183:
    .........
    .........
    .........
    .@@@@@@..
    .@.......
    .@.......
    .@.......
    .@.@@@...
    .@@...@..
    .@.....@.
    .@.....@.
    .@.....@.
    .@.....@.
    .@.....@.
    .@@...@..
    .@.@@@...
    .........
    .........
    .........
    .........

u+0184:
\u0184:
    .........
    .........
    .........
    .@.......
    @@.......
    @@.......
    .@.......
    .@.......
    .@@@@@...
    .@....@..
    .@.....@.
    .@.....@.
    .@.....@.
    .@.....@.
    .@....@..
    .@@@@@...
    .........
    .........
    .........
    .........

u+0185:
\u0185:
    .........
    .........
    .........
    .@.......
    @@.......
    @@.......
    .@.......
    .@.@@@...
    .@@...@..
    .@.....@.
    .@.....@.
    .@.....@.
    .@.....@.
    .@.....@.
    .@@...@..
    .@.@@@...
    .........
    .........
    .........
    .........

u+0186:
\u0186:
    .........
    .........
    .........
    ...@@@...
    ..@...@..
    .@.....@.
    .......@.
    .......@.
    .......@.
    .......@.
    .......@.
    .......@.
    .......@.
    .@.....@.
    ..@...@..
    ...@@@...
    .........
    .........
    .........
    .........

u+0187:
\u0187:
    .........
    .........
    .......@@
    ...@@.@..
    ..@..@@..
    .@....@..
    .@.......
    .@.......
    .@.......
    .@.......
    .@.......
    .@.......
    .@.......
    .@....@..
    ..@..@...
    ...@@....
    .........
    .........
    .........
    .........

u+0188:
\u0188:
    .........
    .........
    .........
    .........
    .........
    .......@@
    ......@..
    ..@@@@@..
    .@....@..
    @........
    @........
    @........
    @........
    @........
    .@....@..
    ..@@@@...
    .........
    .........
    .........
    .........

u+0189:
\u0189:
    .........
    .........
    .........
    .@@@@@...
    .@....@..
    .@.....@.
    .@.....@.
    .@.....@.
    .@.....@.
    @@@@...@.
    .@.....@.
    .@.....@.
    .@.....@.
    .@.....@.
    .@....@..
    .@@@@@...
    .........
    .........
    .........
    .........

u+018a:
\u018A:
    .........
    .........
    .........
    .@@@@@...
    @.@...@..
    @.@....@.
    ..@....@.
    ..@....@.
    ..@....@.
    ..@....@.
    ..@....@.
    ..@....@.
    ..@....@.
    ..@....@.
    ..@...@..
    ..@@@@...
    .........
    .........
    .........
    .........

u+018b:
\u018B:
    .........
    .........
    .........
    ..@@@@@@.
    .......@.
    .......@.
    .......@.
    .......@.
    ...@@@@@.
    ..@....@.
    .@.....@.
    .@.....@.
    .@.....@.
    .@.....@.
    ..@....@.
    ...@@@@@.
    .........
    .........
    .........
    .........

u+018c:
\u018C:
    .........
    .........
    .........
    ..@@@@@@.
    .......@.
    .......@.
    .......@.
    ...@@@.@.
    ..@...@@.
    .@.....@.
    .@.....@.
    .@.....@.
    .@.....@.
    .@.....@.
    ..@...@@.
    ...@@@.@.
    .........
    .........
    .........
    .........

u+018d:
\u018D:
    .........
    .........
    .........
    .........
    .........
    .........
    .........
    ...@@@...
    ..@...@..
    .@.....@.
    .@.....@.
    .@.....@.
    .@.....@.
    .@.....@.
    ..@...@..
    ...@@@...
    ...@.....
    ....@....
    ..@..@...
    ...@@....

u+018e:
\u018E:
    .........
    .........
    .........
    .@@@@@@@.
    .......@.
    .......@.
    .......@.
    .......@.
    .......@.
    ...@@@@@.
    .......@.
    .......@.
    .......@.
    .......@.
    .......@.
    .@@@@@@@.
    .........
    .........
    .........
    .........

u+018f:
\u018F:
    .........
    .........
    .........
    ...@@@...
    ..@...@..
    .@.....@.
    .......@.
    .......@.
    .......@.
    .@@@@@@@.
    .@.....@.
    .@.....@.
    .@.....@.
    .@.....@.
    ..@...@..
    ...@@@...
    .........
    .........
    .........
    .........

u+0190:
\u0190:
    .........
    .........
    .........
    ...@@@...
    ..@...@..
    .@.....@.
    .@.......
    .@.......
    ..@......
    ...@@@...
    ..@......
    .@.......
    .@.......
    .@.....@.
    ..@...@..
    ...@@@...
    .........
    .........
    .........
    .........

u+0191:
\u0191:
    .........
    .........
    .........
    ..@@@@@@.
    ..@......
    ..@......
    ..@......
    ..@......
    ..@......
    ..@@@@...
    ..@......
    ..@......
    ..@......
    ..@......
    ..@......
    ..@......
    ..@......
    ..@......
    @@.......
    .........

u+0192:
\u0192:
    .........
    .........
    .........
    .....@@@.
    ....@....
    ....@....
    ....@....
    ..@@@@@..
    ....@....
    ....@....
    ....@....
    ....@....
    ....@....
    ....@....
    ....@....
    ....@....
    ....@....
    ....@....
    ..@@.....
    .........

u+0193:
\u0193:
    .........
    .........
    .......@@
    ...@@.@..
    ..@..@@..
    .@....@..
    .@.......
    .@.......
    .@.......
    .@.......
    .@..@@@..
    .@....@..
    .@....@..
    .@....@..
    ..@..@@..
    ...@@.@..
    .........
    .........
    .........
    .........

u+0194:
\u0194:
    .........
    .........
    .........
    .@.....@.
    .@.....@.
    .@.....@.
    ..@...@..
    ..@...@..
    ..@...@..
    ..@...@..
    ...@.@...
    ...@.@...
    ....@....
    ...@.@...
    ...@.@...
    ....@....
    .........
    .........
    .........
    .........

u+0195:
\u0195:
    .........
    .........
    .........
    .@.......
    .@.......
    .@.......
    .@.......
    .@.@.....
    .@@.@..@.
    .@..@..@.
    .@..@..@.
    .@..@..@.
    .@..@..@.
    .@..@..@.
    .@..@..@.
    .@...@@..
    .........
    .........
    .........
    .........

u+0196:
\u0196:
    .........
    .........
    .........
    ...@@....
    ....@....
    ....@....
    ....@....
    ....@....
    ....@....
    ....@....
    ....@....
    ....@....
    ....@....
    ....@....
    ....@....
    .....@@..
    .........
    .........
    .........
    .........

u+0197:
\u0197:
    .........
    .........
    .........
    ...@@@...
    ....@....
    ....@....
    ....@....
    ....@....
    ....@....
    ..@@@@@..
    ....@....
    ....@....
    ....@....
    ....@....
    ....@....
    ...@@@...
    .........
    .........
    .........
    .........

u+0198:
\u0198:
    .........
    .........
    .........
    .@.....@.
    .@....@.@
    .@...@...
    .@..@....
    .@.@.....
    .@@......
    .@@......
    .@.@.....
    .@..@....
    .@...@...
    .@....@..
    .@.....@.
    .@.....@.
    .........
    .........
    .........
    .........

u+0199:
\u0199:
    .........
    .........
    ..@......
    .@.@.....
    .@.......
    .@.......
    .@.......
    .@.....@.
    .@....@..
    .@...@...
    .@..@....
    .@@@.....
    .@..@....
    .@...@...
    .@....@..
    .@.....@.
    .........
    .........
    .........
    .........

u+019a:
\u019A:
    .........
    .........
    .........
    ...@@....
    ....@....
    ....@....
    ....@....
    ....@....
    ....@....
    ..@@@@@..
    ....@....
    ....@....
    ....@....
    ....@....
    ....@....
    .....@@..
    .........
    .........
    .........
    .........

u+019b:
\u019B:
    .........
    .........
    .........
    .........
    .@@..@...
    ...@@....
    ...@.....
    ..@.@....
    .@..@....
    ...@.@...
    ...@.@...
    ..@...@..
    ..@...@..
    .@.....@.
    .@.....@.
    .@.....@.
    .........
    .........
    .........
    .........

u+019c:
\u019C:
    .........
    .........
    .........
    .@..@..@.
    .@..@..@.
    .@..@..@.
    .@..@..@.
    .@..@..@.
    .@..@..@.
    .@..@..@.
    .@..@..@.
    .@..@..@.
    .@..@..@.
    .@..@..@.
    .@..@..@.
    ..@@.@@@.
    .........
    .........
    .........
    .........

u+019d:
\u019D:
    .........
    .........
    .........
    .@.....@.
    .@.....@.
    .@@....@.
    .@@....@.
    .@.@...@.
    .@.@...@.
    .@..@..@.
    .@..@..@.
    .@...@.@.
    .@...@.@.
    .@....@@.
    .@....@@.
    .@.....@.
    .@.......
    @........
    .........
    .........

u+019e:
\u019E:
    .........
    .........
    .........
    .........
    .........
    .........
    .........
    .@.@@@...
    .@@...@..
    .@.....@.
    .@.....@.
    .@.....@.
    .@.....@.
    .@.....@.
    .@.....@.
    .@.....@.
    .......@.
    .......@.
    .......@.
    .........

u+019f:
\u019F:
    .........
    .........
    .........
    ...@@@...
    ..@...@..
    .@.....@.
    .@.....@.
    .@.....@.
    .@.....@.
    .@@@@@@@.
    .@.....@.
    .@.....@.
    .@.....@.
    .@.....@.
    ..@...@..
    ...@@@...
    .........
    .........
    .........
    .........

u+01a0:
\u01A0:
    .........
    .......@@
    ........@
    ...@@..@.
    ..@..@...
    .@....@..
    .@....@..
    .@....@..
    .@....@..
    .@....@..
    .@....@..
    .@....@..
    .@....@..
    .@....@..
    ..@..@...
    ...@@....
    .........
    .........
    .........
    .........

u+01a1:
\u01A1:
    .........
    .........
    .........
    .........
    .........
    .......@@
    ........@
    ...@@..@.
    ..@..@...
    .@....@..
    .@....@..
    .@....@..
    .@....@..
    .@....@..
    ..@..@...
    ...@@....
    .........
    .........
    .........
    .........

u+01a2:
\u01A2:
    .........
    .........
    .........
    ..@@....@
    .@..@..@@
    @....@@.@
    @....@..@
    @....@..@
    @....@..@
    @....@..@
    @....@..@
    @....@..@
    @....@..@
    @....@..@
    .@..@...@
    ..@@....@
    ........@
    ........@
    .........
    .........

u+01a3:
\u01A3:
    .........
    .........
    .........
    .........
    .........
    .........
    .........
    ..@@@..@.
    .@...@@@.
    .@...@.@.
    .@...@.@.
    .@...@.@.
    .@...@.@.
    .@...@.@.
    .@...@.@.
    ..@@@..@.
    .......@.
    .......@.
    .......@.
    .........

u+01a4:
\u01A4:
    .........
    .........
    .........
    .@@@@@...
    @.@...@..
    ..@....@.
    ..@....@.
    ..@....@.
    ..@....@.
    ..@...@..
    ..@@@@...
    ..@......
    ..@......
    ..@......
    ..@......
    ..@......
    .........
    .........
    .........
    .........

u+01a5:
\u01A5:
    .........
    .........
    .........
    .........
    ..@......
    .@.@.....
    .@.......
    .@.@@@...
    .@@...@..
    .@.....@.
    .@.....@.
    .@.....@.
    .@.....@.
    .@.....@.
    .@@...@..
    .@.@@@...
    .@.......
    .@.......
    .@.......
    .........

u+01a6:
\u01A6:
    .........
    .........
    .........
    .@.......
    .@.......
    .@@@@@...
    .@....@..
    .@.....@.
    .@.....@.
    .@.....@.
    .@....@..
    .@@@@@...
    .@.@.....
    .@..@....
    .@...@...
    .@....@..
    .......@.
    ........@
    .........
    .........

u+01a7:
\u01A7:
    .........
    .........
    .........
    ...@@@...
    ..@...@..
    .@.....@.
    .......@.
    .......@.
    ......@..
    ...@@@...
    ..@......
    .@.......
    .@.......
    .@.....@.
    ..@...@..
    ...@@@...
    .........
    .........
    .........
    .........

u+01a8:
\u01A8:
    .........
    .........
    .........
    .........
    .........
    .........
    .........
    ..@@@@@..
    .@.....@.
    .......@.
    .......@.
    ..@@@@@..
    .@.......
    .@.......
    .@.....@.
    ..@@@@@..
    .........
    .........
    .........
    .........

u+01a9:
\u01A9:
    .........
    .........
    .........
    .@@@@@@@.
    .@.......
    ..@......
    ...@.....
    ....@....
    .....@...
    ......@..
    .....@...
    ....@....
    ...@.....
    ..@......
    .@.......
    .@@@@@@@.
    .........
    .........
    .........
    .........

u+01aa:
\u01AA:
    .........
    .........
    .........
    .@@......
    @..@.....
    .@@@@....
    ...@.....
    ...@.....
    ...@.....
    ...@.....
    ...@.....
    ...@.....
    ...@.....
    ...@.....
    ...@.....
    ...@.....
    ...@.....
    ...@.....
    ....@@@..
    .........

u+01ab:
\u01AB:
    .........
    .........
    .........
    .........
    .........
    ....@....
    ....@....
    ..@@@@@..
    ....@....
    ....@....
    ....@....
    ....@....
    ....@....
    ....@....
    ....@....
    .....@@@.
    .......@.
    .......@.
    .....@@..
    .........

u+01ac:
\u01AC:
    .........
    .........
    .........
    .@@@@@@@.
    @...@....
    @...@....
    ....@....
    ....@....
    ....@....
    ....@....
    ....@....
    ....@....
    ....@....
    ....@....
    ....@....
    ....@....
    .........
    .........
    .........
    .........

u+01ad:
\u01AD:
    .........
    .........
    .........
    .....@@..
    ....@....
    ....@....
    ....@....
    ..@@@@@..
    ....@....
    ....@....
    ....@....
    ....@....
    ....@....
    ....@....
    ....@....
    .....@@@.
    .........
    .........
    .........
    .........

u+01ae:
\u01AE:
    .........
    .........
    .........
    .@@@@@@@.
    ....@....
    ....@....
    ....@....
    ....@....
    ....@....
    ....@....
    ....@....
    ....@....
    ....@....
    ....@....
    ....@....
    ....@....
    ....@....
    .....@@..
    .........
    .........

u+01af:
\u01AF:
    .........
    ........@
    ........@
    .@....@@.
    .@....@..
    .@....@..
    .@....@..
    .@....@..
    .@....@..
    .@....@..
    .@....@..
    .@....@..
    .@....@..
    .@....@..
    ..@..@...
    ...@@....
    .........
    .........
    .........
    .........

u+01b0:
\u01B0:
    .........
    .........
    .........
    .........
    .........
    ........@
    ........@
    .@....@@.
    .@....@..
    .@....@..
    .@....@..
    .@....@..
    .@....@..
    .@....@..
    ..@..@@..
    ...@@.@..
    .........
    .........
    .........
    .........

u+01b1:
\u01B1:
    .........
    .........
    .........
    .@@@.@@@.
    ...@.@...
    ...@.@...
    ..@...@..
    .@.....@.
    .@.....@.
    .@.....@.
    .@.....@.
    .@.....@.
    .@.....@.
    .@.....@.
    ..@...@..
    ...@@@...
    .........
    .........
    .........
    .........

u+01b2:
\u01B2:
    .........
    .........
    .........
    .@....@..
    .@....@..
    .@.....@.
    .@.....@.
    .@.....@.
    .@......@
    .@......@
    .@......@
    .@......@
    .@......@
    .@.....@.
    ..@....@.
    ...@@@@..
    .........
    .........
    .........
    .........

u+01b3:
\u01B3:
    .........
    .........
    .........
    .@....@@.
    .@...@...
    .@...@...
    ..@.@....
    ..@.@....
    ..@.@....
    ...@.....
    ...@.....
    ...@.....
    ...@.....
    ...@.....
    ...@.....
    ...@.....
    .........
    .........
    .........
    .........

u+01b4:
\u01B4:
    .........
    .........
    .........
    .........
    .........
    .......@@
    ......@..
    .@....@..
    .@...@...
    .@...@...
    ..@.@....
    ..@.@....
    ..@.@....
    ...@.....
    ...@.....
    ...@.....
    ..@......
    ..@......
    .@.......
    .........

u+01b5:
\u01B5:
    .........
    .........
    .........
    .@@@@@@@.
    .......@.
    .......@.
    .......@.
    ......@..
    .....@...
    ..@@@@@..
    ...@.....
    ..@......
    .@.......
    .@.......
    .@.......
    .@@@@@@@.
    .........
    .........
    .........
    .........

u+01b6:
\u01B6:
    .........
    .........
    .........
    .........
    .........
    .........
    .........
    .@@@@@@@.
    .......@.
    ......@..
    .....@...
    ..@@@@@..
    ...@.....
    ..@......
    .@.......
    .@@@@@@@.
    .........
    .........
    .........
    .........

u+01b7:
\u01B7:
    .........
    .........
    .........
    .@@@@@@@.
    .......@.
    ......@..
    .....@...
    ....@....
    ...@@@...
    ......@..
    .......@.
    .......@.
    .......@.
    .@.....@.
    ..@...@..
    ...@@@...
    .........
    .........
    .........
    .........

u+01b8:
\u01B8:
    .........
    .........
    .........
    .@@@@@@@.
    .@.......
    ..@......
    ...@.....
    ....@....
    ...@@@...
    ..@......
    .@.......
    .@.......
    .@.......
    .@.....@.
    ..@...@..
    ...@@@...
    .........
    .........
    .........
    .........

u+01b9:
\u01B9:
    .........
    .........
    .........
    .........
    .........
    .........
    .........
    .@@@@@@@.
    .@.......
    ..@......
    ...@.....
    ....@....
    ...@@@...
    ..@......
    .@.......
    .@.......
    .@.....@.
    ..@...@..
    ...@@@...
    .........

u+01ba:
\u01BA:
    .........
    .........
    .........
    .........
    .........
    .........
    .........
    .@@@@@@@.
    .......@.
    ......@..
    .....@...
    ....@....
    ...@@@...
    ......@..
    .......@.
    ...@@@@..
    ..@......
    ..@....@.
    ...@@@@..
    .........

u+01bb:
\u01BB:
    .........
    .........
    .........
    ...@@@...
    ..@...@..
    .@.....@.
    .@.....@.
    .......@.
    .......@.
    ......@..
    ..@@@@@@.
    ....@....
    ...@.....
    ..@......
    .@.......
    .@@@@@@@.
    .........
    .........
    .........
    .........

u+01bc:
\u01BC:
    .........
    .........
    .........
    @@@@@@@@.
    .@.....@.
    .@.......
    .@.......
    .@.......
    .@@@@@...
    ......@..
    .......@.
    .......@.
    .......@.
    .@.....@.
    ..@...@..
    ...@@@...
    .........
    .........
    .........
    .........

u+01bd:
\u01BD:
    .........
    .........
    .........
    .........
    .........
    .........
    .........
    .@@@@@@@.
    ..@....@.
    ..@......
    ..@@@@...
    ......@..
    .......@.
    .......@.
    ..@...@..
    ...@@@...
    .........
    .........
    .........
    .........

u+01be:
\u01BE:
    .........
    .........
    .........
    .........
    .........
    ...@.....
    ...@.....
    .@@@@@...
    ...@.....
    ...@.....
    ...@.....
    ....@@@..
    .......@.
    .......@.
    .@.....@.
    ..@@@@@..
    .........
    .........
    .........
    .........

u+01bf:
\u01BF:
    .........
    .........
    .........
    .........
    .........
    .........
    .........
    .@.@@@...
    .@@...@..
    .@.....@.
    .@.....@.
    .@.....@.
    .@.....@.
    .@....@..
    .@...@...
    .@..@....
    .@@@.....
    .@.......
    .@.......
    .........

u+01c0:
\u01C0:
    .........
    .........
    .........
    ....@....
    ....@....
    ....@....
    ....@....
    ....@....
    ....@....
    ....@....
    ....@....
    ....@....
    ....@....
    ....@....
    ....@....
    ....@....
    .........
    .........
    .........
    .........

u+01c1:
\u01C1:
    .........
    .........
    .........
    ...@.@...
    ...@.@...
    ...@.@...
    ...@.@...
    ...@.@...
    ...@.@...
    ...@.@...
    ...@.@...
    ...@.@...
    ...@.@...
    ...@.@...
    ...@.@...
    ...@.@...
    .........
    .........
    .........
    .........

u+01c2:
\u01C2:
    .........
    .........
    .........
    ....@....
    ....@....
    ....@....
    ....@....
    ..@@@@@..
    ....@....
    ..@@@@@..
    ....@....
    ....@....
    ....@....
    ....@....
    ....@....
    ....@....
    .........
    .........
    .........
    .........

u+01c3:
\u01C3:
    .........
    .........
    .........
    ....@....
    ....@....
    ....@....
    ....@....
    ....@....
    ....@....
    ....@....
    ....@....
    ....@....
    ....@....
    .........
    ....@....
    ....@....
    .........
    .........
    .........
    .........

u+01c4:
\u01C4:
    .....@.@.
    ......@..
    .........
    @@...@@@@
    @.@.....@
    @..@....@
    @..@...@.
    @..@...@.
    @..@...@.
    @..@..@..
    @..@..@..
    @..@..@..
    @..@..@..
    @..@.@...
    @.@..@...
    @@...@@@@
    .........
    .........
    .........
    .........

u+01c5:
\u01C5:
    .........
    .........
    .........
    @@.......
    @.@..@.@.
    @..@..@..
    @..@.....
    @..@.@@@@
    @..@....@
    @..@...@.
    @..@...@.
    @..@..@..
    @..@..@..
    @..@.@...
    @.@..@...
    @@...@@@@
    .........
    .........
    .........
    .........

u+01c6:
\u01C6:
    .........
    .........
    .........
    ...@.....
    ...@.@.@.
    ...@..@..
    ...@.....
    .@.@.@@@@
    @.@@....@
    @..@...@.
    @..@...@.
    @..@..@..
    @..@..@..
    @..@.@...
    @.@@.@...
    .@.@.@@@@
    .........
    .........
    .........
    .........

u+01c7:
\u01C7:
    .........
    .........
    .........
    @.......@
    @.......@
    @.......@
    @.......@
    @.......@
    @.......@
    @.......@
    @.......@
    @.......@
    @.......@
    @.......@
    @....@..@
    @@@@..@@.
    .........
    .........
    .........
    .........

u+01c8:
\u01C8:
    .........
    .........
    .........
    .@.......
    .@.....@.
    .@.....@.
    .@.......
    .@.....@.
    .@.....@.
    .@.....@.
    .@.....@.
    .@.....@.
    .@.....@.
    .@.....@.
    .@.....@.
    .@@@@@.@.
    .......@.
    .......@.
    ....@@@..
    .........

u+01c9:
\u01C9:
    .........
    .........
    .........
    .@@......
    ..@....@.
    ..@....@.
    ..@......
    ..@....@.
    ..@....@.
    ..@....@.
    ..@....@.
    ..@....@.
    ..@....@.
    ..@....@.
    ..@....@.
    ...@@..@.
    .......@.
    .......@.
    ....@@@..
    .........

u+01ca:
\u01CA:
    .........
    .........
    .........
    @...@...@
    @...@...@
    @@..@...@
    @@..@...@
    @@..@...@
    @.@.@...@
    @.@.@...@
    @.@.@...@
    @..@@...@
    @..@@...@
    @..@@...@
    @...@.@.@
    @...@..@.
    .........
    .........
    .........
    .........

u+01cb:
\u01CB:
    .........
    .........
    .........
    @....@...
    @....@.@.
    @@...@.@.
    @@...@...
    @.@..@.@.
    @.@..@.@.
    @..@.@.@.
    @..@.@.@.
    @...@@.@.
    @...@@.@.
    @....@.@.
    @....@.@.
    @....@.@.
    .......@.
    .......@.
    ....@@@..
    .........

u+01cc:
\u01CC:
    .........
    .........
    .........
    .........
    .......@.
    .......@.
    .........
    @.@@...@.
    @@..@..@.
    @....@.@.
    @....@.@.
    @....@.@.
    @....@.@.
    @....@.@.
    @....@.@.
    @....@.@.
    .......@.
    .......@.
    ....@@@..
    .........

u+01cd:
\u01CD:
    ...@.@...
    ....@....
    .........
    ....@....
    ....@....
    ...@.@...
    ...@.@...
    ...@.@...
    ..@...@..
    ..@...@..
    ..@...@..
    ..@...@..
    .@@@@@@@.
    .@.....@.
    .@.....@.
    .@.....@.
    .........
    .........
    .........
    .........

u+01ce:
\u01CE:
    .........
    .........
    .........
    .........
    ....@.@..
    .....@...
    .........
    ...@@@@..
    ..@....@.
    .......@.
    ...@@@@@.
    ..@....@.
    .@.....@.
    .@.....@.
    ..@...@@.
    ...@@@.@.
    .........
    .........
    .........
    .........

u+01cf:
\u01CF:
    ...@.@...
    ....@....
    .........
    ...@@@...
    ....@....
    ....@....
    ....@....
    ....@....
    ....@....
    ....@....
    ....@....
    ....@....
    ....@....
    ....@....
    ....@....
    ...@@@...
    .........
    .........
    .........
    .........

u+01d0:
\u01D0:
    .........
    .........
    .........
    ...@.@...
    ....@....
    .........
    .........
    ...@@....
    ....@....
    ....@....
    ....@....
    ....@....
    ....@....
    ....@....
    ....@....
    ....@....
    .........
    .........
    .........
    .........

u+01d1:
\u01D1:
    ...@.@...
    ....@....
    .........
    ...@@@...
    ..@...@..
    .@.....@.
    .@.....@.
    .@.....@.
    .@.....@.
    .@.....@.
    .@.....@.
    .@.....@.
    .@.....@.
    .@.....@.
    ..@...@..
    ...@@@...
    .........
    .........
    .........
    .........

u+01d2:
\u01D2:
    .........
    .........
    .........
    .........
    ...@.@...
    ....@....
    .........
    ...@@@...
    ..@...@..
    .@.....@.
    .@.....@.
    .@.....@.
    .@.....@.
    .@.....@.
    ..@...@..
    ...@@@...
    .........
    .........
    .........
    .........

u+01d3:
\u01D3:
    ...@.@...
    ....@....
    .........
    .@.....@.
    .@.....@.
    .@.....@.
    .@.....@.
    .@.....@.
    .@.....@.
    .@.....@.
    .@.....@.
    .@.....@.
    .@.....@.
    .@.....@.
    ..@...@..
    ...@@@...
    .........
    .........
    .........
    .........

u+01d4:
\u01D4:
    .........
    .........
    .........
    .........
    ...@.@...
    ....@....
    .........
    .@.....@.
    .@.....@.
    .@.....@.
    .@.....@.
    .@.....@.
    .@.....@.
    .@.....@.
    ..@...@@.
    ...@@@.@.
    .........
    .........
    .........
    .........

u+01d5:
\u01D5:
    ..@@@@@..
    .........
    ...@.@...
    .@.....@.
    .@.....@.
    .@.....@.
    .@.....@.
    .@.....@.
    .@.....@.
    .@.....@.
    .@.....@.
    .@.....@.
    .@.....@.
    .@.....@.
    ..@...@..
    ...@@@...
    .........
    .........
    .........
    .........

u+01d6:
\u01D6:
    .........
    .........
    ..@@@@@..
    .........
    ..@...@..
    ..@...@..
    .........
    .@.....@.
    .@.....@.
    .@.....@.
    .@.....@.
    .@.....@.
    .@.....@.
    .@.....@.
    ..@...@@.
    ...@@@.@.
    .........
    .........
    .........
    .........

u+01d7:
\u01D7:
    .....@...
    ....@....
    .........
    .@.@.@.@.
    .@.....@.
    .@.....@.
    .@.....@.
    .@.....@.
    .@.....@.
    .@.....@.
    .@.....@.
    .@.....@.
    .@.....@.
    .@.....@.
    ..@...@..
    ...@@@...
    .........
    .........
    .........
    .........

u+01d8:
\u01D8:
    .........
    .........
    .....@...
    ....@....
    ..@...@..
    ..@...@..
    .........
    .@.....@.
    .@.....@.
    .@.....@.
    .@.....@.
    .@.....@.
    .@.....@.
    .@.....@.
    ..@...@@.
    ...@@@.@.
    .........
    .........
    .........
    .........

u+01d9:
\u01D9:
    ..@...@..
    ...@@@...
    .........
    .@.@.@.@.
    .@.....@.
    .@.....@.
    .@.....@.
    .@.....@.
    .@.....@.
    .@.....@.
    .@.....@.
    .@.....@.
    .@.....@.
    .@.....@.
    ..@...@..
    ...@@@...
    .........
    .........
    .........
    .........

u+01da:
\u01DA:
    .........
    ..@...@..
    ...@@@...
    .........
    ..@...@..
    ..@...@..
    .........
    .@.....@.
    .@.....@.
    .@.....@.
    .@.....@.
    .@.....@.
    .@.....@.
    .@.....@.
    ..@...@@.
    ...@@@.@.
    .........
    .........
    .........
    .........

u+01db:
\u01DB:
    ...@.....
    ....@....
    .........
    .@.@.@.@.
    .@.....@.
    .@.....@.
    .@.....@.
    .@.....@.
    .@.....@.
    .@.....@.
    .@.....@.
    .@.....@.
    .@.....@.
    .@.....@.
    ..@...@..
    ...@@@...
    .........
    .........
    .........
    .........

u+01dc:
\u01DC:
    .........
    .........
    ...@.....
    ....@....
    ..@...@..
    ..@...@..
    .........
    .@.....@.
    .@.....@.
    .@.....@.
    .@.....@.
    .@.....@.
    .@.....@.
    .@.....@.
    ..@...@@.
    ...@@@.@.
    .........
    .........
    .........
    .........

u+01dd:
\u01DD:
    .........
    .........
    .........
    .........
    .........
    .........
    .........
    ..@@@@...
    .@....@..
    .......@.
    .......@.
    .@@@@@@@.
    .@.....@.
    .@.....@.
    ..@...@..
    ...@@@...
    .........
    .........
    .........
    .........

u+01de:
\u01DE:
    ..@@@@@..
    .........
    ...@.@...
    .........
    ....@....
    ...@.@...
    ...@.@...
    ...@.@...
    ..@...@..
    ..@...@..
    ..@...@..
    ..@...@..
    .@@@@@@@.
    .@.....@.
    .@.....@.
    .@.....@.
    .........
    .........
    .........
    .........

u+01df:
\u01DF:
    .........
    .........
    .........
    ..@@@@@..
    .........
    ..@...@..
    .........
    ...@@@@..
    ..@....@.
    .......@.
    ...@@@@@.
    ..@....@.
    .@.....@.
    .@.....@.
    ..@...@@.
    ...@@@.@.
    .........
    .........
    .........
    .........

u+01e0:
\u01E0:
    ..@@@@@..
    .........
    ....@....
    .........
    ....@....
    ...@.@...
    ...@.@...
    ...@.@...
    ..@...@..
    ..@...@..
    ..@...@..
    ..@...@..
    .@@@@@@@.
    .@.....@.
    .@.....@.
    .@.....@.
    .........
    .........
    .........
    .........

u+01e1:
\u01E1:
    .........
    .........
    .........
    ..@@@@@..
    .........
    ....@....
    .........
    ...@@@@..
    ..@....@.
    .......@.
    ...@@@@@.
    ..@....@.
    .@.....@.
    .@.....@.
    ..@...@@.
    ...@@@.@.
    .........
    .........
    .........
    .........

u+01e2:
\u01E2:
    .........
    ...@@@@@.
    .........
    ...@@@@@@
    ..@.@....
    ..@.@....
    ..@.@....
    ..@.@....
    .@..@....
    .@@@@@@@.
    .@..@....
    .@..@....
    @...@....
    @...@....
    @...@....
    @...@@@@@
    .........
    .........
    .........
    .........

u+01e3:
\u01E3:
    .........
    .........
    .........
    .........
    .........
    ..@@@@@..
    .........
    .@@@.@@@.
    @...@...@
    ....@...@
    ....@...@
    .@@@@@@@.
    @...@....
    @...@....
    @...@...@
    .@@@.@@@.
    .........
    .........
    .........
    .........

u+01e4:
\u01E4:
    .........
    .........
    .........
    ...@@@...
    ..@...@..
    .@.....@.
    .@.......
    .@.......
    .@.......
    .@.......
    .@...@@@.
    .@.....@.
    .@...@@@@
    .@.....@.
    ..@...@@.
    ...@@@.@.
    .........
    .........
    .........
    .........

u+01e5:
\u01E5:
    .........
    .........
    .........
    .........
    .........
    .........
    .........
    ...@@@.@.
    ..@...@@.
    .@.....@.
    .@.....@.
    .@.....@.
    .@.....@.
    .@.....@.
    ..@...@@.
    ...@@@.@.
    .......@.
    ....@@@@@
    .@....@..
    ..@@@@...

u+01e6:
\u01E6:
    ...@.@...
    ....@....
    .........
    ...@@@...
    ..@...@..
    .@.....@.
    .@.......
    .@.......
    .@.......
    .@.......
    .@...@@@.
    .@.....@.
    .@.....@.
    .@.....@.
    ..@...@@.
    ...@@@.@.
    .........
    .........
    .........
    .........

u+01e7:
\u01E7:
    .........
    .........
    .........
    .........
    ...@.@...
    ....@....
    .........
    ...@@@.@.
    ..@...@@.
    .@.....@.
    .@.....@.
    .@.....@.
    .@.....@.
    .@.....@.
    ..@...@@.
    ...@@@.@.
    .......@.
    .......@.
    .@....@..
    ..@@@@...

u+01e8:
\u01E8:
    ...@.@...
    ....@....
    .........
    .@.....@.
    .@.....@.
    .@....@..
    .@...@...
    .@..@....
    .@.@.....
    .@@......
    .@.@.....
    .@..@....
    .@...@...
    .@....@..
    .@.....@.
    .@.....@.
    .........
    .........
    .........
    .........

u+01e9:
\u01E9:
    .........
    ...@.@...
    ....@....
    .@.......
    .@.......
    .@.......
    .@.......
    .@.....@.
    .@....@..
    .@...@...
    .@..@....
    .@@@.....
    .@..@....
    .@...@...
    .@....@..
    .@.....@.
    .........
    .........
    .........
    .........

u+01ea:
\u01EA:
    .........
    .........
    .........
    ...@@@...
    ..@...@..
    .@.....@.
    .@.....@.
    .@.....@.
    .@.....@.
    .@.....@.
    .@.....@.
    .@.....@.
    .@.....@.
    .@.....@.
    ..@...@..
    ...@@@...
    ....@....
    ...@.....
    ....@@...
    .........

u+01eb:
\u01EB:
    .........
    .........
    .........
    .........
    .........
    .........
    .........
    ...@@@...
    ..@...@..
    .@.....@.
    .@.....@.
    .@.....@.
    .@.....@.
    .@.....@.
    ..@...@..
    ...@@@...
    ....@....
    ...@.....
    ....@@...
    .........

u+01ec:
\u01EC:
    .........
    ..@@@@@..
    .........
    ...@@@...
    ..@...@..
    .@.....@.
    .@.....@.
    .@.....@.
    .@.....@.
    .@.....@.
    .@.....@.
    .@.....@.
    .@.....@.
    .@.....@.
    ..@...@..
    ...@@@...
    ....@....
    ...@.....
    ....@@...
    .........

u+01ed:
\u01ED:
    .........
    .........
    .........
    .........
    .........
    ..@@@@@..
    .........
    ...@@@...
    ..@...@..
    .@.....@.
    .@.....@.
    .@.....@.
    .@.....@.
    .@.....@.
    ..@...@..
    ...@@@...
    ....@....
    ...@.....
    ....@@...
    .........

u+01ee:
\u01EE:
    ...@.@...
    ....@....
    .........
    .@@@@@@@.
    .......@.
    ......@..
    .....@...
    ....@....
    ...@@@...
    ......@..
    .......@.
    .......@.
    .......@.
    .@.....@.
    ..@...@..
    ...@@@...
    .........
    .........
    .........
    .........

u+01ef:
\u01EF:
    .........
    .........
    .........
    .........
    ...@.@...
    ....@....
    .........
    .@@@@@@@.
    .......@.
    ......@..
    .....@...
    ....@....
    ...@@@...
    ......@..
    .......@.
    .......@.
    .@.....@.
    ..@...@..
    ...@@@...
    .........

u+01f0:
\u01F0:
    .........
    .........
    .........
    .........
    .....@.@.
    ......@..
    .........
    ......@..
    ......@..
    ......@..
    ......@..
    ......@..
    ......@..
    ......@..
    ......@..
    ......@..
    ......@..
    ......@..
    ...@@@...
    .........

u+01f1:
\u01F1:
    .........
    .........
    .........
    @@...@@@@
    @.@.....@
    @..@....@
    @..@...@.
    @..@...@.
    @..@...@.
    @..@..@..
    @..@..@..
    @..@..@..
    @..@..@..
    @..@.@...
    @.@..@...
    @@...@@@@
    .........
    .........
    .........
    .........

u+01f2:
\u01F2:
    .........
    .........
    .........
    @@.......
    @.@......
    @..@.....
    @..@.....
    @..@.@@@@
    @..@....@
    @..@...@.
    @..@...@.
    @..@..@..
    @..@..@..
    @..@.@...
    @.@..@...
    @@...@@@@
    .........
    .........
    .........
    .........

u+01f3:
\u01F3:
    .........
    .........
    .........
    ...@.....
    ...@.....
    ...@.....
    ...@.....
    .@.@.@@@@
    @.@@....@
    @..@...@.
    @..@...@.
    @..@..@..
    @..@..@..
    @..@.@...
    @.@@.@...
    .@.@.@@@@
    .........
    .........
    .........
    .........

u+01f4:
\u01F4:
    .....@...
    ....@....
    .........
    ...@@@...
    ..@...@..
    .@.....@.
    .@.......
    .@.......
    .@.......
    .@.......
    .@...@@@.
    .@.....@.
    .@.....@.
    .@.....@.
    ..@...@@.
    ...@@@.@.
    .........
    .........
    .........
    .........

u+01f5:
\u01F5:
    .........
    .........
    .........
    .........
    .....@...
    ....@....
    .........
    ...@@@.@.
    ..@...@@.
    .@.....@.
    .@.....@.
    .@.....@.
    .@.....@.
    .@.....@.
    ..@...@@.
    ...@@@.@.
    .......@.
    .......@.
    .@....@..
    ..@@@@...

u+01f6:
\u01F6:
    .........
    .........
    .........
    @...@....
    @...@....
    @...@....
    @...@....
    @...@...@
    @...@...@
    @@@@@...@
    @...@...@
    @...@...@
    @...@...@
    @...@...@
    @...@...@
    @....@@@.
    .........
    .........
    .........
    .........

u+01f7:
\u01F7:
    .........
    .........
    .........
    ..@@@@...
    ..@...@..
    ..@....@.
    ..@....@.
    ..@....@.
    ..@....@.
    ..@....@.
    ..@....@.
    ..@...@..
    ..@..@...
    ..@.@....
    ..@@.....
    ..@......
    ..@......
    ..@......
    ..@......
    .........

u+01f8:
\u01F8:
    ...@.....
    ....@....
    .........
    .@.....@.
    .@.....@.
    .@@....@.
    .@@....@.
    .@.@...@.
    .@.@...@.
    .@..@..@.
    .@..@..@.
    .@...@.@.
    .@...@.@.
    .@....@@.
    .@....@@.
    .@.....@.
    .........
    .........
    .........
    .........

u+01f9:
\u01F9:
    .........
    .........
    .........
    .........
    ...@.....
    ....@....
    .........
    .@.@@@...
    .@@...@..
    .@.....@.
    .@.....@.
    .@.....@.
    .@.....@.
    .@.....@.
    .@.....@.
    .@.....@.
    .........
    .........
    .........
    .........

u+01fa:
\u01FA:
    .....@...
    ....@....
    ....@....
    ...@.@...
    ....@....
    .........
    ....@....
    ...@.@...
    ...@.@...
    ...@.@...
    ..@...@..
    ..@...@..
    ..@@@@@@.
    .@.....@.
    .@.....@.
    .@.....@.
    .........
    .........
    .........
    .........

u+01fb:
\u01FB:
    ......@..
    .....@...
    .........
    .....@...
    ....@.@..
    .....@...
    .........
    ...@@@@..
    ..@....@.
    .......@.
    ...@@@@@.
    ..@....@.
    .@.....@.
    .@.....@.
    ..@...@@.
    ...@@@.@.
    .........
    .........
    .........
    .........

u+01fc:
\u01FC:
    ......@..
    .....@...
    .........
    ...@@@@@@
    ..@.@....
    ..@.@....
    ..@.@....
    ..@.@....
    .@..@....
    .@@@@@@@.
    .@..@....
    .@..@....
    @...@....
    @...@....
    @...@....
    @...@@@@@
    .........
    .........
    .........
    .........

u+01fd:
\u01FD:
    .........
    .........
    .........
    .........
    .....@...
    ....@....
    .........
    .@@@.@@@.
    @...@...@
    ....@...@
    ....@...@
    .@@@@@@@.
    @...@....
    @...@....
    @...@...@
    .@@@.@@@.
    .........
    .........
    .........
    .........

u+01fe:
\u01FE:
    .....@...
    ....@....
    .........
    ...@@@...
    ..@...@..
    .@.....@@
    .@.....@.
    .@....@@.
    .@...@.@.
    .@..@..@.
    .@.@...@.
    .@@....@.
    .@.....@.
    @@.....@.
    ..@...@..
    ...@@@...
    .........
    .........
    .........
    .........

u+01ff:
\u01FF:
    .........
    .........
    .........
    .........
    .....@...
    ....@....
    .........
    ...@@@..@
    ..@...@@.
    .@....@@.
    .@...@.@.
    .@..@..@.
    .@.@...@.
    .@@....@.
    .@@...@..
    @..@@@...
    .........
    .........
    .........
    .........

u+0200:
\u0200:
    ..@..@...
    ...@..@..
    .........
    ....@....
    ....@....
    ...@.@...
    ...@.@...
    ...@.@...
    ..@...@..
    ..@...@..
    ..@...@..
    ..@...@..
    .@@@@@@@.
    .@.....@.
    .@.....@.
    .@.....@.
    .........
    .........
    .........
    .........

u+0201:
\u0201:
    .........
    .........
    .........
    .........
    ..@..@...
    ...@..@..
    .........
    ...@@@@..
    ..@....@.
    .......@.
    ...@@@@@.
    ..@....@.
    .@.....@.
    .@.....@.
    ..@...@@.
    ...@@@.@.
    .........
    .........
    .........
    .........

u+0202:
\u0202:
    ...@@@...
    ..@...@..
    .........
    ....@....
    ....@....
    ...@.@...
    ...@.@...
    ...@.@...
    ..@...@..
    ..@...@..
    ..@...@..
    ..@...@..
    .@@@@@@@.
    .@.....@.
    .@.....@.
    .@.....@.
    .........
    .........
    .........
    .........

u+0203:
\u0203:
    .........
    .........
    .........
    .........
    ...@@@...
    ..@...@..
    .........
    ...@@@@..
    ..@....@.
    .......@.
    ...@@@@@.
    ..@....@.
    .@.....@.
    .@.....@.
    ..@...@@.
    ...@@@.@.
    .........
    .........
    .........
    .........

u+0204:
\u0204:
    .@..@....
    ..@..@...
    .........
    .@@@@@@@.
    .@.......
    .@.......
    .@.......
    .@.......
    .@.......
    .@@@@@...
    .@.......
    .@.......
    .@.......
    .@.......
    .@.......
    .@@@@@@@.
    .........
    .........
    .........
    .........

u+0205:
\u0205:
    .........
    .........
    .........
    .........
    .@..@....
    ..@..@...
    .........
    ...@@@...
    ..@...@..
    .@.....@.
    .@.....@.
    .@@@@@@@.
    .@.......
    .@.......
    ..@....@.
    ...@@@@..
    .........
    .........
    .........
    .........

u+0206:
\u0206:
    ...@@@...
    ..@...@..
    .........
    .@@@@@@@.
    .@.......
    .@.......
    .@.......
    .@.......
    .@.......
    .@@@@@...
    .@.......
    .@.......
    .@.......
    .@.......
    .@.......
    .@@@@@@@.
    .........
    .........
    .........
    .........

u+0207:
\u0207:
    .........
    .........
    .........
    .........
    ...@@@...
    ..@...@..
    .........
    ...@@@...
    ..@...@..
    .@.....@.
    .@.....@.
    .@@@@@@@.
    .@.......
    .@.......
    ..@....@.
    ...@@@@..
    .........
    .........
    .........
    .........

u+0208:
\u0208:
    ..@..@...
    ...@..@..
    .........
    ...@@@...
    ....@....
    ....@....
    ....@....
    ....@....
    ....@....
    ....@....
    ....@....
    ....@....
    ....@....
    ....@....
    ....@....
    ...@@@...
    .........
    .........
    .........
    .........

u+0209:
\u0209:
    .........
    .........
    .........
    .........
    .@..@....
    ..@..@...
    .........
    ...@@....
    ....@....
    ....@....
    ....@....
    ....@....
    ....@....
    ....@....
    ....@....
    ....@....
    .........
    .........
    .........
    .........

u+020a:
\u020A:
    ...@@@...
    ..@...@..
    .........
    ...@@@...
    ....@....
    ....@....
    ....@....
    ....@....
    ....@....
    ....@....
    ....@....
    ....@....
    ....@....
    ....@....
    ....@....
    ...@@@...
    .........
    .........
    .........
    .........

u+020b:
\u020B:
    .........
    .........
    .........
    .........
    ...@@@...
    ..@...@..
    .........
    ...@@....
    ....@....
    ....@....
    ....@....
    ....@....
    ....@....
    ....@....
    ....@....
    ....@....
    .........
    .........
    .........
    .........

u+020c:
\u020C:
    .@..@....
    ..@..@...
    .........
    ...@@@...
    ..@...@..
    .@.....@.
    .@.....@.
    .@.....@.
    .@.....@.
    .@.....@.
    .@.....@.
    .@.....@.
    .@.....@.
    .@.....@.
    ..@...@..
    ...@@@...
    .........
    .........
    .........
    .........

u+020d:
\u020D:
    .........
    .........
    .........
    .........
    .@..@....
    ..@..@...
    .........
    ...@@@...
    ..@...@..
    .@.....@.
    .@.....@.
    .@.....@.
    .@.....@.
    .@.....@.
    ..@...@..
    ...@@@...
    .........
    .........
    .........
    .........

u+020e:
\u020E:
    ...@@@...
    ..@...@..
    .........
    ...@@@...
    ..@...@..
    .@.....@.
    .@.....@.
    .@.....@.
    .@.....@.
    .@.....@.
    .@.....@.
    .@.....@.
    .@.....@.
    .@.....@.
    ..@...@..
    ...@@@...
    .........
    .........
    .........
    .........

u+020f:
\u020F:
    .........
    .........
    .........
    .........
    ...@@@...
    ..@...@..
    .........
    ...@@@...
    ..@...@..
    .@.....@.
    .@.....@.
    .@.....@.
    .@.....@.
    .@.....@.
    ..@...@..
    ...@@@...
    .........
    .........
    .........
    .........

u+0210:
\u0210:
    .@..@....
    ..@..@...
    .........
    .@@@@@...
    .@....@..
    .@.....@.
    .@.....@.
    .@.....@.
    .@.....@.
    .@....@..
    .@@@@@...
    .@...@...
    .@....@..
    .@....@..
    .@.....@.
    .@.....@.
    .........
    .........
    .........
    .........

u+0211:
\u0211:
    .........
    .........
    .........
    .........
    .@..@....
    ..@..@...
    .........
    .@..@@@..
    .@.@...@.
    .@@......
    .@.......
    .@.......
    .@.......
    .@.......
    .@.......
    .@.......
    .........
    .........
    .........
    .........

u+0212:
\u0212:
    ...@@@...
    ..@...@..
    .........
    .@@@@@...
    .@....@..
    .@.....@.
    .@.....@.
    .@.....@.
    .@.....@.
    .@....@..
    .@@@@@...
    .@...@...
    .@....@..
    .@....@..
    .@.....@.
    .@.....@.
    .........
    .........
    .........
    .........

u+0213:
\u0213:
    .........
    .........
    .........
    .........
    ...@@@...
    ..@...@..
    .........
    .@..@@@..
    .@.@...@.
    .@@......
    .@.......
    .@.......
    .@.......
    .@.......
    .@.......
    .@.......
    .........
    .........
    .........
    .........

u+0214:
\u0214:
    ..@..@...
    ...@..@..
    .........
    .@.....@.
    .@.....@.
    .@.....@.
    .@.....@.
    .@.....@.
    .@.....@.
    .@.....@.
    .@.....@.
    .@.....@.
    .@.....@.
    .@.....@.
    ..@...@..
    ...@@@...
    .........
    .........
    .........
    .........

u+0215:
\u0215:
    .........
    .........
    .........
    .........
    ..@..@...
    ...@..@..
    .........
    .@.....@.
    .@.....@.
    .@.....@.
    .@.....@.
    .@.....@.
    .@.....@.
    .@.....@.
    ..@...@@.
    ...@@@.@.
    .........
    .........
    .........
    .........

u+0216:
\u0216:
    ...@@@...
    ..@...@..
    .........
    .@.....@.
    .@.....@.
    .@.....@.
    .@.....@.
    .@.....@.
    .@.....@.
    .@.....@.
    .@.....@.
    .@.....@.
    .@.....@.
    .@.....@.
    ..@...@..
    ...@@@...
    .........
    .........
    .........
    .........

u+0217:
\u0217:
    .........
    .........
    .........
    .........
    ...@@@...
    ..@...@..
    .........
    .@.....@.
    .@.....@.
    .@.....@.
    .@.....@.
    .@.....@.
    .@.....@.
    .@.....@.
    ..@...@@.
    ...@@@.@.
    .........
    .........
    .........
    .........

u+0218:
\u0218:
    .........
    .........
    .........
    ...@@@...
    ..@...@..
    .@.....@.
    .@.......
    .@.......
    ..@......
    ...@@@...
    ......@..
    .......@.
    .......@.
    .@.....@.
    ..@...@..
    ...@@@...
    .........
    ....@....
    ....@....
    ...@.....

u+0219:
\u0219:
    .........
    .........
    .........
    .........
    .........
    .........
    .........
    ..@@@@@..
    .@.....@.
    .@.......
    .@.......
    ..@@@@@..
    .......@.
    .......@.
    .@.....@.
    ..@@@@@..
    .........
    ....@....
    ....@....
    ...@.....

u+021a:
\u021A:
    .........
    .........
    .........
    .@@@@@@@.
    ....@....
    ....@....
    ....@....
    ....@....
    ....@....
    ....@....
    ....@....
    ....@....
    ....@....
    ....@....
    ....@....
    ....@....
    .........
    ....@....
    ....@....
    ...@.....

u+021b:
\u021B:
    .........
    .........
    .........
    .........
    .........
    ....@....
    ....@....
    ..@@@@@..
    ....@....
    ....@....
    ....@....
    ....@....
    ....@....
    ....@....
    ....@....
    .....@@@.
    .........
    ......@..
    ......@..
    .....@...

u+021c:
\u021C:
    .........
    .........
    .........
    ...@@@@..
    ..@....@.
    .......@.
    .......@.
    ......@..
    .....@@..
    ....@..@.
    ...@....@
    ........@
    ........@
    .......@.
    .....@@..
    ..@@@....
    .........
    .........
    .........
    .........

u+021d:
\u021D:
    .........
    .........
    .........
    .........
    .........
    .........
    .........
    ...@@@@..
    ..@....@.
    .......@.
    .......@.
    ......@..
    .....@@..
    ....@..@.
    ...@....@
    ..@.....@
    ........@
    .......@.
    .....@@..
    ..@@@....

u+021e:
\u021E:
    ...@.@...
    ....@....
    .........
    .@.....@.
    .@.....@.
    .@.....@.
    .@.....@.
    .@.....@.
    .@.....@.
    .@@@@@@@.
    .@.....@.
    .@.....@.
    .@.....@.
    .@.....@.
    .@.....@.
    .@.....@.
    .........
    .........
    .........
    .........

u+021f:
\u021F:
    @.@......
    .@.......
    .........
    .@.......
    .@.......
    .@.......
    .@.......
    .@.@@@...
    .@@...@..
    .@.....@.
    .@.....@.
    .@.....@.
    .@.....@.
    .@.....@.
    .@.....@.
    .@.....@.
    .........
    .........
    .........
    .........

u+0220:
\u0220:
    .........
    .........
    .........
    .@.@@@...
    .@@...@..
    .@.....@.
    .@.....@.
    .@.....@.
    .@.....@.
    .@.....@.
    .@.....@.
    .@.....@.
    .@.....@.
    .@.....@.
    .@.....@.
    .@.....@.
    .......@.
    .......@.
    .......@.
    .........

u+0221:
\u0221:
    .........
    .........
    .........
    ......@..
    ......@..
    ......@..
    ......@..
    ...@@.@..
    ..@..@@..
    .@....@..
    .@....@..
    .@....@..
    .@....@..
    .@....@..
    ..@..@@..
    ...@@.@@.
    ......@.@
    .....@.@.
    .........
    .........

u+0222:
\u0222:
    .........
    .........
    .........
    ..@...@..
    .@.....@.
    .@.....@.
    .@.....@.
    ..@...@..
    ...@@@...
    ..@...@..
    .@.....@.
    .@.....@.
    .@.....@.
    .@.....@.
    ..@...@..
    ...@@@...
    .........
    .........
    .........
    .........

u+0223:
\u0223:
    .........
    .........
    .........
    .........
    .........
    .........
    .........
    ..@...@..
    .@.....@.
    ..@...@..
    ...@@@...
    ..@...@..
    .@.....@.
    .@.....@.
    ..@...@..
    ...@@@...
    .........
    .........
    .........
    .........

u+0224:
\u0224:
    .........
    .........
    .........
    .@@@@@@@.
    .......@.
    .......@.
    .......@.
    ......@..
    .....@...
    ....@....
    ...@.....
    ..@......
    .@.......
    .@.......
    .@.......
    .@@@@@@@.
    .......@.
    .......@.
    ......@..
    .........

u+0225:
\u0225:
    .........
    .........
    .........
    .........
    .........
    .........
    .........
    .@@@@@@@.
    .......@.
    ......@..
    .....@...
    ....@....
    ...@.....
    ..@......
    .@.......
    .@@@@@@@.
    .......@.
    .......@.
    ......@..
    .........

u+0226:
\u0226:
    .........
    ....@....
    .........
    ....@....
    ....@....
    ...@.@...
    ...@.@...
    ...@.@...
    ..@...@..
    ..@...@..
    ..@...@..
    ..@...@..
    .@@@@@@@.
    .@.....@.
    .@.....@.
    .@.....@.
    .........
    .........
    .........
    .........

u+0227:
\u0227:
    .........
    .........
    .........
    .........
    .........
    ....@....
    .........
    ...@@@@..
    ..@....@.
    .......@.
    ...@@@@@.
    ..@....@.
    .@.....@.
    .@.....@.
    ..@...@@.
    ...@@@.@.
    .........
    .........
    .........
    .........

u+0228:
\u0228:
    .........
    .........
    .........
    .@@@@@@@.
    .@.......
    .@.......
    .@.......
    .@.......
    .@.......
    .@@@@@...
    .@.......
    .@.......
    .@.......
    .@.......
    .@.......
    .@@@@@@@.
    ....@....
    .....@...
    ...@@....
    .........

u+0229:
\u0229:
    .........
    .........
    .........
    .........
    .........
    .........
    .........
    ...@@@...
    ..@...@..
    .@.....@.
    .@.....@.
    .@@@@@@@.
    .@.......
    .@.......
    ..@....@.
    ...@@@@..
    ....@....
    .....@...
    ...@@....
    .........

u+022a:
\u022A:
    ..@@@@@..
    .........
    ..@...@..
    .........
    ...@@@...
    ..@...@..
    .@.....@.
    .@.....@.
    .@.....@.
    .@.....@.
    .@.....@.
    .@.....@.
    .@.....@.
    .@.....@.
    ..@...@..
    ...@@@...
    .........
    .........
    .........
    .........

u+022b:
\u022B:
    .........
    .........
    .........
    ..@@@@@..
    .........
    ..@...@..
    .........
    ...@@@...
    ..@...@..
    .@.....@.
    .@.....@.
    .@.....@.
    .@.....@.
    .@.....@.
    ..@...@..
    ...@@@...
    .........
    .........
    .........
    .........

u+022c:
\u022C:
    ..@@@@@..
    .........
    ..@@..@@.
    .@..@@...
    .........
    ...@@@...
    ..@...@..
    .@.....@.
    .@.....@.
    .@.....@.
    .@.....@.
    .@.....@.
    .@.....@.
    .@.....@.
    ..@...@..
    ...@@@...
    .........
    .........
    .........
    .........

u+022d:
\u022D:
    .........
    .........
    ..@@@@@..
    .........
    ..@@..@@.
    .@..@@...
    .........
    ...@@@...
    ..@...@..
    .@.....@.
    .@.....@.
    .@.....@.
    .@.....@.
    .@.....@.
    ..@...@..
    ...@@@...
    .........
    .........
    .........
    .........

u+022e:
\u022E:
    .........
    ....@....
    .........
    ...@@@...
    ..@...@..
    .@.....@.
    .@.....@.
    .@.....@.
    .@.....@.
    .@.....@.
    .@.....@.
    .@.....@.
    .@.....@.
    .@.....@.
    ..@...@..
    ...@@@...
    .........
    .........
    .........
    .........

u+022f:
\u022F:
    .........
    .........
    .........
    .........
    .........
    ....@....
    .........
    ...@@@...
    ..@...@..
    .@.....@.
    .@.....@.
    .@.....@.
    .@.....@.
    .@.....@.
    ..@...@..
    ...@@@...
    .........
    .........
    .........
    .........

u+0230:
\u0230:
    ..@@@@@..
    .........
    ....@....
    .........
    ...@@@...
    ..@...@..
    .@.....@.
    .@.....@.
    .@.....@.
    .@.....@.
    .@.....@.
    .@.....@.
    .@.....@.
    .@.....@.
    ..@...@..
    ...@@@...
    .........
    .........
    .........
    .........

u+0231:
\u0231:
    .........
    .........
    .........
    ..@@@@@..
    .........
    ....@....
    .........
    ...@@@...
    ..@...@..
    .@.....@.
    .@.....@.
    .@.....@.
    .@.....@.
    .@.....@.
    ..@...@..
    ...@@@...
    .........
    .........
    .........
    .........

u+0232:
\u0232:
    .........
    ..@@@@@..
    .........
    .@.....@.
    .@.....@.
    ..@...@..
    ..@...@..
    ...@.@...
    ...@.@...
    ....@....
    ....@....
    ....@....
    ....@....
    ....@....
    ....@....
    ....@....
    .........
    .........
    .........
    .........

u+0233:
\u0233:
    .........
    .........
    .........
    .........
    .........
    ..@@@@@..
    .........
    .@.....@.
    .@.....@.
    .@.....@.
    ..@...@..
    ..@...@..
    ...@.@...
    ...@.@...
    ....@....
    ....@....
    ...@.....
    ...@.....
    .@@......
    .........

u+0234:
\u0234:
    .........
    .........
    .........
    ...@@....
    ....@....
    ....@....
    ....@....
    ....@....
    ....@....
    ....@....
    ....@....
    ....@....
    ....@....
    ....@..@.
    ....@.@.@
    .....@@@.
    ....@....
    .........
    .........
    .........

u+0235:
\u0235:
    .........
    .........
    .........
    .........
    .........
    .........
    .........
    .@.@@....
    .@@..@...
    .@....@..
    .@....@..
    .@....@..
    .@....@..
    .@....@..
    .@....@@.
    .@....@.@
    .....@.@.
    .........
    .........
    .........

u+0236:
\u0236:
    .........
    .........
    .........
    .........
    .........
    ....@....
    ....@....
    ..@@@@@..
    ....@....
    ....@....
    ....@....
    ....@....
    ....@....
    ....@..@.
    ....@.@.@
    .....@@@.
    ....@....
    .........
    .........
    .........

u+0237:
\u0237:
    .........
    .........
    .........
    .........
    .........
    .........
    .........
    ......@..
    ......@..
    ......@..
    ......@..
    ......@..
    ......@..
    ......@..
    ......@..
    ......@..
    ......@..
    ......@..
    ...@@@...
    .........

u+0238:
\u0238:
    .........
    .........
    .........
    ....@....
    ....@....
    ....@....
    ....@....
    .@@.@.@@.
    @..@@@..@
    @...@...@
    @...@...@
    @...@...@
    @...@...@
    @...@...@
    @..@@@..@
    .@@.@.@@.
    .........
    .........
    .........
    .........

u+0239:
\u0239:
    .........
    .........
    .........
    .........
    .........
    .........
    .........
    .@@.@.@@.
    @..@@@..@
    @...@...@
    @...@...@
    @...@...@
    @...@...@
    @...@...@
    @..@@@..@
    .@@.@.@@.
    ....@....
    ....@....
    ....@....
    .........

u+023a:
\u023A:
    .........
    .........
    .........
    ....@....
    ....@....
    ...@.@..@
    ...@.@.@.
    ...@.@@..
    ..@..@@..
    ..@.@.@..
    ..@@..@..
    ..@...@..
    .@@@@@@@.
    @@.....@.
    .@.....@.
    .@.....@.
    .........
    .........
    .........
    .........

u+023b:
\u023B:
    .........
    .........
    .........
    ...@@@...
    ..@...@..
    .@.....@@
    .@.....@.
    .@....@..
    .@...@...
    .@..@....
    .@.@.....
    .@@......
    .@.......
    @@.....@.
    ..@...@..
    ...@@@...
    .........
    .........
    .........
    .........

u+023c:
\u023C:
    .........
    .........
    .........
    .........
    .........
    .........
    .........
    ...@@@@.@
    ..@....@.
    .@....@..
    .@...@...
    .@..@....
    .@.@.....
    .@@......
    .@@....@.
    @..@@@@..
    .........
    .........
    .........
    .........

u+023d:
\u023D:
    .........
    .........
    .........
    .@.......
    .@.......
    .@.......
    .@.......
    .@.......
    .@.......
    @@@@.....
    .@.......
    .@.......
    .@.......
    .@.......
    .@.......
    .@@@@@@@.
    .........
    .........
    .........
    .........

u+023e:
\u023E:
    .........
    .........
    ........@
    .@@@@@@@.
    ....@..@.
    ....@.@..
    ....@.@..
    ....@@...
    ....@@...
    ....@....
    ....@....
    ...@@....
    ...@@....
    ..@.@....
    ..@.@....
    .@..@....
    .@.......
    .........
    .........
    .........

u+023f:
\u023F:
    .........
    .........
    .........
    .........
    .........
    .........
    .........
    ..@@@@@..
    .@.....@.
    .@.......
    .@.......
    ..@@@@@..
    .......@.
    .......@.
    .@.....@.
    ..@@@@@..
    ...@.....
    ....@..@.
    .....@@..
    .........

u+0240:
\u0240:
    .........
    .........
    .........
    .........
    .........
    .........
    .........
    .@@@@@@@.
    .......@.
    ......@..
    .....@...
    ....@....
    ...@.....
    ..@......
    .@.......
    .@@......
    ...@.....
    ....@..@.
    .....@@..
    .........

u+0241:
\u0241:
    .........
    .........
    .........
    ...@@@...
    ..@...@..
    .@.....@.
    .@.....@.
    .......@.
    ......@..
    ....@@...
    ....@....
    ....@....
    ....@....
    ....@....
    ....@....
    ....@....
    .........
    .........
    .........
    .........

u+0242:
\u0242:
    .........
    .........
    .........
    .........
    .........
    .........
    .........
    ...@@@...
    ..@...@..
    .@.....@.
    .......@.
    ......@..
    ....@@...
    ....@....
    ....@....
    ....@....
    .........
    .........
    .........
    .........

u+0243:
\u0243:
    .........
    .........
    .........
    .@@@@@...
    .@....@..
    .@.....@.
    .@.....@.
    .@....@..
    .@@@@@...
    .@....@..
    .@.....@.
    @@@@@..@.
    .@.....@.
    .@.....@.
    .@....@..
    .@@@@@...
    .........
    .........
    .........
    .........

u+0244:
\u0244:
    .........
    .........
    .........
    .@.....@.
    .@.....@.
    .@.....@.
    .@.....@.
    .@.....@.
    .@.....@.
    @@@@@@@@@
    .@.....@.
    .@.....@.
    .@.....@.
    .@.....@.
    ..@...@..
    ...@@@...
    .........
    .........
    .........
    .........

u+0245:
\u0245:
    .........
    .........
    .........
    ....@....
    ....@....
    ...@.@...
    ...@.@...
    ...@.@...
    ..@...@..
    ..@...@..
    ..@...@..
    ..@...@..
    .@.....@.
    .@.....@.
    .@.....@.
    .@.....@.
    .........
    .........
    .........
    .........

u+0246:
\u0246:
    .........
    .........
    ........@
    .@@@@@@@.
    .@.....@.
    .@....@..
    .@....@..
    .@...@...
    .@...@...
    .@@@@@...
    .@..@....
    .@.@.....
    .@.@.....
    .@@......
    .@@......
    .@@@@@@@.
    .@.......
    .........
    .........
    .........

u+0247:
\u0247:
    .........
    .........
    .........
    .........
    .........
    .........
    .........
    ...@@@..@
    ..@...@@.
    .@....@@.
    .@...@.@.
    .@@@@@@@.
    .@.@.....
    .@@......
    .@@....@.
    @..@@@@..
    .........
    .........
    .........
    .........

u+0248:
\u0248:
    .........
    .........
    .........
    .......@.
    .......@.
    .......@.
    .......@.
    .......@.
    .......@.
    ....@@@@@
    .......@.
    .......@.
    .......@.
    .@.....@.
    ..@...@..
    ...@@@...
    .........
    .........
    .........
    .........

u+0249:
\u0249:
    .........
    .........
    .........
    .........
    ......@..
    ......@..
    .........
    ......@..
    ......@..
    ......@..
    ......@..
    ......@..
    ....@@@@.
    ......@..
    ......@..
    ......@..
    ......@..
    ......@..
    ...@@@...
    .........

u+024a:
\u024A:
    .........
    .........
    .........
    ...@@.@..
    ..@..@@..
    .@....@..
    .@....@..
    .@....@..
    .@....@..
    .@....@..
    .@....@..
    .@....@..
    .@....@..
    .@....@..
    ..@..@@..
    ...@@.@..
    ......@..
    ......@..
    .......@@
    .........

u+024b:
\u024B:
    .........
    .........
    .........
    .........
    .........
    .........
    .........
    ...@@.@..
    ..@..@@..
    .@....@..
    .@....@..
    .@....@..
    .@....@..
    .@....@..
    ..@..@@..
    ...@@.@..
    ......@..
    ......@..
    ......@..
    .......@@

u+024c:
\u024C:
    .........
    .........
    .........
    .@@@@@...
    .@....@..
    .@.....@.
    .@.....@.
    .@.....@.
    .@.....@.
    .@....@..
    @@@@@@...
    .@...@...
    .@....@..
    .@....@..
    .@.....@.
    .@.....@.
    .........
    .........
    .........
    .........

u+024d:
\u024D:
    .........
    .........
    .........
    .........
    .........
    .........
    .........
    .@..@@@..
    .@.@...@.
    .@@......
    .@.......
    .@.......
    @@@@.....
    .@.......
    .@.......
    .@.......
    .........
    .........
    .........
    .........

u+024e:
\u024E:
    .........
    .........
    .........
    .@.....@.
    .@.....@.
    ..@...@..
    @@@@@@@@@
    ...@.@...
    ...@.@...
    ....@....
    ....@....
    ....@....
    ....@....
    ....@....
    ....@....
    ....@....
    .........
    .........
    .........
    .........

u+024f:
\u024F:
    .........
    .........
    .........
    .........
    .........
    .........
    .........
    .@.....@.
    .@.....@.
    .@.....@.
    ..@...@..
    ..@...@..
    .@@@@@@@.
    ...@.@...
    ....@....
    ....@....
    ...@.....
    ...@.....
    .@@......
    .........

u+0250:
\u0250:
    .........
    .........
    .........
    .........
    .........
    .........
    .........
    .@.@@@...
    .@@...@..
    .@.....@.
    .@.....@.
    .@....@..
    .@@@@@...
    .@.......
    .@....@..
    ..@@@@...
    .........
    .........
    .........
    .........

u+0251:
\u0251:
    .........
    .........
    .........
    .........
    .........
    .........
    .........
    ...@@..@.
    ..@..@.@.
    .@....@..
    .@....@..
    .@....@..
    .@....@..
    .@....@..
    ..@..@.@.
    ...@@...@
    .........
    .........
    .........
    .........

u+0252:
\u0252:
    .........
    .........
    .........
    .........
    .........
    .........
    .........
    @...@@...
    .@.@..@..
    ..@....@.
    ..@....@.
    ..@....@.
    ..@....@.
    ..@....@.
    .@.@..@..
    .@..@@...
    .........
    .........
    .........
    .........

u+0253:
\u0253:
    .........
    .........
    .........
    ..@@.....
    .@.......
    .@.......
    .@.......
    .@.@@@...
    .@@...@..
    .@.....@.
    .@.....@.
    .@.....@.
    .@.....@.
    .@.....@.
    .@@...@..
    .@.@@@...
    .........
    .........
    .........
    .........

u+0254:
\u0254:
    .........
    .........
    .........
    .........
    .........
    .........
    .........
    ..@@@@...
    .@....@..
    .......@.
    .......@.
    .......@.
    .......@.
    .......@.
    .@....@..
    ..@@@@...
    .........
    .........
    .........
    .........

u+0255:
\u0255:
    .........
    .........
    .........
    .........
    .........
    .........
    .........
    ...@@@@..
    ..@....@.
    .@.......
    .@.......
    .@.......
    .@.......
    .@....@..
    ..@..@.@.
    ...@@@@..
    ...@.....
    .........
    .........
    .........

u+0256:
\u0256:
    .........
    .........
    .........
    ......@..
    ......@..
    ......@..
    ......@..
    ...@@.@..
    ..@..@@..
    .@....@..
    .@....@..
    .@....@..
    .@....@..
    .@....@..
    ..@..@@..
    ...@@.@..
    ......@..
    ......@..
    .......@@
    .........

u+0257:
\u0257:
    .........
    .........
    .........
    .......@@
    ......@..
    ......@..
    ......@..
    ...@@.@..
    ..@..@@..
    .@....@..
    .@....@..
    .@....@..
    .@....@..
    .@....@..
    ..@..@@..
    ...@@.@..
    .........
    .........
    .........
    .........

u+0258:
\u0258:
    .........
    .........
    .........
    .........
    .........
    .........
    .........
    ...@@@...
    ..@...@..
    .@.....@.
    .@.....@.
    .@@@@@@@.
    .......@.
    .......@.
    .@....@..
    ..@@@@...
    .........
    .........
    .........
    .........

u+0259:
\u0259:
    .........
    .........
    .........
    .........
    .........
    .........
    .........
    ..@@@@...
    .@....@..
    .......@.
    .......@.
    .@@@@@@@.
    .@.....@.
    .@.....@.
    ..@...@..
    ...@@@...
    .........
    .........
    .........
    .........

u+025a:
\u025A:
    .........
    .........
    .........
    .........
    .........
    .........
    .........
    ..@@@....
    .@...@.@.
    @.....@.@
    .....@@..
    ....@.@..
    ...@..@..
    ..@...@..
    .@...@...
    ..@@@....
    .........
    .........
    .........
    .........

u+025b:
\u025B:
    .........
    .........
    .........
    .........
    .........
    .........
    .........
    ...@@@@..
    ..@....@.
    .@.......
    ..@......
    ...@@@...
    ..@......
    .@.......
    ..@....@.
    ...@@@@..
    .........
    .........
    .........
    .........

u+025c:
\u025C:
    .........
    .........
    .........
    .........
    .........
    .........
    .........
    ..@@@@...
    .@....@..
    .......@.
    ......@..
    ...@@@...
    ......@..
    .......@.
    .@....@..
    ..@@@@...
    .........
    .........
    .........
    .........

u+025d:
\u025D:
    .........
    .........
    .........
    .........
    .........
    .........
    .........
    ..@@@....
    .@...@...
    ......@.@
    .....@.@.
    ...@@....
    .....@...
    ......@..
    .@...@...
    ..@@@....
    .........
    .........
    .........
    .........

u+025e:
\u025E:
    .........
    .........
    .........
    .........
    .........
    .........
    .........
    ...@@@...
    ..@...@..
    .@.....@.
    .@....@..
    .@.@@@...
    .@....@..
    .@.....@.
    ..@...@..
    ...@@@...
    .........
    .........
    .........
    .........

u+025f:
\u025F:
    .........
    .........
    .........
    .........
    .........
    .........
    .........
    ......@..
    ......@..
    ......@..
    ......@..
    ......@..
    ....@@@@.
    ......@..
    ......@..
    ......@..
    ......@..
    ......@..
    ...@@@...
    .........

u+0260:
\u0260:
    .........
    .........
    .........
    .........
    .........
    .......@@
    ......@..
    ...@@.@..
    ..@..@@..
    .@....@..
    .@....@..
    .@....@..
    .@....@..
    .@....@..
    ..@..@@..
    ...@@.@..
    ......@..
    ......@..
    .@...@...
    ..@@@....

u+0261:
\u0261:
    .........
    .........
    .........
    .........
    .........
    .........
    .........
    ...@@@.@.
    ..@...@@.
    .@.....@.
    .@.....@.
    .@.....@.
    .@.....@.
    .@.....@.
    ..@...@@.
    ...@@@.@.
    .......@.
    .......@.
    .@....@..
    ..@@@@...

u+0262:
\u0262:
    .........
    .........
    .........
    .........
    .........
    .........
    .........
    ...@@@@..
    ..@....@.
    .@.......
    .@.......
    .@.......
    .@....@@.
    .@.....@.
    ..@....@.
    ...@@@@@.
    .........
    .........
    .........
    .........

u+0263:
\u0263:
    .........
    .........
    .........
    .........
    .........
    .........
    .........
    .@.....@.
    .@.....@.
    .@.....@.
    ..@...@..
    ..@...@..
    ...@.@...
    ...@.@...
    ....@....
    ....@....
    ...@.@...
    ...@.@...
    ....@....
    .........

u+0264:
\u0264:
    .........
    .........
    .........
    .........
    .........
    .........
    .........
    ..@...@..
    .@.@.@.@.
    ....@....
    ...@.@...
    ..@...@..
    ..@...@..
    ..@...@..
    ...@.@...
    ....@....
    .........
    .........
    .........
    .........

u+0265:
\u0265:
    .........
    .........
    .........
    .........
    .........
    .........
    .........
    .@.....@.
    .@.....@.
    .@.....@.
    .@.....@.
    .@.....@.
    .@.....@.
    .@.....@.
    .@@...@..
    .@.@@@...
    .@.......
    .@.......
    .@.......
    .@.......

u+0266:
\u0266:
    .........
    .........
    .........
    ..@@.....
    .@.......
    .@.......
    .@.......
    .@.@@@...
    .@@...@..
    .@.....@.
    .@.....@.
    .@.....@.
    .@.....@.
    .@.....@.
    .@.....@.
    .@.....@.
    .........
    .........
    .........
    .........

u+0267:
\u0267:
    .........
    .........
    .........
    ..@@.....
    .@.......
    .@.......
    .@.......
    .@.@@@...
    .@@...@..
    .@.....@.
    .@.....@.
    .@.....@.
    .@.....@.
    .@.....@.
    .@.....@.
    .@.....@.
    .......@.
    .......@.
    .....@@..
    .........

u+0268:
\u0268:
    .........
    .........
    .........
    ....@....
    ....@....
    .........
    .........
    ...@@....
    ....@....
    ....@....
    ....@....
    ..@@@@@..
    ....@....
    ....@....
    ....@....
    ....@....
    .........
    .........
    .........
    .........

u+0269:
\u0269:
    .........
    .........
    .........
    .........
    .........
    .........
    .........
    ...@@....
    ....@....
    ....@....
    ....@....
    ....@....
    ....@....
    ....@....
    ....@....
    .....@@..
    .........
    .........
    .........
    .........

u+026a:
\u026A:
    .........
    .........
    .........
    .........
    .........
    .........
    .........
    ...@@@...
    ....@....
    ....@....
    ....@....
    ....@....
    ....@....
    ....@....
    ....@....
    ...@@@...
    .........
    .........
    .........
    .........

u+026b:
\u026B:
    .........
    .........
    .........
    ...@@....
    ....@....
    ....@....
    ....@....
    ....@....
    ....@....
    ...@@..@.
    ..@.@@@..
    ....@....
    ....@....
    ....@....
    ....@....
    .....@@..
    .........
    .........
    .........
    .........

u+026c:
\u026C:
    .........
    .........
    .........
    ...@@....
    ....@....
    ....@....
    ....@....
    ....@....
    ...@@....
    ..@.@....
    ...@@@@..
    ....@....
    ....@....
    ....@....
    ....@....
    .....@@..
    .........
    .........
    .........
    .........

u+026d:
\u026D:
    .........
    .........
    .........
    ...@@....
    ....@....
    ....@....
    ....@....
    ....@....
    ....@....
    ....@....
    ....@....
    ....@....
    ....@....
    ....@....
    ....@....
    .....@@..
    .........
    .........
    .........
    .........

u+026e:
\u026E:
    .........
    .........
    .........
    @@.......
    .@.......
    .@.......
    .@.......
    .@@@@@@@.
    .@.....@.
    .@....@..
    .@...@...
    .@..@....
    .@.@@@...
    .@....@..
    .@.....@.
    ..@@...@.
    .......@.
    ..@...@..
    ...@@@...
    .........

u+026f:
\u026F:
    .........
    .........
    .........
    .........
    .........
    .........
    .........
    .@..@..@.
    .@..@..@.
    .@..@..@.
    .@..@..@.
    .@..@..@.
    .@..@..@.
    .@..@..@.
    .@..@..@.
    ..@@.@@@.
    .........
    .........
    .........
    .........

u+0270:
\u0270:
    .........
    .........
    .........
    .........
    .........
    .........
    .........
    .@..@..@.
    .@..@..@.
    .@..@..@.
    .@..@..@.
    .@..@..@.
    .@..@..@.
    .@..@..@.
    .@..@..@.
    ..@@.@@@.
    .......@.
    .......@.
    .......@.
    .........

u+0271:
\u0271:
    .........
    .........
    .........
    .........
    .........
    .........
    .........
    .@@@.@@..
    .@..@..@.
    .@..@..@.
    .@..@..@.
    .@..@..@.
    .@..@..@.
    .@..@..@.
    .@..@..@.
    .@..@..@.
    .......@.
    .......@.
    .....@@..
    .........

u+0272:
\u0272:
    .........
    .........
    .........
    .........
    .........
    .........
    .........
    ..@.@@...
    ..@@..@..
    ..@....@.
    ..@....@.
    ..@....@.
    ..@....@.
    ..@....@.
    ..@....@.
    ..@....@.
    ..@......
    ..@......
    @@.......
    .........

u+0273:
\u0273:
    .........
    .........
    .........
    .........
    .........
    .........
    .........
    .@.@@....
    .@@..@...
    .@....@..
    .@....@..
    .@....@..
    .@....@..
    .@....@..
    .@....@..
    .@....@..
    ......@..
    ......@..
    .......@@
    .........

u+0274:
\u0274:
    .........
    .........
    .........
    .........
    .........
    .........
    .........
    .@.....@.
    .@@....@.
    .@.@...@.
    .@.@...@.
    .@..@..@.
    .@...@.@.
    .@...@.@.
    .@....@@.
    .@.....@.
    .........
    .........
    .........
    .........

u+0275:
\u0275:
    .........
    .........
    .........
    .........
    .........
    .........
    .........
    ...@@@...
    ..@...@..
    .@.....@.
    .@.....@.
    .@@@@@@@.
    .@.....@.
    .@.....@.
    ..@...@..
    ...@@@...
    .........
    .........
    .........
    .........

u+0276:
\u0276:
    .........
    .........
    .........
    .........
    .........
    .........
    .........
    ..@@@@@..
    .@..@..@.
    @...@...@
    @...@...@
    @...@@@@@
    @...@....
    @...@....
    .@..@...@
    ..@@@@@@.
    .........
    .........
    .........
    .........

u+0277:
\u0277:
    .........
    .........
    .........
    .........
    .........
    .........
    .........
    ...@@@...
    ..@...@..
    .@.....@.
    .@..@..@.
    .@..@..@.
    .@..@..@.
    .@..@..@.
    .@..@..@.
    ..@@.@@..
    .........
    .........
    .........
    .........

u+0278:
\u0278:
    .........
    .........
    .........
    ....@....
    ....@....
    ....@....
    ....@....
    ...@@@...
    ..@.@.@..
    .@..@..@.
    .@..@..@.
    .@..@..@.
    .@..@..@.
    .@..@..@.
    ..@.@.@..
    ...@@@...
    ....@....
    ....@....
    ....@....
    .........

u+0279:
\u0279:
    .........
    .........
    .........
    .........
    .........
    .........
    .........
    .......@.
    .......@.
    .......@.
    .......@.
    .......@.
    .......@.
    ......@@.
    .@...@.@.
    ..@@@..@.
    .........
    .........
    .........
    .........

u+027a:
\u027A:
    .........
    .........
    .........
    .......@.
    .......@.
    .......@.
    .......@.
    .......@.
    .......@.
    .......@.
    .......@.
    .......@.
    .......@.
    ......@@.
    .@...@.@.
    ..@@@..@.
    .........
    .........
    .........
    .........

u+027b:
\u027B:
    .........
    .........
    .........
    .........
    .........
    .........
    .........
    ......@..
    ......@..
    ......@..
    ......@..
    ......@..
    ......@..
    .....@@..
    .@..@.@..
    ..@@..@..
    ......@..
    .......@@
    .........
    .........

u+027c:
\u027C:
    .........
    .........
    .........
    .........
    .........
    .........
    .........
    .@..@@@..
    .@.@...@.
    .@@......
    .@.......
    .@.......
    .@.......
    .@.......
    .@.......
    .@.......
    .@.......
    .@.......
    .@.......
    .........

u+027d:
\u027D:
    .........
    .........
    .........
    .........
    .........
    .........
    .........
    .@..@@@..
    .@.@...@.
    .@@......
    .@.......
    .@.......
    .@.......
    .@.......
    .@.......
    .@.......
    .@.......
    .@.......
    ..@@.....
    .........

u+027e:
\u027E:
    .........
    .........
    .........
    .........
    .........
    .........
    .........
    ....@@@..
    ...@...@.
    ..@......
    .@.......
    .@.......
    .@.......
    .@.......
    .@.......
    .@.......
    .........
    .........
    .........
    .........

u+027f:
\u027F:
    .........
    .........
    .........
    .........
    .........
    .........
    .........
    ..@@@....
    .@...@...
    ......@..
    .......@.
    .......@.
    .......@.
    .......@.
    .......@.
    .......@.
    .......@.
    .......@.
    .......@.
    .........

u+0280:
\u0280:
    .........
    .........
    .........
    .........
    .........
    .........
    .........
    .@@@@@@..
    .@.....@.
    .@.....@.
    .@.....@.
    .@@@@@@..
    .@..@....
    .@...@...
    .@....@..
    .@.....@.
    .........
    .........
    .........
    .........

u+0281:
\u0281:
    .........
    .........
    .........
    .........
    .........
    .........
    .........
    .@.....@.
    .@....@..
    .@...@...
    .@..@....
    .@@@@@@..
    .@.....@.
    .@.....@.
    .@.....@.
    .@@@@@@..
    .........
    .........
    .........
    .........

u+0282:
\u0282:
    .........
    .........
    .........
    .........
    .........
    .........
    .........
    ..@@@@@..
    .@.....@.
    .@.......
    .@.......
    ..@@@@@..
    .......@.
    .......@.
    .@.....@.
    ..@@@@@..
    ...@.....
    ....@..@.
    .....@@..
    .........

u+0283:
\u0283:
    .........
    .........
    .........
    .....@@@.
    ....@....
    ....@....
    ....@....
    ....@....
    ....@....
    ....@....
    ....@....
    ....@....
    ....@....
    ....@....
    ....@....
    ....@....
    ....@....
    ....@....
    ..@@.....
    .........

u+0284:
\u0284:
    .........
    .........
    .........
    .........
    ......@@.
    .....@...
    .....@...
    .....@...
    .....@...
    .....@...
    .....@...
    .....@...
    .....@...
    .....@...
    .....@...
    ...@@@@@.
    .....@...
    .....@...
    ...@@....
    .........

u+0285:
\u0285:
    .........
    .........
    .........
    .........
    .........
    .........
    .........
    ..@@.....
    ....@....
    ....@....
    ....@....
    ....@....
    ....@....
    ....@....
    ....@....
    ....@....
    ....@....
    ....@....
    .....@@..
    .........

u+0286:
\u0286:
    .........
    .........
    .........
    .....@@@.
    ....@....
    ....@....
    ....@....
    ....@....
    ....@....
    ....@....
    ....@....
    ....@....
    ....@....
    ....@....
    ....@....
    ....@....
    ...@@....
    ..@.@....
    ...@.@...
    .........

u+0287:
\u0287:
    .........
    .........
    .........
    .........
    .........
    .........
    .........
    ..@@@....
    .....@...
    .....@...
    .....@...
    .....@...
    .....@...
    .....@...
    .....@...
    ...@@@@@.
    .....@...
    .....@...
    .........
    .........

u+0288:
\u0288:
    .........
    .........
    .........
    .........
    .........
    ....@....
    ....@....
    ..@@@@@..
    ....@....
    ....@....
    ....@....
    ....@....
    ....@....
    ....@....
    ....@....
    ....@....
    ....@....
    ....@....
    .....@@..
    .........

u+0289:
\u0289:
    .........
    .........
    .........
    .........
    .........
    .........
    .........
    .@.....@.
    .@.....@.
    .@.....@.
    .@.....@.
    @@@@@@@@@
    .@.....@.
    .@.....@.
    ..@...@@.
    ...@@@.@.
    .........
    .........
    .........
    .........

u+028a:
\u028A:
    .........
    .........
    .........
    .........
    .........
    .........
    .........
    .@@@.@@@.
    ...@.@...
    ..@...@..
    .@.....@.
    .@.....@.
    .@.....@.
    .@.....@.
    ..@...@..
    ...@@@...
    .........
    .........
    .........
    .........

u+028b:
\u028B:
    .........
    .........
    .........
    .........
    .........
    .........
    .........
    .@...@...
    .@....@..
    .@.....@.
    .@.....@.
    .@.....@.
    .@.....@.
    .@....@..
    ..@...@..
    ...@@@...
    .........
    .........
    .........
    .........

u+028c:
\u028C:
    .........
    .........
    .........
    .........
    .........
    .........
    .........
    ....@....
    ....@....
    ...@.@...
    ...@.@...
    ..@...@..
    ..@...@..
    .@.....@.
    .@.....@.
    .@.....@.
    .........
    .........
    .........
    .........

u+028d:
\u028D:
    .........
    .........
    .........
    .........
    .........
    .........
    .........
    ..@...@..
    ..@...@..
    ..@...@..
    .@.@.@.@.
    .@.@.@.@.
    .@..@..@.
    .@..@..@.
    .@..@..@.
    .@.....@.
    .........
    .........
    .........
    .........

u+028e:
\u028E:
    .........
    .........
    .........
    .........
    ......@@.
    .....@...
    .....@...
    ....@....
    ....@....
    ...@.@...
    ...@.@...
    ..@...@..
    ..@...@..
    .@.....@.
    .@.....@.
    .@.....@.
    .........
    .........
    .........
    .........

u+028f:
\u028F:
    .........
    .........
    .........
    .........
    .........
    .........
    .........
    .@.....@.
    ..@...@..
    ...@.@...
    ....@....
    ....@....
    ....@....
    ....@....
    ....@....
    ....@....
    .........
    .........
    .........
    .........

u+0290:
\u0290:
    .........
    .........
    .........
    .........
    .........
    .........
    .........
    .@@@@@@@.
    .......@.
    ......@..
    .....@...
    ....@....
    ...@.....
    ..@......
    .@.......
    .@@@@@@@.
    ......@..
    ......@..
    .......@@
    .........

u+0291:
\u0291:
    .........
    .........
    .........
    .........
    .........
    .........
    .........
    .@@@@@@@.
    .......@.
    ......@..
    .....@...
    ....@....
    ...@.....
    ..@...@@.
    .@...@..@
    .@@@@@@@.
    ...@.....
    .........
    .........
    .........

u+0292:
\u0292:
    .........
    .........
    .........
    .........
    .........
    .........
    .........
    .@@@@@@@.
    .......@.
    ......@..
    .....@...
    ....@....
    ...@@@...
    ......@..
    .......@.
    .......@.
    .@.....@.
    ..@...@..
    ...@@@...
    .........

u+0293:
\u0293:
    .........
    .........
    .........
    .........
    .........
    .........
    .........
    .@@@@@@@.
    .......@.
    ......@..
    .....@...
    ....@....
    ...@@@...
    ......@..
    .......@.
    .......@.
    ...@@..@.
    ..@..@@..
    ...@@@@..
    .........

u+0294:
\u0294:
    .........
    .........
    .........
    ...@@@...
    ..@...@..
    .@.....@.
    .@.....@.
    .......@.
    ......@..
    ....@@...
    ....@....
    ....@....
    ....@....
    ....@....
    ....@....
    ....@....
    .........
    .........
    .........
    .........

u+0295:
\u0295:
    .........
    .........
    .........
    ...@@@...
    ..@...@..
    .@.....@.
    .@.....@.
    .@.......
    ..@......
    ...@@....
    ....@....
    ....@....
    ....@....
    ....@....
    ....@....
    ....@....
    .........
    .........
    .........
    .........

u+0296:
\u0296:
    .........
    .........
    .........
    .........
    .........
    .........
    .........
    ....@....
    ....@....
    ....@....
    ....@....
    ....@....
    ....@....
    ....@@...
    ......@..
    .......@.
    .@.....@.
    .@.....@.
    ..@...@..
    ...@@@...

u+0297:
\u0297:
    .........
    .........
    .........
    .........
    .........
    .........
    .........
    ...@@@@..
    ..@....@.
    .@.......
    .@.......
    .@.......
    .@.......
    .@.......
    ..@....@.
    ...@@@@..
    .........
    .........
    .........
    .........

u+0298:
\u0298:
    .........
    .........
    .........
    ...@@@...
    ..@...@..
    .@.....@.
    .@.....@.
    .@.....@.
    .@.....@.
    .@..@..@.
    .@.....@.
    .@.....@.
    .@.....@.
    .@.....@.
    ..@...@..
    ...@@@...
    .........
    .........
    .........
    .........

u+0299:
\u0299:
    .........
    .........
    .........
    .........
    .........
    .........
    .........
    .@@@@@@..
    .@.....@.
    .@.....@.
    .@.....@.
    .@@@@@@..
    .@.....@.
    .@.....@.
    .@.....@.
    .@@@@@@..
    .........
    .........
    .........
    .........

u+029a:
\u029A:
    .........
    .........
    .........
    .........
    .........
    .........
    .........
    ...@@@...
    ..@...@..
    .@.....@.
    ..@....@.
    ...@@..@.
    ..@....@.
    .@.....@.
    ..@...@..
    ...@@@...
    .........
    .........
    .........
    .........

u+029b:
\u029B:
    .........
    .........
    .........
    .........
    .........
    .........
    .......@@
    ...@@@@..
    ..@...@..
    .@.......
    .@.......
    .@.......
    .@...@@..
    .@....@..
    ..@...@..
    ...@@@@..
    .........
    .........
    .........
    .........

u+029c:
\u029C:
    .........
    .........
    .........
    .........
    .........
    .........
    .........
    .@.....@.
    .@.....@.
    .@.....@.
    .@.....@.
    .@@@@@@@.
    .@.....@.
    .@.....@.
    .@.....@.
    .@.....@.
    .........
    .........
    .........
    .........

u+029d:
\u029D:
    .........
    .........
    .........
    ....@....
    ....@....
    .........
    .........
    ....@....
    ....@....
    ....@....
    ....@....
    ....@....
    ....@....
    ....@....
    ....@....
    ..@@@@...
    .@..@....
    .@..@....
    ..@@.....
    .........

u+029e:
\u029E:
    .........
    .........
    .........
    .........
    .........
    .........
    .........
    .@.....@.
    ..@....@.
    ...@...@.
    ....@..@.
    .....@@@.
    ....@..@.
    ...@...@.
    ..@....@.
    .@.....@.
    .......@.
    .......@.
    .......@.
    .......@.

u+029f:
\u029F:
    .........
    .........
    .........
    .........
    .........
    .........
    .........
    .@.......
    .@.......
    .@.......
    .@.......
    .@.......
    .@.......
    .@.......
    .@.......
    .@@@@@@@.
    .........
    .........
    .........
    .........

u+02a0:
\u02A0:
    .........
    .........
    .........
    .........
    .......@@
    ......@..
    ......@..
    ...@@.@..
    ..@..@@..
    .@....@..
    .@....@..
    .@....@..
    .@....@..
    .@....@..
    ..@..@@..
    ...@@.@..
    ......@..
    ......@..
    ......@..
    .........

u+02a1:
\u02A1:
    .........
    .........
    .........
    ...@@@...
    ..@...@..
    .@.....@.
    .@.....@.
    .......@.
    ......@..
    ....@@...
    ....@....
    ..@@@@@..
    ....@....
    ....@....
    ....@....
    ....@....
    .........
    .........
    .........
    .........

u+02a2:
\u02A2:
    .........
    .........
    .........
    ...@@@...
    ..@...@..
    .@.....@.
    .@.....@.
    .@.......
    ..@......
    ...@@....
    ....@....
    ..@@@@@..
    ....@....
    ....@....
    ....@....
    ....@....
    .........
    .........
    .........
    .........

u+02a3:
\u02A3:
    .........
    .........
    .........
    ....@....
    ....@....
    ....@....
    ....@....
    ..@.@@@@@
    .@.@@...@
    @...@...@
    @...@..@.
    @...@..@.
    @...@.@..
    @...@.@..
    .@.@@@...
    ..@.@@@@@
    .........
    .........
    .........
    .........

u+02a4:
\u02A4:
    .........
    .........
    .........
    ....@....
    ....@....
    ....@....
    ....@....
    ..@.@@@@@
    .@.@@...@
    @...@..@.
    @...@..@.
    @...@.@..
    @...@.@..
    @...@..@.
    .@.@@...@
    ..@.@...@
    ........@
    ....@..@.
    .....@@..
    .........

u+02a5:
\u02A5:
    .........
    .........
    .........
    ....@....
    ....@....
    ....@....
    ....@....
    ..@.@@@@@
    .@.@@...@
    @...@...@
    @...@..@.
    @...@..@.
    @...@.@..
    @...@.@@.
    .@.@@@@.@
    ..@.@@@@@
    .....@...
    .........
    .........
    .........

u+02a6:
\u02A6:
    .........
    .........
    .........
    .........
    .........
    .@.......
    .@.......
    @@@.@@@..
    .@.@...@.
    .@.@.....
    .@.@.....
    .@..@@@..
    .@.....@.
    .@.....@.
    .@.....@.
    ..@@@@@..
    .........
    .........
    .........
    .........

u+02a7:
\u02A7:
    .........
    .........
    .........
    .......@@
    ......@..
    ..@...@..
    ..@...@..
    @@@@@.@..
    ..@...@..
    ..@...@..
    ..@...@..
    ..@...@..
    ..@...@..
    ..@...@..
    ..@...@..
    ...@@@@..
    ......@..
    ......@..
    ....@@...
    .........

u+02a8:
\u02A8:
    .........
    .........
    .........
    .........
    .........
    .@.......
    .@.......
    @@@.@@@..
    .@.@...@.
    .@.@.....
    .@.@.....
    .@.@.....
    .@.@.....
    .@.@.@@..
    .@.@@..@.
    ..@@@@@..
    .........
    .........
    .........
    .........

u+02a9:
\u02A9:
    .........
    .........
    .........
    ..@@@....
    .@.......
    .@.......
    .@.......
    @@@@@.@..
    .@..@@.@.
    .@..@..@.
    .@..@..@.
    .@..@..@.
    .@..@..@.
    .@..@..@.
    .@..@..@.
    .@..@..@.
    .......@.
    ....@..@.
    .....@@..
    .........

u+02aa:
\u02AA:
    .........
    .........
    .........
    @@.......
    .@.......
    .@.......
    .@.......
    .@..@@@..
    .@.@...@.
    .@.@.....
    .@.@.....
    .@..@@@..
    .@.....@.
    .@.....@.
    .@.....@.
    ..@@@@@..
    .........
    .........
    .........
    .........

u+02ab:
\u02AB:
    .........
    .........
    .........
    @@.......
    .@.......
    .@.......
    .@.......
    .@@@@@@@.
    .@.....@.
    .@....@..
    .@...@...
    .@..@....
    .@.@.....
    .@@......
    .@.......
    .@@@@@@@.
    .........
    .........
    .........
    .........

u+02ac:
\u02AC:
    .........
    .........
    .........
    .@..@..@.
    .@..@..@.
    .@..@..@.
    .@..@..@.
    .@.@.@.@.
    ..@...@..
    .........
    .@..@..@.
    .@..@..@.
    .@..@..@.
    .@..@..@.
    .@.@.@.@.
    ..@...@..
    .........
    .........
    .........
    .........

u+02ad:
\u02AD:
    .........
    .........
    .........
    .........
    .........
    .........
    .@@@@@@@.
    .@.....@.
    .@.....@.
    .........
    .........
    .@@@@@@@.
    .@.....@.
    .@.....@.
    .........
    .........
    .........
    .........
    .........
    .........

u+02ae:
\u02AE:
    .........
    .........
    .........
    .........
    .........
    .........
    .........
    @@.....@.
    ..@....@.
    ..@....@.
    ..@....@.
    ..@....@.
    ..@....@.
    ..@....@.
    ...@..@@.
    ....@@.@.
    .......@.
    .......@.
    .......@.
    .......@.

u+02af:
\u02AF:
    .........
    .........
    .........
    .........
    .........
    .........
    .........
    @@....@..
    ..@...@..
    ..@...@..
    ..@...@..
    ..@...@..
    ..@...@..
    ..@...@..
    ..@..@@..
    ...@@.@..
    ......@..
    ......@..
    ......@..
    .......@@

u+02b0:
\u02B0:
    .........
    .........
    ..@......
    ..@......
    ..@@@@...
    ..@...@..
    ..@...@..
    ..@...@..
    ..@...@..
    .........
    .........
    .........
    .........
    .........
    .........
    .........
    .........
    .........
    .........
    .........

u+02b1:
\u02B1:
    .........
    .........
    ...@@....
    ..@......
    ..@@@@...
    ..@...@..
    ..@...@..
    ..@...@..
    ..@...@..
    .........
    .........
    .........
    .........
    .........
    .........
    .........
    .........
    .........
    .........
    .........

u+02b2:
\u02B2:
    .........
    .........
    .........
    .........
    .....@...
    .........
    .....@...
    .....@...
    .....@...
    ...@@....
    .........
    .........
    .........
    .........
    .........
    .........
    .........
    .........
    .........
    .........

u+02b3:
\u02B3:
    .........
    .........
    .........
    .........
    ..@.@@...
    ..@@.....
    ..@......
    ..@......
    ..@......
    .........
    .........
    .........
    .........
    .........
    .........
    .........
    .........
    .........
    .........
    .........

u+02b4:
\u02B4:
    .........
    .........
    .........
    .........
    .....@...
    .....@...
    .....@...
    ....@@...
    ..@@.@...
    .........
    .........
    .........
    .........
    .........
    .........
    .........
    .........
    .........
    .........
    .........

u+02b5:
\u02B5:
    .........
    .........
    .........
    .........
    .....@...
    .....@...
    .....@...
    ....@@...
    ..@@.@...
    .....@...
    ......@..
    .........
    .........
    .........
    .........
    .........
    .........
    .........
    .........
    .........

u+02b6:
\u02B6:
    .........
    .........
    .........
    .........
    ..@..@...
    ..@.@....
    ..@@@....
    ..@..@...
    ..@@@....
    .........
    .........
    .........
    .........
    .........
    .........
    .........
    .........
    .........
    .........
    .........

u+02b7:
\u02B7:
    .........
    .........
    .........
    .........
    ..@...@..
    ..@.@.@..
    ..@.@.@..
    ...@.@...
    ...@.@...
    .........
    .........
    .........
    .........
    .........
    .........
    .........
    .........
    .........
    .........
    .........

u+02b8:
\u02B8:
    .........
    .........
    .........
    .........
    ..@...@..
    ..@...@..
    ...@.@...
    ...@.@...
    ....@....
    ....@....
    ..@@.....
    .........
    .........
    .........
    .........
    .........
    .........
    .........
    .........
    .........

u+02b9:
\u02B9:
    .........
    ....@....
    ....@....
    ....@....
    ...@.....
    ...@.....
    ...@.....
    .........
    .........
    .........
    .........
    .........
    .........
    .........
    .........
    .........
    .........
    .........
    .........
    .........

u+02ba:
\u02BA:
    .........
    ...@..@..
    ...@..@..
    ...@..@..
    ..@..@...
    ..@..@...
    ..@..@...
    .........
    .........
    .........
    .........
    .........
    .........
    .........
    .........
    .........
    .........
    .........
    .........
    .........

u+02bb:
\u02BB:
    .........
    .........
    .....@...
    ....@....
    ....@....
    ....@....
    .........
    .........
    .........
    .........
    .........
    .........
    .........
    .........
    .........
    .........
    .........
    .........
    .........
    .........

u+02bc:
\u02BC:
    .........
    .........
    ....@....
    ....@....
    ....@....
    ...@.....
    .........
    .........
    .........
    .........
    .........
    .........
    .........
    .........
    .........
    .........
    .........
    .........
    .........
    .........

u+02bd:
\u02BD:
    .........
    .........
    ....@....
    ....@....
    ....@....
    .....@...
    .........
    .........
    .........
    .........
    .........
    .........
    .........
    .........
    .........
    .........
    .........
    .........
    .........
    .........

u+02be:
\u02BE:
    .........
    .........
    ...@@....
    .....@...
    .....@...
    ...@@....
    .........
    .........
    .........
    .........
    .........
    .........
    .........
    .........
    .........
    .........
    .........
    .........
    .........
    .........

u+02bf:
\u02BF:
    .........
    .........
    ....@@...
    ...@.....
    ...@.....
    ....@@...
    .........
    .........
    .........
    .........
    .........
    .........
    .........
    .........
    .........
    .........
    .........
    .........
    .........
    .........

u+02c0:
\u02C0:
    .........
    .........
    ...@@@...
    ..@...@..
    ..@...@..
    ......@..
    ....@@...
    ....@....
    ....@....
    .........
    .........
    .........
    .........
    .........
    .........
    .........
    .........
    .........
    .........
    .........

u+02c1:
\u02C1:
    .........
    .........
    ...@@@...
    ..@...@..
    ..@...@..
    ..@......
    ...@@....
    ....@....
    ....@....
    .........
    .........
    .........
    .........
    .........
    .........
    .........
    .........
    .........
    .........
    .........

u+02c2:
\u02C2:
    .........
    .........
    .........
    .........
    .....@...
    ....@....
    ...@.....
    ....@....
    .....@...
    .........
    .........
    .........
    .........
    .........
    .........
    .........
    .........
    .........
    .........
    .........

u+02c3:
\u02C3:
    .........
    .........
    .........
    .........
    ...@.....
    ....@....
    .....@...
    ....@....
    ...@.....
    .........
    .........
    .........
    .........
    .........
    .........
    .........
    .........
    .........
    .........
    .........

u+02c4:
\u02C4:
    .........
    .........
    .........
    .........
    .........
    .........
    ....@....
    ...@.@...
    ..@...@..
    .........
    .........
    .........
    .........
    .........
    .........
    .........
    .........
    .........
    .........
    .........

u+02c5:
\u02C5:
    .........
    .........
    .........
    .........
    .........
    .........
    ..@...@..
    ...@.@...
    ....@....
    .........
    .........
    .........
    .........
    .........
    .........
    .........
    .........
    .........
    .........
    .........

u+02c6:
\u02C6:
    .........
    .........
    .........
    .........
    ....@....
    ...@.@...
    .........
    .........
    .........
    .........
    .........
    .........
    .........
    .........
    .........
    .........
    .........
    .........
    .........
    .........

u+02c7:
\u02C7:
    .........
    .........
    .........
    .........
    ...@.@...
    ....@....
    .........
    .........
    .........
    .........
    .........
    .........
    .........
    .........
    .........
    .........
    .........
    .........
    .........
    .........

u+02c8:
\u02C8:
    .........
    .........
    .........
    ....@....
    ....@....
    ....@....
    ....@....
    .........
    .........
    .........
    .........
    .........
    .........
    .........
    .........
    .........
    .........
    .........
    .........
    .........

u+02c9:
\u02C9:
    .........
    .........
    .........
    ..@@@@@..
    .........
    .........
    .........
    .........
    .........
    .........
    .........
    .........
    .........
    .........
    .........
    .........
    .........
    .........
    .........
    .........

u+02ca:
\u02CA:
    .........
    .........
    .........
    .....@...
    ....@....
    ...@.....
    .........
    .........
    .........
    .........
    .........
    .........
    .........
    .........
    .........
    .........
    .........
    .........
    .........
    .........

u+02cb:
\u02CB:
    .........
    .........
    .........
    ....@....
    .....@...
    ......@..
    .........
    .........
    .........
    .........
    .........
    .........
    .........
    .........
    .........
    .........
    .........
    .........
    .........
    .........

u+02cc:
\u02CC:
    .........
    .........
    .........
    .........
    .........
    .........
    .........
    .........
    .........
    .........
    .........
    .........
    .........
    .........
    .........
    ....@....
    ....@....
    ....@....
    ....@....
    .........

u+02cd:
\u02CD:
    .........
    .........
    .........
    .........
    .........
    .........
    .........
    .........
    .........
    .........
    .........
    .........
    .........
    .........
    .........
    .........
    .........
    .........
    ..@@@@@..
    .........

u+02ce:
\u02CE:
    .........
    .........
    .........
    .........
    .........
    .........
    .........
    .........
    .........
    .........
    .........
    .........
    .........
    .........
    .........
    .........
    .........
    ...@.....
    ....@....
    .....@...

u+02cf:
\u02CF:
    .........
    .........
    .........
    .........
    .........
    .........
    .........
    .........
    .........
    .........
    .........
    .........
    .........
    .........
    .........
    .........
    .........
    .....@...
    ....@....
    ...@.....

u+02d0:
\u02D0:
    .........
    .........
    .........
    .........
    .........
    .........
    .........
    ...@@@...
    ....@....
    .........
    .........
    .........
    .........
    .........
    ....@....
    ...@@@...
    .........
    .........
    .........
    .........

u+02d1:
\u02D1:
    .........
    .........
    .........
    .........
    .........
    .........
    .........
    ...@@@...
    ....@....
    .........
    .........
    .........
    .........
    .........
    .........
    .........
    .........
    .........
    .........
    .........

u+02d2:
\u02D2:
    .........
    .........
    .........
    .........
    .........
    .........
    .........
    .........
    .........
    ..@@.....
    ....@....
    .....@...
    .....@...
    ....@....
    ..@@.....
    .........
    .........
    .........
    .........
    .........

u+02d3:
\u02D3:
    .........
    .........
    .........
    .........
    .........
    .........
    .........
    .........
    .........
    ....@@...
    ...@.....
    ..@......
    ..@......
    ...@.....
    ....@@...
    .........
    .........
    .........
    .........
    .........

u+02d4:
\u02D4:
    .........
    .........
    .........
    .........
    .........
    .........
    .........
    .........
    .........
    .........
    ....@....
    ....@....
    ....@....
    ..@@@@@..
    .........
    .........
    .........
    .........
    .........
    .........

u+02d5:
\u02D5:
    .........
    .........
    .........
    .........
    .........
    .........
    .........
    .........
    .........
    .........
    ..@@@@@..
    ....@....
    ....@....
    ....@....
    .........
    .........
    .........
    .........
    .........
    .........

u+02d6:
\u02D6:
    .........
    .........
    .........
    .........
    .........
    .........
    .........
    .........
    .........
    ....@....
    ....@....
    ..@@@@@..
    ....@....
    ....@....
    .........
    .........
    .........
    .........
    .........
    .........

u+02d7:
\u02D7:
    .........
    .........
    .........
    .........
    .........
    .........
    .........
    .........
    .........
    .........
    .........
    ..@@@@@..
    .........
    .........
    .........
    .........
    .........
    .........
    .........
    .........

u+02d8:
\u02D8:
    ..@...@..
    ...@@@...
    .........
    .........
    .........
    .........
    .........
    .........
    .........
    .........
    .........
    .........
    .........
    .........
    .........
    .........
    .........
    .........
    .........
    .........

u+02d9:
\u02D9:
    ....@....
    ....@....
    .........
    .........
    .........
    .........
    .........
    .........
    .........
    .........
    .........
    .........
    .........
    .........
    .........
    .........
    .........
    .........
    .........
    .........

u+02da:
\u02DA:
    ....@....
    ...@.@...
    ....@....
    .........
    .........
    .........
    .........
    .........
    .........
    .........
    .........
    .........
    .........
    .........
    .........
    .........
    .........
    .........
    .........
    .........

u+02db:
\u02DB:
    .........
    .........
    .........
    .........
    .........
    .........
    .........
    .........
    .........
    .........
    .........
    .........
    .........
    .........
    .........
    .........
    ....@....
    ...@.....
    ....@@...
    .........

u+02dc:
\u02DC:
    ..@@..@@.
    .@..@@...
    .........
    .........
    .........
    .........
    .........
    .........
    .........
    .........
    .........
    .........
    .........
    .........
    .........
    .........
    .........
    .........
    .........
    .........

u+02dd:
\u02DD:
    ...@..@..
    ..@..@...
    .........
    .........
    .........
    .........
    .........
    .........
    .........
    .........
    .........
    .........
    .........
    .........
    .........
    .........
    .........
    .........
    .........
    .........

u+02de:
\u02DE:
    .........
    .........
    .........
    .........
    .........
    .........
    .........
    ..@......
    .@@......
    @..@@....
    .........
    .........
    .........
    .........
    .........
    .........
    .........
    .........
    .........
    .........

u+02df:
\u02DF:
    ...@.@...
    ....@....
    ...@.@...
    .........
    .........
    .........
    .........
    .........
    .........
    .........
    .........
    .........
    .........
    .........
    .........
    .........
    .........
    .........
    .........
    .........

u+02e0:
\u02E0:
    .........
    .........
    .........
    .........
    ..@...@..
    ..@...@..
    ...@.@...
    ...@.@...
    ....@....
    ...@.@...
    ....@....
    .........
    .........
    .........
    .........
    .........
    .........
    .........
    .........
    .........

